<svg width="161" height="161" viewBox="0 0 161 161" fill="none" xmlns="http://www.w3.org/2000/svg">
<path d="M80.4 0.100098C36 0.100098 0 36.2001 0 80.5001C0 124.8 36.1 160.9 80.4 160.9C124.8 160.9 160.8 124.8 160.8 80.5001C160.8 36.2001 124.8 0.100098 80.4 0.100098ZM80.4 158.4C37.5 158.4 2.5 123.5 2.5 80.5001C2.5 37.6001 37.4 2.6001 80.4 2.6001C123.3 2.6001 158.3 37.5001 158.3 80.5001C158.3 123.4 123.4 158.4 80.4 158.4Z" fill="#9D1D20"/>
<path d="M142 80.8L141.8 82.9001L145.3 85.4001L141.5 87.3L141.3 89.5001L146.9 86.5001L150.8 86.8L151 84.9001L147.1 84.6001L142 80.8Z" fill="#9D1D20"/>
<path d="M142.7 90.4L141.2 90L139.6 97.2L141.1 97.6L141.7 94.9L149.3 96.5L149.7 94.7L142.1 93L142.7 90.4Z" fill="#9D1D20"/>
<path d="M139.136 98.5509L138.544 100.356L147.382 103.252L147.973 101.447L139.136 98.5509Z" fill="#9D1D20"/>
<path d="M144 104.9C143.5 104.7 143 104.6 142.5 104.6C142 104.7 141.6 104.8 141.2 105.1C140.8 105.4 140.3 105.9 139.8 106.7C139.2 107.4 138.8 107.9 138.5 108C138.3 108.1 138.1 108.1 137.9 108C137.7 107.9 137.5 107.7 137.5 107.5C137.4 107.1 137.5 106.7 137.7 106.2C137.9 105.7 138.2 105.4 138.5 105.2C138.8 105 139.2 105 139.7 105.2L140.4 103.5C139.6 103.2 138.9 103.2 138.1 103.5C137.4 103.8 136.8 104.5 136.3 105.6C136 106.3 135.9 106.9 135.8 107.4C135.8 107.9 135.9 108.4 136.2 108.8C136.5 109.2 136.8 109.5 137.2 109.7C137.9 110 138.6 110 139.3 109.7C139.8 109.5 140.4 109 141 108.1C141.5 107.5 141.8 107.1 142 106.9C142.2 106.7 142.5 106.5 142.7 106.4C142.9 106.3 143.1 106.4 143.3 106.5C143.6 106.6 143.8 106.9 143.9 107.3C144 107.7 143.9 108.2 143.7 108.7C143.5 109.2 143.2 109.6 142.7 109.8C142.3 110 141.8 110 141.2 109.9L140.6 111.6C141.6 111.9 142.5 111.9 143.2 111.5C143.9 111.2 144.6 110.4 145.1 109.4C145.4 108.7 145.6 108 145.6 107.4C145.6 106.8 145.5 106.3 145.2 105.8C144.8 105.4 144.5 105.1 144 104.9Z" fill="#9D1D20"/>
<path d="M138.3 114.9C137.9 115 137.5 115.1 137.1 115.3C137.4 114.6 137.5 113.9 137.4 113.3C137.2 112.7 136.9 112.2 136.3 111.8C135.8 111.5 135.4 111.3 134.8 111.3C134.3 111.3 133.9 111.4 133.5 111.7C133.1 112 132.7 112.5 132.1 113.4L130 116.7L137.8 121.7L138.8 120.1L135.5 118L135.7 117.7C135.9 117.3 136.1 117.1 136.3 117C136.5 116.9 136.7 116.8 136.9 116.7C137.1 116.7 137.7 116.6 138.6 116.6H141L142.2 114.7H140.1C139.3 114.8 138.7 114.9 138.3 114.9ZM135.9 114.8C135.8 115 135.6 115.5 135.1 116.3L134.4 117.5L132.4 116.2L133.2 115C133.6 114.4 133.9 114 134 113.9C134.2 113.7 134.4 113.5 134.7 113.5C135 113.5 135.2 113.5 135.5 113.7C135.7 113.9 135.9 114 136 114.2C135.9 114.3 135.9 114.5 135.9 114.8Z" fill="#9D1D20"/>
<path d="M131.1 127.4L129.2 125.7L132.3 122.2L131.1 121.2L128 124.7L126.5 123.3L129.8 119.6L128.7 118.5L124.1 123.7L131 129.8L135.7 124.6L134.6 123.5L131.1 127.4Z" fill="#9D1D20"/>
<path d="M121.7 125.9L124.4 132.6L118.2 128.8L116.6 130.2L125.2 135.1L126.7 133.8L123.2 124.6L121.7 125.9Z" fill="#9D1D20"/>
<path d="M115.652 130.722L114.078 131.786L119.286 139.491L120.86 138.427L115.652 130.722Z" fill="#9D1D20"/>
<path d="M110.6 133.9L113.5 139.4L107.2 135.7L105.6 136.5L109.9 144.7L111.5 143.9L108.7 138.6L114.8 142.2L116.5 141.3L112.2 133.1L110.6 133.9Z" fill="#9D1D20"/>
<path d="M103.5 137.4L101.7 138L103.3 142.9C103.5 143.6 103.7 144.1 103.7 144.4C103.7 144.7 103.7 145 103.5 145.3C103.3 145.6 103 145.8 102.5 146C102 146.2 101.6 146.2 101.2 146.1C100.8 146 100.6 145.8 100.4 145.4C100.3 145.2 100.1 144.7 99.7999 144L98.1999 139.2L96.3999 139.8L97.9999 144.5C98.2999 145.5 98.5999 146.2 98.8999 146.7C99.0999 147 99.3999 147.3 99.6999 147.5C100.1 147.7 100.5 147.9 101 147.9C101.5 147.9 102.2 147.8 103 147.5C103.7 147.3 104.2 147 104.6 146.7C105 146.4 105.2 146 105.4 145.6C105.6 145.2 105.6 144.8 105.6 144.3C105.5 143.8 105.3 143.1 105 142L103.5 137.4Z" fill="#9D1D20"/>
<path d="M88.6 141.3L88.9 144.9L85.3 145.3L84.9 141.7L83 141.8L84 151.1L85.8 150.9L85.4 146.9L89.1 146.5L89.5 150.5L91.4 150.3L90.4 141.1L88.6 141.3Z" fill="#9D1D20"/>
<path d="M75.4998 143.8C75.9998 143.3 76.4998 143.1 77.1998 143.1C77.6998 143.1 78.0998 143.3 78.3998 143.6C78.6998 143.9 78.8998 144.3 78.9998 144.8L80.8998 144.5C80.6998 143.8 80.3998 143.2 79.9998 142.7C79.2998 142 78.3998 141.6 77.2998 141.5C75.9998 141.4 74.8998 141.8 74.0998 142.6C73.1998 143.4 72.7998 144.6 72.6998 146.1C72.5998 147.6 72.9998 148.7 73.6998 149.6C74.4998 150.5 75.3998 151 76.6998 151C77.6998 151.1 78.4998 150.9 79.1998 150.4C79.8998 149.9 80.3998 149.2 80.6998 148.2L78.8998 147.5C78.6998 148.2 78.3998 148.7 77.9998 149C77.5998 149.3 77.1998 149.4 76.6998 149.4C75.9998 149.4 75.4998 149.1 75.0998 148.6C74.6998 148.1 74.4998 147.2 74.5998 146.1C74.7998 145.1 74.9998 144.3 75.4998 143.8Z" fill="#9D1D20"/>
<path d="M62.6001 148.9L69.6001 150.3L69.9001 148.8L64.8001 147.8L65.3001 145.3L69.9001 146.2L70.2001 144.7L65.6001 143.7L66.0001 141.7L71.0001 142.7L71.3001 141.2L64.5001 139.8L62.6001 148.9Z" fill="#9D1D20"/>
<path d="M56.1 136.9L55.6 138.4L58.2 139.3L55.5 146.6L57.3 147.2L59.9 140L62.5 140.9L63.1 139.4L56.1 136.9Z" fill="#9D1D20"/>
<path d="M50.8001 144.6L49.1001 143.8L53.1001 135.4L54.8001 136.2L50.8001 144.6Z" fill="#9D1D20"/>
<path d="M39 137.9L40.7 138.9L42.5 137.5L45.6 139.5L45.2 141.7L46.9 142.8L48.7 132.9L47 131.8L39 137.9ZM46 137.9L43.8 136.6L46.7 134.3L46 137.9Z" fill="#9D1D20"/>
<path d="M41.5998 128L39.1998 130.7L36.3998 128.3L38.7998 125.6L37.3998 124.3L31.2998 131.4L32.6998 132.6L35.2998 129.5L38.0998 131.9L35.4998 135L36.8998 136.2L42.9998 129.2L41.5998 128Z" fill="#9D1D20"/>
<path d="M30.0002 122.5L28.8002 123.5L30.2002 125.2L29.3002 126C29.0002 125.9 28.6002 125.8 28.2002 125.6C27.8002 125.4 27.5002 125.1 27.3002 124.8C26.8002 124.2 26.6002 123.5 26.7002 122.8C26.8002 122.1 27.3002 121.4 28.1002 120.6C28.9002 119.9 29.6002 119.6 30.3002 119.7C31.0002 119.7 31.6002 120.1 32.2002 120.7C32.5002 121.1 32.7002 121.6 32.8002 122C32.8002 122.4 32.7002 122.9 32.4002 123.3L33.9002 124.5C34.4002 123.8 34.7002 123.1 34.6002 122.2C34.6002 121.4 34.2002 120.5 33.4002 119.7C32.8002 119 32.2002 118.5 31.6002 118.3C30.8002 118 30.0002 117.9 29.1002 118C28.3002 118.2 27.5002 118.6 26.7002 119.2C26.0002 119.8 25.5002 120.4 25.1002 121.2C24.7002 122 24.7002 122.8 24.8002 123.6C24.9002 124.4 25.3002 125.2 26.0002 126C26.5002 126.6 27.1002 127.1 27.8002 127.5C28.5002 127.9 29.1002 128.1 29.7002 128.2L32.6002 125.8L30.0002 122.5Z" fill="#9D1D20"/>
<path d="M28.4 113L23 116.2L26.4 109.7L25.5 108.2L17.5 112.9L18.4 114.4L23.6 111.3L20.3 117.6L21.2 119.2L29.2 114.5L28.4 113Z" fill="#9D1D20"/>
<path d="M22.7998 101.7H12.7998L13.4998 103.5H15.6998L17.0998 107L15.3998 108.5L16.0998 110.4L23.3998 103.5L22.7998 101.7ZM18.3998 105.8L17.4998 103.4L21.1998 103.3L18.3998 105.8Z" fill="#9D1D20"/>
<path d="M20.8 95.2001L17.2 96.0001L16.4 92.4001L20 91.6001L19.6 89.8L10.5 91.8L10.9 93.6001L14.9 92.7001L15.7 96.3L11.7 97.2001L12.1 99.0001L21.2 97.1001L20.8 95.2001Z" fill="#9D1D20"/>
<path d="M11.2002 88.0001C11.7002 88.3001 12.2002 88.4 12.7002 88.3C13.3002 88.3 13.8002 88.1 14.2002 87.8C14.6002 87.5 14.9002 87.2001 15.1002 86.7001C15.3002 86.2001 15.5002 85.6001 15.6002 84.6001C15.8002 83.7001 15.9002 83.1001 16.1002 82.9001C16.2002 82.7001 16.4002 82.6001 16.6002 82.6001C16.8002 82.6001 17.0002 82.7001 17.2002 82.9001C17.4002 83.2001 17.6002 83.6001 17.6002 84.2001C17.6002 84.7001 17.6002 85.1001 17.4002 85.4001C17.2002 85.7001 16.9002 85.9001 16.4002 86.0001L16.6002 87.9001C17.5002 87.8001 18.1002 87.5 18.6002 86.8C19.1002 86.2 19.3002 85.3001 19.2002 84.1001C19.2002 83.4001 19.0002 82.8 18.8002 82.3C18.6002 81.8 18.2002 81.4001 17.8002 81.2001C17.4002 81.0001 16.9002 80.9001 16.4002 80.9001C15.7002 80.9001 15.1002 81.3001 14.6002 81.9001C14.3002 82.3001 14.0002 83.1001 13.8002 84.1001C13.6002 84.9001 13.5002 85.4001 13.5002 85.6001C13.4002 85.9001 13.3002 86.2 13.1002 86.3C12.9002 86.4 12.8002 86.5001 12.6002 86.5001C12.3002 86.5001 11.9002 86.4001 11.7002 86.1001C11.4002 85.8001 11.3002 85.4 11.2002 84.8C11.2002 84.2 11.3002 83.8001 11.5002 83.4001C11.8002 83.1001 12.2002 82.8001 12.8002 82.6001L12.5002 80.8C11.5002 81 10.7002 81.4001 10.2002 82.1001C9.7002 82.8001 9.5002 83.7001 9.6002 84.9001C9.6002 85.7001 9.8002 86.4001 10.1002 86.9001C10.4002 87.3001 10.8002 87.7001 11.2002 88.0001Z" fill="#9D1D20"/>
<path d="M58.9001 89.7H57.6001V98.2H58.9001V89.7Z" fill="#9D1D20"/>
<path d="M61.5998 87.3H60.2998V96.8H61.5998V87.3Z" fill="#9D1D20"/>
<path d="M67.1999 84.1001H65.8999V94.4001H67.1999V84.1001Z" fill="#9D1D20"/>
<path d="M64.4001 85.6001H63.1001V95.5001H64.4001V85.6001Z" fill="#9D1D20"/>
<path d="M70.0002 82.8999H68.7002V93.4999H70.0002V82.8999Z" fill="#9D1D20"/>
<path d="M72.8 82H71.5V92.8H72.8V82Z" fill="#9D1D20"/>
<path d="M56.0998 92.3999H54.7998V100.1H56.0998V92.3999Z" fill="#9D1D20"/>
<path d="M53.3 96.1001H52V102H53.3V96.1001Z" fill="#9D1D20"/>
<path d="M50.5002 100H49.2002V104.3H50.5002V100Z" fill="#9D1D20"/>
<path d="M47.6999 103.1H46.3999V106.1H47.6999V103.1Z" fill="#9D1D20"/>
<path d="M44.9001 105.4H43.6001V107.6H44.9001V105.4Z" fill="#9D1D20"/>
<path d="M42.1999 107.4H40.8999V109H42.1999V107.4Z" fill="#9D1D20"/>
<path d="M103.4 89.7H102.1V98.2H103.4V89.7Z" fill="#9D1D20"/>
<path d="M100.6 87.3H99.2998V96.8H100.6V87.3Z" fill="#9D1D20"/>
<path d="M95.0002 84.1001H93.7002V94.4001H95.0002V84.1001Z" fill="#9D1D20"/>
<path d="M97.8 85.6001H96.5V95.5001H97.8V85.6001Z" fill="#9D1D20"/>
<path d="M92.1999 82.8999H90.8999V93.4999H92.1999V82.8999Z" fill="#9D1D20"/>
<path d="M89.4001 82H88.1001V92.8H89.4001V82Z" fill="#9D1D20"/>
<path d="M106.1 92.3999H104.8V100.1H106.1V92.3999Z" fill="#9D1D20"/>
<path d="M108.9 96.1001H107.6V102H108.9V96.1001Z" fill="#9D1D20"/>
<path d="M111.7 100H110.4V104.3H111.7V100Z" fill="#9D1D20"/>
<path d="M114.5 103.1H113.2V106.1H114.5V103.1Z" fill="#9D1D20"/>
<path d="M117.3 105.4H116V107.6H117.3V105.4Z" fill="#9D1D20"/>
<path d="M120 107.4H118.7V109H120V107.4Z" fill="#9D1D20"/>
<path d="M71.8 124.1C72.3 123.7 72.6 123.4 72.7 123.2C73 122.9 73.1 122.6 73.3 122.2C73.4 121.9 73.5 121.6 73.5 121.3C73.5 120.7 73.3 120.2 72.9 119.8C72.5 119.4 71.9 119.2 71.2 119.2C70.5 119.2 70 119.4 69.5 119.7C69.1 120 68.8 120.6 68.7 121.4L70.1 121.5C70.1 121.1 70.2 120.8 70.4 120.6C70.6 120.4 70.8 120.3 71.1 120.3C71.4 120.3 71.6 120.4 71.8 120.6C72 120.8 72.1 121 72.1 121.3C72.1 121.6 72 121.9 71.8 122.2C71.7 122.4 71.3 122.8 70.6 123.4C69.8 124.1 69.3 124.7 69 125.2C68.7 125.6 68.6 126.1 68.5 126.6H73.5V125.3H70.7C70.8 125.2 70.9 125 71 124.9C71.1 124.8 71.4 124.5 71.8 124.1Z" fill="#9D1D20"/>
<path d="M77.9 119.2C77.2 119.2 76.6 119.4 76.2 120C75.7 120.6 75.5 121.6 75.5 123C75.5 124.4 75.7 125.4 76.2 126C76.6 126.6 77.2 126.8 77.9 126.8C78.6 126.8 79.2 126.5 79.6 126C80.1 125.4 80.3 124.4 80.3 123C80.3 121.6 80.1 120.6 79.6 120C79.2 119.5 78.6 119.2 77.9 119.2ZM78.7 124.8C78.6 125.1 78.5 125.3 78.4 125.4C78.3 125.5 78.1 125.6 77.9 125.6C77.7 125.6 77.6 125.6 77.4 125.4C77.3 125.3 77.2 125.1 77.1 124.7C77 124.4 77 123.8 77 122.9C77 122 77 121.4 77.1 121.1C77.2 120.8 77.3 120.6 77.4 120.5C77.5 120.4 77.7 120.3 77.9 120.3C78.1 120.3 78.2 120.3 78.4 120.5C78.5 120.6 78.6 120.8 78.7 121.1C78.8 121.4 78.8 122 78.8 122.9C78.8 123.9 78.8 124.5 78.7 124.8Z" fill="#9D1D20"/>
<path d="M83.3001 120.4C82.9001 120.7 82.5001 121 82.1001 121.1V122.4C82.8001 122.2 83.4001 121.8 83.9001 121.3V126.6H85.3001V119.2H84.1001C84.0001 119.7 83.7001 120.1 83.3001 120.4Z" fill="#9D1D20"/>
<path d="M90.9999 122.7C91.6999 122.3 92.0999 121.8 92.0999 121.1C92.0999 120.6 91.8999 120.2 91.5999 119.9C91.1999 119.5 90.5999 119.2 89.8999 119.2C89.4999 119.2 89.0999 119.3 88.7999 119.4C88.4999 119.6 88.1999 119.8 87.9999 120C87.7999 120.3 87.6999 120.6 87.5999 121.1L88.8999 121.3C88.8999 121 88.9999 120.7 89.1999 120.6C89.3999 120.4 89.5999 120.4 89.7999 120.4C89.9999 120.4 90.1999 120.5 90.3999 120.6C90.4999 120.8 90.5999 120.9 90.5999 121.2C90.5999 121.5 90.4999 121.7 90.2999 121.9C90.0999 122.1 89.7999 122.2 89.3999 122.2L89.1999 123.4C89.3999 123.3 89.6999 123.3 89.7999 123.3C90.0999 123.3 90.2999 123.4 90.4999 123.6C90.6999 123.8 90.7999 124.1 90.7999 124.5C90.7999 124.9 90.6999 125.2 90.4999 125.4C90.2999 125.6 90.0999 125.7 89.7999 125.7C89.4999 125.7 89.2999 125.6 89.0999 125.4C88.8999 125.2 88.7999 124.9 88.7999 124.6L87.3999 124.8C87.4999 125.4 87.6999 125.9 88.1999 126.3C88.5999 126.7 89.1999 126.9 89.8999 126.9C90.5999 126.9 91.1999 126.7 91.6999 126.2C92.1999 125.7 92.3999 125.2 92.3999 124.5C92.3999 124.1 92.2999 123.7 91.9999 123.4C91.6999 123 91.3999 122.8 90.9999 122.7Z" fill="#9D1D20"/>
<path d="M92.3001 114.6H90.6001V113.9H88.9001V113.2H85.2001L86.6001 105.5C86.6001 105.4 86.6001 105.4 86.6001 105.3C86.6001 105.2 86.6001 105.2 86.5001 105.1L84.8001 97.3998C84.8001 97.3998 84.8001 97.3998 84.8001 97.2998L85.7001 92.1998H86.7001V81.3998H85.4001V85.5998L84.6001 81.6998C84.6001 81.6998 84.6001 81.6998 84.6001 81.5998C84.6001 81.5998 84.6001 81.5998 84.6001 81.4998L85.8001 73.6998V73.5998V73.4998C85.8001 73.4998 85.8001 73.4998 85.8001 73.3998L84.3001 65.5998L85.3001 57.8998C85.3001 57.7998 85.3001 57.7998 85.3001 57.6998C85.3001 57.5998 85.3001 57.5998 85.3001 57.4998L84.0001 49.7998L85.0001 41.8998V41.4998H81.3001L81.0001 33.7998H80.3001L80.0001 41.4998H76.0001L77.0001 49.7998L75.6001 57.6998V57.7998L76.6001 65.5998L75.1001 73.4998V73.5998L76.3001 81.4998L75.5001 85.4998V81.3998H74.2001V92.1998H75.1001L76.0001 97.3998L74.2001 105.2V105.3V105.4L75.6001 113.2H72.0001V113.9H70.3001V114.6H68.6001V115.4H92.4001V114.6H92.3001ZM80.4001 90.3998L83.8001 97.0998H77.1001L80.4001 90.3998ZM80.4001 74.4998L83.5001 81.0998H77.3001L80.4001 74.4998ZM83.0001 49.3998H78.0001L80.5001 42.8998L83.0001 49.3998ZM80.4001 58.6998L83.2001 65.1998H77.6001L80.4001 58.6998ZM80.4001 106.2L84.2001 113.2H76.6001L80.4001 106.2ZM81.1001 105L82.2001 102.8L84.3001 98.5998L85.7001 105H81.1001ZM81.1001 89.0998L84.0001 82.7998L85.3001 89.0998H81.1001ZM81.0001 73.1998L81.6001 71.6998L83.7001 66.8998L84.9001 73.0998H81.0001V73.1998ZM81.0001 57.3998L83.4001 51.2998L84.5001 57.3998H81.0001ZM77.5001 51.1998L79.1001 55.2998L79.9001 57.2998H76.5001L77.5001 51.1998ZM77.2001 66.9998L78.0001 68.8998L79.9001 73.1998H76.0001L77.2001 66.9998ZM76.9001 82.7998L79.8001 89.0998H75.5001L76.9001 82.7998ZM76.6001 98.5998L79.8001 105H75.2001L76.6001 98.5998Z" fill="#9D1D20"/>
<path d="M99.7998 132.3C100.5 132.3 101.2 132.2 101.8 131.9C103.6 131.2 104.7 129.4 105.7 127.5C106.4 127.6 107.1 127.6 107.8 127.6C109.4 127.6 110.6 127.3 111.5 126.7C113.1 125.6 113.8 123.7 114.5 121.7C116.6 121.5 118.7 121.1 120 119.8C121.3 118.5 121.7 116.4 121.9 114.3C123.9 113.7 125.9 112.9 126.9 111.4C127.9 109.9 127.9 107.7 127.7 105.7C129.5 104.7 131.3 103.6 132.1 101.8C132.8 100.1 132.3 97.9999 131.7 95.9999C133.3 94.6999 134.8 93.1999 135.2 91.3999C135.6 89.5999 134.7 87.6999 133.7 85.7999C135 84.1999 136.2 82.3999 136.2 80.4999C136.2 78.5999 135 76.8999 133.7 75.2999C134.7 73.4999 135.5 71.5999 135.1 69.6999C134.7 67.7999 133.2 66.3999 131.6 64.9999C132.2 62.9999 132.7 60.8999 131.9 59.1999C131.2 57.3999 129.4 56.2999 127.5 55.2999C127.7 53.1999 127.8 51.0999 126.7 49.5999C125.6 47.9999 123.7 47.2999 121.7 46.6999C121.5 44.5999 121.1 42.4999 119.8 41.1999C118.5 39.8999 116.4 39.4999 114.3 39.2999C113.7 37.2999 112.9 35.2999 111.4 34.2999C110.5 33.6999 109.3 33.3999 107.7 33.3999C107 33.3999 106.3 33.3999 105.7 33.4999C104.7 31.6999 103.6 29.8999 101.8 29.0999C101.2 28.8999 100.6 28.6999 99.7998 28.6999C98.5998 28.6999 97.2998 28.9999 95.9998 29.3999C94.5998 27.7999 93.1998 26.2999 91.2998 25.8999C90.9998 25.7999 90.6998 25.7999 90.3998 25.7999C88.7998 25.7999 87.2998 26.4999 85.6998 27.3999C84.0998 26.0999 82.3998 24.8999 80.3998 24.8999C78.4998 24.8999 76.7998 26.0999 75.1998 27.3999C73.6998 26.5999 72.0998 25.8999 70.4998 25.8999C70.1998 25.8999 69.8998 25.8999 69.5998 25.9999C67.6998 26.3999 66.2998 27.8999 64.8998 29.4999C63.5998 29.0999 62.2998 28.7999 61.0998 28.7999C60.3998 28.7999 59.6998 28.8999 59.0998 29.1999C57.2998 29.8999 56.1998 31.6999 55.1998 33.5999C54.4998 33.4999 53.7998 33.4999 53.0998 33.4999C51.4998 33.4999 50.2998 33.7999 49.3998 34.3999C47.7998 35.4999 47.0998 37.3999 46.4998 39.3999C44.3998 39.5999 42.2998 39.9999 40.9998 41.2999C39.6998 42.5999 39.2998 44.6999 39.0998 46.7999C37.0998 47.3999 35.0998 48.1999 34.0998 49.6999C33.0998 51.2999 33.0998 53.3999 33.2998 55.3999C31.4998 56.3999 29.6998 57.4999 28.8998 59.2999C28.1998 60.9999 28.6998 63.0999 29.2998 65.0999C27.6998 66.4999 26.1998 67.8999 25.7998 69.6999C25.3998 71.4999 26.2998 73.3999 27.2998 75.2999C25.9998 76.8999 24.7998 78.5999 24.7998 80.5999C24.7998 82.5999 25.9998 84.1999 27.2998 85.8999C26.2998 87.6999 25.4998 89.5999 25.8998 91.4999C26.2998 93.3999 27.7998 94.7999 29.3998 96.1999C28.7998 98.1999 28.2998 100.3 28.9998 102C29.6998 103.8 31.4998 104.9 33.3998 105.9C33.1998 108 33.0998 110.1 34.1998 111.6C35.2998 113.2 37.1998 113.9 39.1998 114.6C39.3998 116.7 39.7998 118.7 41.0998 120.1C42.3998 121.4 44.4998 121.8 46.5998 122C47.1998 124 47.9998 126 49.4998 127C50.3998 127.6 51.5998 127.9 53.1998 127.9C53.8998 127.9 54.5998 127.9 55.1998 127.8C56.1998 129.6 57.2998 131.4 59.0998 132.2C59.6998 132.5 60.2998 132.6 61.0998 132.6C62.2998 132.6 63.5998 132.3 64.8998 131.9C66.2998 133.5 67.6998 135 69.5998 135.4C69.8998 135.5 70.1998 135.5 70.4998 135.5C72.0998 135.5 73.6998 134.8 75.1998 133.9C76.7998 135.2 78.4998 136.4 80.4998 136.4C82.3998 136.4 84.0998 135.2 85.6998 133.9C87.1998 134.7 88.7998 135.4 90.3998 135.4C90.6998 135.4 90.9998 135.4 91.2998 135.3C93.1998 134.9 94.5998 133.4 95.9998 131.8C97.2998 132 98.5998 132.3 99.7998 132.3ZM91.2998 129.3C90.8998 129.3 90.4998 129.3 90.1998 129.4C88.4998 129.7 86.9998 130.9 85.4998 132.1C83.7998 131.2 82.0998 130.3 80.3998 130.3C78.6998 130.3 76.9998 131.2 75.2998 132C73.7998 130.8 72.2998 129.6 70.6998 129.3C70.3998 129.2 69.9998 129.2 69.5998 129.2C68.2998 129.2 66.7998 129.6 65.3998 130C64.1998 128.6 62.8998 127.1 61.3998 126.5C60.5998 126.2 59.6998 126 58.4998 126C57.6998 126 56.8998 126.1 55.9998 126.1C55.0998 124.4 54.1998 122.8 52.7998 121.8C51.3998 120.9 49.4998 120.6 47.5998 120.4C46.9998 118.6 46.3998 116.8 45.1998 115.6C43.9998 114.4 42.1998 113.8 40.3998 113.2C40.1998 111.3 39.9998 109.4 38.9998 108C38.0998 106.6 36.3998 105.7 34.7998 104.8C34.9998 102.9 35.0998 101 34.4998 99.3999C33.8998 97.8999 32.3998 96.5999 30.8998 95.3999C31.3998 93.5999 31.8998 91.6999 31.5998 90.0999C31.2998 88.3999 30.0998 86.8999 28.8998 85.4999C29.7998 83.7999 30.6998 82.0999 30.6998 80.3999C30.6998 78.6999 29.7998 76.9999 28.9998 75.2999C30.1998 73.7999 31.3998 72.2999 31.6998 70.6999C31.9998 68.9999 31.4998 67.1999 30.9998 65.3999C32.3998 64.1999 33.8998 62.8999 34.5998 61.3999C35.1998 59.7999 35.0998 57.8999 34.8998 55.9999C36.5998 55.0999 38.1998 54.1999 39.1998 52.7999C40.0998 51.3999 40.3998 49.4999 40.5998 47.5999C42.3998 46.9999 44.1998 46.3999 45.3998 45.1999C46.5998 43.9999 47.1998 42.1999 47.7998 40.3999C49.6998 40.1999 51.5998 39.9999 52.9998 38.9999C54.3998 38.0999 55.2998 36.3999 56.1998 34.6999C56.9998 34.7999 57.7998 34.7999 58.5998 34.7999C59.7998 34.7999 60.6998 34.5999 61.5998 34.2999C63.0998 33.6999 64.3998 32.1999 65.5998 30.6999C66.9998 31.0999 68.4998 31.4999 69.7998 31.4999C70.1998 31.4999 70.5998 31.4999 70.8998 31.3999C72.5998 31.0999 74.0998 29.8999 75.4998 28.6999C77.1998 29.5999 78.8998 30.4999 80.5998 30.4999C82.2998 30.4999 83.9998 29.5999 85.6998 28.7999C87.1998 29.9999 88.6998 31.1999 90.2998 31.4999C90.5998 31.5999 90.9998 31.5999 91.3998 31.5999C92.6998 31.5999 94.1998 31.1999 95.5998 30.7999C96.7998 32.1999 98.0998 33.6999 99.5998 34.3999C100.4 34.6999 101.3 34.8999 102.5 34.8999C103.3 34.8999 104.1 34.7999 105 34.7999C105.9 36.4999 106.8 38.0999 108.2 39.0999C109.6 39.9999 111.5 40.2999 113.4 40.4999C114 42.2999 114.6 44.0999 115.8 45.2999C117 46.4999 118.8 47.0999 120.6 47.5999C120.8 49.4999 121 51.3999 122 52.7999C122.9 54.1999 124.6 55.0999 126.2 55.9999C126 57.8999 125.9 59.7999 126.5 61.3999C127.1 62.8999 128.6 64.1999 130.1 65.3999C129.6 67.1999 129.1 69.0999 129.4 70.6999C129.7 72.3999 130.9 73.8999 132.1 75.3999C131.2 77.0999 130.3 78.7999 130.3 80.4999C130.3 82.1999 131.2 83.8999 132 85.5999C130.8 87.0999 129.6 88.5999 129.3 90.1999C129 91.8999 129.5 93.6999 130 95.4999C128.5 96.6999 127.1 97.9999 126.4 99.4999C125.7 101.1 125.9 103 126.1 104.9C124.4 105.8 122.8 106.7 121.8 108.1C120.9 109.5 120.6 111.4 120.4 113.3C118.6 113.9 116.8 114.5 115.6 115.7C114.4 116.9 113.8 118.7 113.2 120.5C111.3 120.7 109.4 120.9 108 121.9C106.6 122.8 105.7 124.5 104.8 126.2C104 126.1 103.2 126.1 102.4 126.1C101.2 126.1 100.3 126.3 99.3998 126.6C97.8998 127.2 96.5998 128.7 95.3998 130.2C94.0998 129.7 92.6998 129.3 91.2998 129.3ZM101.3 130.7C100.9 130.9 100.4 131 99.7998 131C98.8998 131 97.8998 130.8 96.8998 130.5C97.8998 129.3 98.8998 128.2 99.9998 127.7C100.6 127.4 101.4 127.3 102.5 127.3C103.1 127.3 103.7 127.3 104.2 127.4C103.4 128.9 102.5 130.2 101.3 130.7ZM110.7 125.7C110 126.2 109.1 126.4 107.8 126.4C107.4 126.4 106.9 126.4 106.4 126.3C107.1 125 107.9 123.7 109 123C110 122.3 111.5 122.1 113 121.9C112.4 123.5 111.8 125 110.7 125.7ZM118.9 119C118 119.9 116.4 120.2 114.8 120.5C115.3 119 115.8 117.6 116.7 116.8C117.6 115.9 119 115.4 120.5 114.9C120.2 116.5 119.8 118 118.9 119ZM125.7 110.7C125 111.8 123.5 112.4 121.9 112.9C122.1 111.4 122.3 109.9 123 108.9C123.7 107.9 124.9 107.1 126.3 106.4C126.4 108.1 126.4 109.6 125.7 110.7ZM130.7 101.3C130.2 102.5 128.9 103.4 127.4 104.3C127.3 102.8 127.2 101.2 127.7 100.1C128.2 98.9999 129.3 97.8999 130.5 96.8999C130.9 98.5999 131.2 100.1 130.7 101.3ZM133.8 91.0999C133.5 92.3999 132.5 93.4999 131.2 94.5999C130.8 93.0999 130.4 91.5999 130.7 90.3999C130.9 89.1999 131.8 87.9999 132.8 86.7999C133.5 88.3999 134 89.7999 133.8 91.0999ZM132.9 84.4999C132.2 83.0999 131.6 81.6999 131.6 80.4999C131.6 79.2999 132.2 77.8999 133 76.4999C134 77.7999 134.9 79.1999 134.9 80.4999C134.8 81.7999 134 83.1999 132.9 84.4999ZM133.8 69.8999C134.1 71.1999 133.5 72.6999 132.8 74.0999C131.8 72.8999 130.9 71.6999 130.7 70.4999C130.5 69.2999 130.8 67.7999 131.2 66.2999C132.4 67.3999 133.5 68.5999 133.8 69.8999ZM130.7 59.6999C131.2 60.8999 130.9 62.3999 130.5 64.0999C129.3 63.0999 128.2 62.0999 127.7 60.9999C127.2 59.7999 127.3 58.2999 127.4 56.7999C128.9 57.5999 130.2 58.3999 130.7 59.6999ZM125.7 50.2999C126.4 51.3999 126.4 52.8999 126.3 54.5999C125 53.8999 123.7 53.0999 123 52.0999C122.3 51.0999 122.1 49.5999 121.9 48.0999C123.5 48.5999 124.9 49.1999 125.7 50.2999ZM120.4 46.1999C118.9 45.6999 117.5 45.1999 116.7 44.2999C115.8 43.3999 115.3 41.9999 114.8 40.4999C116.5 40.6999 118 40.9999 119 41.9999C119.8 42.9999 120.2 44.4999 120.4 46.1999ZM110.6 35.2999C111.7 35.9999 112.3 37.4999 112.8 39.0999C111.3 38.8999 109.8 38.6999 108.8 37.9999C107.8 37.2999 107 35.9999 106.3 34.6999C106.8 34.6999 107.2 34.5999 107.6 34.5999C109 34.5999 109.9 34.7999 110.6 35.2999ZM101.3 30.1999C102.5 30.6999 103.4 31.9999 104.3 33.4999C103.7 33.5999 103.1 33.5999 102.5 33.5999C101.5 33.5999 100.7 33.4999 100.1 33.1999C98.9998 32.6999 97.8998 31.5999 96.9998 30.3999C97.9998 30.0999 98.9998 29.8999 99.8998 29.8999C100.4 29.9999 100.8 30.0999 101.3 30.1999ZM91.0998 27.1999C92.3998 27.4999 93.4998 28.5999 94.5998 29.7999C93.0998 30.1999 91.5998 30.4999 90.3998 30.2999C89.1998 30.0999 87.9998 29.1999 86.7998 28.1999C88.3998 27.4999 89.7998 26.8999 91.0998 27.1999ZM84.4998 27.9999C83.0998 28.6999 81.6998 29.2999 80.4998 29.2999C79.2998 29.2999 77.8998 28.6999 76.4998 27.8999C77.7998 26.8999 79.0998 25.9999 80.4998 25.9999C81.7998 26.0999 83.0998 26.9999 84.4998 27.9999ZM69.7998 27.1999C71.0998 26.9999 72.5998 27.4999 73.9998 28.2999C72.7998 29.2999 71.5998 30.1999 70.3998 30.3999C69.2998 30.5999 67.6998 30.2999 66.1998 29.8999C67.3998 28.4999 68.4998 27.3999 69.7998 27.1999ZM59.5998 30.1999C59.9998 29.9999 60.4998 29.8999 61.0998 29.8999C61.9998 29.8999 62.9998 30.0999 63.9998 30.3999C62.9998 31.5999 61.9998 32.6999 60.8998 33.1999C60.2998 33.4999 59.4998 33.5999 58.3998 33.5999C57.7998 33.5999 57.2998 33.5999 56.6998 33.4999C57.4998 31.9999 58.3998 30.7999 59.5998 30.1999ZM50.1998 35.2999C50.8998 34.7999 51.7998 34.5999 53.0998 34.5999C53.5998 34.5999 53.9998 34.5999 54.4998 34.6999C53.7998 35.9999 52.9998 37.2999 51.9998 37.9999C50.9998 38.6999 49.4998 38.8999 47.9998 39.0999C48.4998 37.3999 49.0998 35.9999 50.1998 35.2999ZM41.9998 41.9999C42.8998 41.0999 44.3998 40.7999 46.0998 40.4999C45.5998 41.9999 45.0998 43.3999 44.1998 44.2999C43.2998 45.1999 41.8998 45.6999 40.4998 46.1999C40.6998 44.4999 41.0998 42.9999 41.9998 41.9999ZM35.1998 50.2999C35.8998 49.1999 37.3998 48.5999 38.9998 48.0999C38.7998 49.5999 38.5998 51.0999 37.8998 52.0999C37.1998 53.0999 35.8998 53.8999 34.5998 54.5999C34.4998 52.8999 34.4998 51.3999 35.1998 50.2999ZM30.1998 59.6999C30.6998 58.4999 31.9998 57.5999 33.4998 56.6999C33.5998 58.1999 33.6998 59.7999 33.1998 60.8999C32.6998 61.9999 31.5998 62.9999 30.3998 63.9999C29.9998 62.3999 29.6998 60.8999 30.1998 59.6999ZM27.0998 69.8999C27.3998 68.5999 28.4998 67.4999 29.6998 66.3999C30.0998 67.8999 30.4998 69.3999 30.1998 70.5999C29.9998 71.7999 29.0998 72.9999 28.0998 74.1999C27.3998 72.5999 26.8998 71.1999 27.0998 69.8999ZM27.9998 76.4999C28.6998 77.8999 29.2998 79.2999 29.2998 80.4999C29.2998 81.6999 28.6998 83.0999 27.8998 84.4999C26.8998 83.1999 25.9998 81.8999 25.9998 80.4999C26.0998 79.1999 26.8998 77.7999 27.9998 76.4999ZM27.0998 91.0999C26.7998 89.7999 27.3998 88.2999 28.0998 86.7999C29.0998 87.9999 29.9998 89.1999 30.1998 90.3999C30.3998 91.5999 30.0998 93.0999 29.6998 94.5999C28.4998 93.5999 27.3998 92.3999 27.0998 91.0999ZM30.1998 101.3C29.6998 100.1 29.9998 98.5999 30.3998 96.8999C31.5998 97.8999 32.6998 98.8999 33.1998 99.9999C33.6998 101.1 33.5998 102.7 33.4998 104.2C31.9998 103.4 30.6998 102.5 30.1998 101.3ZM35.1998 110.7C34.4998 109.6 34.4998 108.1 34.5998 106.4C35.8998 107.1 37.1998 107.9 37.8998 108.9C38.5998 109.9 38.7998 111.4 38.9998 112.9C37.3998 112.4 35.9998 111.8 35.1998 110.7ZM40.4998 114.8C41.9998 115.3 43.3998 115.8 44.1998 116.7C45.0998 117.6 45.5998 119 46.0998 120.5C44.3998 120.3 42.8998 120 41.8998 119C41.0998 118 40.6998 116.5 40.4998 114.8ZM50.1998 125.7C49.0998 125 48.4998 123.5 47.8998 121.9C49.3998 122.1 50.8998 122.3 51.8998 123C52.8998 123.7 53.6998 125 54.4998 126.3C53.9998 126.3 53.5998 126.4 53.0998 126.4C51.8998 126.4 50.8998 126.2 50.1998 125.7ZM59.5998 130.7C58.3998 130.2 57.4998 128.9 56.5998 127.4C57.1998 127.4 57.7998 127.3 58.3998 127.3C59.3998 127.3 60.1998 127.4 60.7998 127.7C61.8998 128.2 62.8998 129.3 63.8998 130.5C62.8998 130.8 61.8998 131 60.9998 131C60.4998 131 59.9998 130.9 59.5998 130.7ZM69.7998 133.8C68.4998 133.5 67.3998 132.5 66.2998 131.2C67.7998 130.8 69.2998 130.5 70.4998 130.7C71.6998 130.9 72.8998 131.8 74.0998 132.8C72.4998 133.5 71.0998 134.1 69.7998 133.8ZM76.3998 133C77.7998 132.3 79.1998 131.7 80.3998 131.7C81.5998 131.7 82.9998 132.3 84.3998 133.1C83.0998 134.1 81.7998 135 80.3998 135C79.0998 134.9 77.7998 134 76.3998 133ZM91.0998 133.8C89.8998 134 88.2998 133.5 86.8998 132.8C88.0998 131.8 89.2998 130.9 90.4998 130.7C91.5998 130.5 93.1998 130.8 94.6998 131.2C93.4998 132.5 92.3998 133.6 91.0998 133.8Z" fill="#9D1D20"/>
<path d="M52.6998 57.2001H48.1998L48.7998 56.8001L47.6998 55.1001L46.8998 55.6001L47.7998 57.2001H43.7998V58.1001H52.6998V57.2001Z" fill="#9D1D20"/>
<path d="M53.3001 63.9999H49.8001L51.5001 59.3999H50.5001L48.7001 63.9999H47.3001L47.2001 63.8999L47.7001 63.6999L45.9001 59.3999H44.8001L46.7001 63.9999H43.1001V64.8999H53.3001V63.9999Z" fill="#9D1D20"/>
<path d="M42.7998 76.5001L43.5998 77.0001L45.0998 74.5001L44.1998 74.1001L42.7998 76.5001Z" fill="#9D1D20"/>
<path d="M48.8 75.7L49.6 75.2L48.3 73L47.5 73.5L48.8 75.7Z" fill="#9D1D20"/>
<path d="M50.7998 74.2999L52.7998 76.7999L53.5998 76.2L51.4998 73.7L50.7998 74.2999Z" fill="#9D1D20"/>
<path d="M52.3001 71.8001H48.7001V70.3001H53.1001V69.3001H48.7001V67.6001H47.7001V69.3001H43.1001V70.3001H47.7001V71.8001H44.2001V72.8001H52.3001V71.8001Z" fill="#9D1D20"/>
<path d="M49.8002 76.8999H47.0002C46.8002 76.8999 46.7002 76.7999 46.7002 76.5999V74.2H45.7002V77.0999C45.7002 77.2999 45.7002 77.7999 46.4002 77.7999H50.4002C51.0002 77.6999 51.5002 76.6999 51.6002 76.4999L50.5002 75.9999C50.5002 76.3999 50.2002 76.7999 49.8002 76.8999Z" fill="#9D1D20"/>
<path d="M66.4 76.7001V71.0001H69.5V70.1001H66.4V67.6001H65.4V70.1001H60V71.0001H65V71.1001C63.8 72.9001 62.1 74.4001 60 75.5001V76.7001C60.6 76.4001 63.2 75.1001 65.3 72.4001L65.4 72.3001V76.0001C65.3 76.4001 64.9 76.6001 64.5 76.7001H64.4L65 77.9001C65.3 77.8001 66.4 77.3001 66.4 76.7001Z" fill="#9D1D20"/>
<path d="M100.4 78.4002H101.3V68.2002H92V78.4002H92.9V77.8002H100.4V78.4002ZM92.9 69.1002H100.4V76.8002H92.9V69.1002Z" fill="#9D1D20"/>
<path d="M97.8001 74.1001L98.6001 74.9001H97.1001V73.2001H99.3001V72.3001H97.1001V71.0001H99.5001V70.1001H93.8001V71.0001H96.2001V72.3001H94.1001V73.2001H96.2001V74.9001H93.6001V75.8001H99.7001V74.9001L98.5001 73.5001L97.8001 74.1001Z" fill="#9D1D20"/>
<path d="M117.5 56.9999L116 55.3999L115.4 55.9999L116.8 57.6999L117.5 56.9999Z" fill="#9D1D20"/>
<path d="M113.353 55.4506L112.038 57.2144L112.76 57.7523L114.075 55.9885L113.353 55.4506Z" fill="#9D1D20"/>
<path d="M111 57.1998L109.9 55.2998L109.1 55.7998L110.3 57.5998L111 57.1998Z" fill="#9D1D20"/>
<path d="M107.5 61.5001L108.1 62.3001C108.3 62.2001 108.7 61.8001 109.3 61.3001L109.4 61.2001V65.6001H110.3V61.5001L111.3 62.7001L112 62.2001L111 60.9001L111.9 60.0001L111.3 59.3001L110.4 60.1001V60.0001C110.7 59.5001 111 59.0001 111.3 58.5001C111.5 58.1001 111.6 57.8001 111.6 57.6001H107.9V58.5001H110.2V58.6001C109.1 60.3001 107.8 61.3001 107.5 61.5001Z" fill="#9D1D20"/>
<path d="M111.6 61.1999L112.3 61.9999C112.4 61.9999 112.5 61.7999 112.8 61.5999L112.9 61.4999V65.4999H113.8V64.9999H115.9V65.4999H116.8V61.1999L116.9 61.2999C117.1 61.4999 117.4 61.5999 117.6 61.7999L118.2 60.9999C117.6 60.5999 116.2 59.5999 115.3 57.6999C115.3 57.6999 115.4 57.4999 115.4 57.3999H114.3C113.3 59.8999 111.9 60.9999 111.6 61.1999ZM115.8 64.0999H113.7V61.8999H115.8V64.0999ZM113.4 60.8999C113.9 60.3999 114.3 59.6999 114.6 58.9999C115 59.6999 115.6 60.3999 116.2 60.8999L116.3 60.9999L113.4 60.8999Z" fill="#9D1D20"/>
<path d="M93.5001 60.6998L91.7001 61.3998V62.3998L93.5001 61.6998V63.6998V63.7998C93.5001 64.0998 93.2001 64.3998 92.6001 64.5998L93.1001 65.5998C93.3001 65.4998 94.4001 64.9998 94.4001 64.3998V61.2998L95.6001 60.8998V59.8998L94.4001 60.3998V58.6998H95.6001V57.7998H94.4001V55.2998H93.5001V57.7998H91.6001V58.6998H93.5001V60.6998Z" fill="#9D1D20"/>
<path d="M97.0001 60.2998H97.1001C97.1001 60.3998 97.5001 61.6998 98.5001 62.9998C98.1001 63.4998 97.7001 63.7998 97.4001 64.0998H97.3001V65.3998C98.0001 64.9998 98.6001 64.3998 99.2001 63.7998C99.9001 64.4998 100.7 65.0998 101.5 65.4998V64.2998C100.9 63.9998 100.3 63.4998 99.8001 62.9998C100.4 62.1998 100.8 61.1998 101 60.2998V60.1998C101 59.9998 101.1 59.5998 101.2 59.2998H100.6H97.0001V56.6998H99.9001V57.0998V57.1998C99.9001 57.4998 99.6001 57.7998 99.0001 58.0998L99.5001 59.0998C99.7001 58.9998 100.7 58.4998 100.8 57.8998V55.7998H96.1001V65.4998H97.0001V60.2998ZM100.1 60.1998C99.9001 60.8998 99.6001 61.4998 99.2001 62.0998C98.7001 61.2998 98.4001 60.5998 98.3001 60.2998V60.1998H100.1Z" fill="#9D1D20"/>
<path d="M116 76.9C115.8 76.9 115.7 76.8 115.4 76.6H115.3C114.6 76.1 114.1 75.2 113.8 74V73.9H116.6V73H113.6C113.5 72.4 113.5 72 113.4 71.7H116.6V68.5H108.7V77C108.7 77.5 109.8 78.1 110 78.2L110.5 77.2C110.2 77 109.6 76.7 109.6 76.3V74H112.7C113.1 75.6 113.8 76.8 114.8 77.5C115.3 77.8 115.7 78 116.1 78C117.1 78 117.3 76.6 117.3 76.3H116.2C116.3 76.6 116.3 76.9 116 76.9ZM109.7 73V71.6H112.5C112.5 71.9 112.5 72.3 112.6 72.9H109.7V73ZM109.7 69.3H115.8V70.7H109.7V69.3Z" fill="#9D1D20"/>
<path d="M61.4 60.4002H63.2V63.0002V63.1002C63.1 63.4002 62.9 63.5002 62 63.7002L62.1 64.6002C63 64.5002 63.9 64.2002 64.1 63.1002V62.9002V59.6002H61.4V58.0002H65.1C65.2 59.6002 65.5 61.0002 65.9 62.2002C65.4 62.9002 64.8 63.4002 64.2 63.8002V65.1002C64.9 64.6002 65.7 64.0002 66.3 63.2002C66.8 64.0002 67.6 65.2002 68.7 65.2002C68.9 65.2002 69.1 65.2002 69.3 65.1002V64.0002C68.9 64.1002 68 64.3002 67.1 62.2002C67.7 61.3002 68.3 60.3002 68.8 59.3002H67.7C67.4 59.9002 67.1 60.5002 66.8 61.0002C66.5 60.1002 66.4 59.1002 66.3 58.0002H69.3V57.1002L68.2 55.2002H67.1L68.2 57.1002H66C66 56.4002 66 55.8002 66 55.2002H65C65 55.5002 65 56.2002 65 57.1002H60.3V58.0002V60.5002C60.3 61.5002 60.2 63.9002 59 64.9002L60.1 65.5002C60.3 65.3002 61.4 63.7002 61.4 60.4002Z" fill="#9D1D20"/>
<path d="M31.2 44.5L29.7 45.6L29.9 47L27.8 50.8L21.7 47.6L24.5 42.3L23.9 42L22.3 43.2L22.6 44.6L21.1 47.3L15.9 44.5L15 46.2L26.9 52.6L23.9 58.2L24.5 58.5L31.8 44.8L31.2 44.5Z" fill="#9D1D20"/>
<path d="M65.7998 18.5998L65.8998 19.1998L71.0998 18.1998L72.0998 22.7998L73.9998 22.4998L72.9998 17.7998L75.3998 17.2998L75.1998 16.5998L72.8998 17.0998L70.9998 7.7998L69.0998 8.1998L70.9998 17.4998L65.7998 18.5998Z" fill="#9D1D20"/>
<path d="M69.2998 12.4001C69.9998 10.8001 65.9998 10.6001 65.9998 10.6001L65.7998 11.0001C67.5998 12.0001 67.5998 12.5001 68.1998 12.7001C68.6998 12.9001 69.0998 12.7001 69.2998 12.4001Z" fill="#9D1D20"/>
<path d="M69.9001 16.2001C70.7001 14.7001 66.8001 14.1001 66.8001 14.1001L66.6001 14.5001C68.3001 15.7001 68.3001 16.1001 68.8001 16.5001C69.3001 16.7001 69.8001 16.6001 69.9001 16.2001Z" fill="#9D1D20"/>
<path d="M61.4001 12.2998L61.8001 14.3998L59.1001 14.8998L59.2001 15.5998L61.5001 15.0998C61.5001 15.6998 61.2001 19.3998 60.2001 21.7998L60.7001 22.0998C60.7001 22.0998 61.9001 20.2998 62.6001 18.0998L63.9001 24.3998L65.8001 23.9998L64.2001 16.2998C65.3001 17.1998 65.3001 17.4998 65.8001 17.8998C66.2001 18.0998 66.7001 17.9998 66.9001 17.6998C67.6001 16.3998 64.8001 15.7998 64.0001 15.5998L63.8001 14.6998L66.1001 14.1998L66.0001 13.4998L63.7001 13.9998L63.2001 11.4998C64.0001 11.0998 64.7001 10.6998 65.2001 10.1998L63.3001 9.2998C63.3001 9.2998 61.5001 11.1998 58.6001 12.5998L58.7001 13.1998C58.8001 13.1998 60.0001 12.8998 61.4001 12.2998Z" fill="#9D1D20"/>
<path d="M137.9 42.4002C138.1 42.3002 138.4 42.1002 138.6 41.9002L144.3 52.1002L142 52.8002L142.4 53.5002L145.4 54.1002L146 53.8002L145.9 51.8002L144.6 51.2002L143.7 49.6002C144.3 49.8002 145.6 50.1002 147.4 50.3002L146.9 47.9002C146.9 47.9002 144.4 48.6002 143.2 48.5002L140.9 44.4002C141 44.5002 141.1 44.5002 141.2 44.5002C143 44.9002 142.4 40.3002 142.4 40.3002L141.9 40.2002C141.2 42.4002 140.7 42.7002 140.5 43.4002C140.5 43.5002 140.5 43.7002 140.5 43.8002L139.2 41.5002C139.4 41.3002 139.7 40.9002 139.7 40.9002L139.4 40.5002H139.3C137.8 41.0002 137.1 40.5002 136.2 41.0002C135.8 41.2002 135.4 41.8002 135.7 42.3002C136.2 43.0002 137 42.9002 137.9 42.4002Z" fill="#9D1D20"/>
<path d="M143 46.9999C144.7 47.2999 144.3 42.9999 144.3 42.9999L143.9 42.8999C143.2 44.8999 142.7 45.2999 142.5 45.9999C142.4 46.4999 142.6 46.8999 143 46.9999Z" fill="#9D1D20"/>
<path d="M131.2 51.0998C133 53.4998 134.7 52.4998 134.7 52.4998L137.3 51.0998L140.1 56.1998L140.7 55.8998L140.6 53.9998L139.3 53.3998L137.9 50.7998L138.8 50.2998L141.5 51.4998L142.1 51.1998L138.1 43.9998L137.5 44.2998L140.5 49.5998L137.9 48.5998L137 48.9998L133.5 42.7998L132.9 43.0998L136.4 49.2998L133.8 50.6998C133.5 50.8998 133.4 50.6998 133.2 50.2998C133 49.9998 132.2 48.1998 132 47.8998L131.5 48.1998C132.5 50.7998 131.2 51.0998 131.2 51.0998Z" fill="#9D1D20"/>
<path d="M97.6998 15.3L95.1998 14.7L94.9998 15.4L95.2998 15.5C95.2998 17.4 95.6998 19 96.3998 20.4C93.7998 22 91.3998 22.4 91.3998 22.4L91.2998 23C93.4998 23.3 95.5998 22.7 97.2998 21.9C98.8998 24.2 100.8 25.4 100.8 25.4C101.4 24.3 102.2 24.3 102.4 24.3L102.5 23.8C100.9 23.1 99.6998 22.1 98.6998 21.1C101.2 19.5 102.8 17.5 102.9 17.4L103.1 16.7L99.5998 15.8L100.1 13.7L104.5 14.8L104.7 14.1L103.2 12.9L101.9 13.4L100.3 13L101.1 10L99.1998 9.5L98.4998 12.6L95.9998 12L95.7998 12.7L98.2998 13.3L97.6998 15.3ZM97.4998 19.5C96.3998 17.7 96.0998 16 96.0998 15.6L100.3 16.6C99.4998 17.9 98.4998 18.8 97.4998 19.5Z" fill="#9D1D20"/>
<path d="M88.4998 22.3002L88.9998 22.4002L90.8998 22.9002L92.5998 16.0002C93.4998 15.8002 94.0998 15.6002 94.4998 15.4002L94.6998 14.7002C94.0998 14.8002 93.4998 14.9002 92.8998 14.9002L93.5998 12.0002L95.2998 12.4002L95.4998 11.7002L93.7998 11.3002L94.5998 8.2002L92.6998 7.7002L91.9998 10.8002L89.7998 10.3002L89.5998 11.0002L91.7998 11.5002L90.8998 15.0002C89.2998 15.1002 88.0998 15.0002 88.0998 15.0002L88.1998 16.8002C88.9998 16.7002 89.7998 16.5002 90.4998 16.4002L89.5998 20.0002V19.9002C89.4998 20.4002 89.3998 20.6002 88.2998 20.4002C87.7998 20.3002 87.3998 20.1002 87.3998 20.1002L87.2998 20.5002C88.6998 21.1002 88.4998 22.3002 88.4998 22.3002Z" fill="#9D1D20"/>
<path d="M35.4002 25.9C35.5002 24.2 31.7002 25.4 31.7002 25.4V25.7999C33.7002 26.0999 33.9002 26.5 34.6002 26.6C35.0002 26.6 35.4002 26.3 35.4002 25.9Z" fill="#9D1D20"/>
<path d="M32.7002 28.7999V29.1999C34.7002 29.4999 34.9002 29.8999 35.6002 29.9999C36.1002 29.9999 36.4002 29.6999 36.5002 29.2999C36.5002 27.5999 32.7002 28.7999 32.7002 28.7999Z" fill="#9D1D20"/>
<path d="M50.0998 26.2998L49.6998 25.7998L48.5998 26.6998L46.7998 24.3998L47.8998 23.5998L47.4998 23.0998L46.3998 23.9998L44.0998 21.0998L42.9998 21.9998L38.3998 25.5998C38.3998 25.0998 38.3998 24.5998 38.2998 24.0998L44.3998 19.2998L43.9998 18.7998L42.0998 19.1998L41.6998 20.5998L38.1998 23.3998C38.0998 22.7998 37.9998 22.1998 37.7998 21.4998L35.7998 22.3998C35.7998 22.3998 37.4998 25.3998 37.6998 28.5998H38.1998C38.1998 28.5998 38.2998 28.1998 38.2998 27.4998L39.6998 29.2998L38.4998 30.2998L38.8998 30.7998L40.0998 29.7998L41.8998 32.0998L42.2998 32.5998L42.4998 32.8998L43.9998 31.6998L43.7998 31.3998L47.3998 28.5998C47.7998 29.0998 47.8998 29.4998 47.2998 29.9998C46.4998 30.6998 44.9998 31.7998 44.9998 31.7998L45.2998 32.0998C45.2998 32.0998 47.2998 30.7998 47.9998 31.6998C47.9998 31.6998 50.5998 29.5998 48.8998 27.3998L50.0998 26.2998ZM39.3998 25.4998L42.9998 22.6998L44.7998 24.9998L43.9998 25.5998C43.9998 25.5998 43.9998 25.5998 43.9998 25.4998C44.0998 23.7998 40.2998 24.9998 40.2998 24.9998V25.3998C42.3998 25.6998 42.4998 26.0998 43.1998 26.1998H43.2998L41.2998 27.7998L39.3998 25.4998ZM46.2998 28.3998C46.3998 26.6998 42.5998 27.8998 42.5998 27.8998V28.2998C44.5998 28.5998 44.7998 28.9998 45.4998 29.0998C45.4998 29.0998 45.4998 29.0998 45.5998 29.0998L43.5998 30.6998L41.7998 28.3998L45.3998 25.5998L47.1998 27.8998L46.2998 28.3998Z" fill="#9D1D20"/>
<path d="M36.1002 33.2002L36.5002 33.7002C36.5002 33.7002 38.0002 33.0002 40.0002 35.6002C40.7002 36.4002 41.1002 37.0002 41.1002 37.0002L42.1002 36.2002C42.1002 36.2002 39.7002 33.1002 39.0002 32.1002C38.3002 31.1002 36.5002 25.6002 36.2002 24.7002L35.7002 25.1002C36.1002 26.5002 37.4002 30.9002 37.4002 31.9002C37.3002 32.8002 36.1002 33.2002 36.1002 33.2002Z" fill="#9D1D20"/>
<path d="M128.3 30.6002L127.4 28.8002L126 28.7002L123 26.3002C124.7 24.8002 125.8 23.3002 126.1 22.8002L124.3 21.4002C123.3 22.9002 122.3 24.0002 121.4 25.0002L116.6 21.2002L116.2 21.7002L120.9 25.5002C116.6 29.3002 112.5 29.1002 110.6 28.7002L110.1 29.3002C115.1 31.6002 119.5 29.4002 122.4 26.9002C118.6 32.3002 120.7 37.8002 120.7 37.8002C122.1 36.9002 123.1 38.1002 123.1 38.1002L123.4 37.7002C120.6 33.3002 122.7 27.9002 122.9 27.3002L127.8 31.2002L128.3 30.6002Z" fill="#9D1D20"/>
</svg>
