<?xml version="1.0" standalone="no"?><!DOCTYPE svg PUBLIC "-//W3C//DTD SVG 1.1//EN" "http://www.w3.org/Graphics/SVG/1.1/DTD/svg11.dtd"><svg t="1774863051501" class="icon" viewBox="0 0 1024 1024" version="1.1" xmlns="http://www.w3.org/2000/svg" p-id="3974" xmlns:xlink="http://www.w3.org/1999/xlink" width="256" height="256"><path d="M754.096997 298.913863v-22.430122a128.50977 128.50977 0 0 0-23.588703-10.427226 77.53222 77.53222 0 0 0-11.678493-1.529326c-5.653874-0.880521-6.256336 1.529327-5.653874 4.634322a12.234612 12.234612 0 0 0 10.751629 8.8979c6.580738-1.204924 8.666184 1.482983 13.439536 3.244026 2.965967 0.926865 10.473569 2.687907 8.341781 4.634323s-2.641564 0.324403-5.051412 1.807386-9.871107-2.965967-12.559015-0.602462c-1.482983 1.529327 0.324403 5.978276-2.687907 6.580738-1.761043 0.278059-4.634323-2.363505-6.858797-3.892831-6.858798-3.892831-13.902968-10.751629-20.900796-13.902968s-8.063722 0.602462-7.1832 5.375814a19.788558 19.788558 0 0 0 2.409848 8.944243c2.687907 5.375814 17.610426 8.063722 23.171613 13.439536 3.290369 3.01231 6.302679 3.892831 4.634323 5.375814a19.788558 19.788558 0 0 1-9.824764 9.871108c-4.634323 2.085445-22.430122-16.729905-22.708182-11.354091 0.602462 4.17089 3.892831 9.268645 4.634323 13.902968 1.204924 6.580738 1.204924 11.956553 1.529327 13.902968 1.158581 4.17089 9.268645 5.978276 18.537291 2.965967a101.538011 101.538011 0 0 0 12.837074-6.256336c5.700217-3.290369 11.63215-16.451846 14.922519-14.64446 7.785662 4.17089 8.063722 5.653874 13.902968 12.559015v-20.344677c-5.978276-3.290369-11.029688-6.302679-9.268645-8.388124a13.34685 13.34685 0 0 1 8.851556-2.363505z m-35.545255-54.685008c2.409848 0 16.729905-19.09341 20.298333-25.674148a23.959449 23.959449 0 0 1 5.700217-10.010137c2.965967-2.409848 5.051412-1.807386 6.256336 0.278059s1.204924 7.785662-0.27806 14.922519c-0.926865 4.634323-2.409848 2.687907-3.336712 4.170891-5.051412 6.302679-10.705286 12.280955-13.902968 16.776248-2.085445 2.317161 1.204924 5.329471 2.965966 4.634323 5.978276-7.1832 12.559015-16.729905 17.934829-23.588703V245.619152l-0.324402 0.324402c-3.568429 3.892831-5.653874 2.085445-7.46126 6.580739 0.324403 1.158581 4.634323 2.085445 7.785662 2.085445v15.80304c-1.807386-1.158581-3.892831-2.085445-5.375814-2.965966a17.054308 17.054308 0 0 0-5.653874-2.085445c-1.807386-0.278059-4.217234 0.880521-6.024619 0-2.641564-1.482983-4.634323-3.01231-6.256336-3.892831a41.338159 41.338159 0 0 0-5.375814-2.687908 24.005792 24.005792 0 0 0-11.91021-3.568428c-4.634323 0.278059-9.871107 6.858798-13.439536 8.341781s-6.302679 3.01231-8.990586 4.17089a10.288196 10.288196 0 0 1-9.268645 1.204924c-4.634323-2.085445-3.568429-10.751629-0.880522-13.115133a87.217954 87.217954 0 0 0 11.076032-9.593048c2.085445-2.363505 3.244026-5.653874 5.051411-7.46126a9.268645 9.268645 0 0 1 5.700217-2.085445c2.085445-0.602462 4.634323-1.204924 5.978277 0.602462s1.482983 3.568429 2.965966 5.097755a7.044171 7.044171 0 0 0 6.858798 1.761043z m35.545255 65.436637c1.807386 1.158581 3.892831 2.363505 5.978276 3.568429a32.440259 32.440259 0 0 0 4.170891 1.807386v19.371469a12.002896 12.002896 0 0 1-10.149167-4.634323z m10.149167-8.990586v-18.537291c-2.965967-1.807386-5.653874-3.290369-8.341781-4.634323l-1.807386-0.880521v22.291092a19.464156 19.464156 0 0 1 8.341781 1.482984c0.602462 0 1.204924 0.278059 1.807386 0.278059z m-10.149167-74.936999A53.572771 53.572771 0 0 1 760.02893 218.276648c1.482983-1.807386 2.965967-4.17089 4.170891-5.978277v21.225198c-0.602462 0.556119-0.880521 1.158581-1.482984 1.761043a3.104996 3.104996 0 0 0 1.482984 0.880521v27.203475c-1.482983 0.278059-1.204924 0-2.409848 0.880521-0.278059 0.602462 1.204924 2.085445 2.409848 2.409848v10.149167l-0.602462-0.324403c-3.290369-2.085445-6.580738-4.17089-9.546705-5.978276V254.887797a4.634323 4.634323 0 0 0 3.568428-1.204924c3.892831-3.892831 5.700217-6.302679 1.204924-8.063721-0.278059 0.278059-2.409848-1.807386-4.634323 0.278059v-20.159304z m21.178855 58.531496v-14.320057a5.468501 5.468501 0 0 1-1.158581-2.131788c0.602462-0.602462 0.880521-0.880521 1.158581-0.880522v-17.610426a6.070963 6.070963 0 0 1-2.965967-0.602462c0.880521-1.807386 1.204924-1.807386 2.965967-2.687907v-13.902968a5.097755 5.097755 0 0 1-1.761043 2.085445 11.678493 11.678493 0 0 1-9.268645 2.085445v27.203475l0.278059-0.324403c1.529327-0.278059 1.204924 1.204924 1.529327 1.204924 0.880521 1.482983 0.602462 1.807386-1.529327 2.409848h-0.278059v10.149167c4.17089 2.548878 8.063722 5.236785 11.029688 7.322229zM764.246164 315.133993c1.807386 0.556119 3.290369 0.880521 3.568428 2.085445a16.544532 16.544532 0 0 1-0.278059 13.902968 4.078204 4.078204 0 0 1-3.290369 3.244026V315.133993z m11.029688-15.849384a10.33454 10.33454 0 0 0-3.568429-1.204924c-2.363505 0.324403-4.17089 3.290369-7.461259 2.687907v-18.537291l11.029688 7.136858v9.871107z m-11.029688-86.893551c1.204924-2.409848 2.409848-4.17089 3.892831-4.170891 2.687907 0 5.653874 3.290369 7.136857 5.653874v10.751629a2.317161 2.317161 0 0 0-1.482983-0.602462c-0.926865 0-1.204924 0.926865-1.482984 1.204924a104.225919 104.225919 0 0 0-8.063721 8.388124v-21.317885z m11.029688 1.482983c0.324403 0.324403 0.602462 0.602462 0.602462 0.926865 0.880521 2.085445 3.01231-0.602462 4.634323 0a8.480811 8.480811 0 0 1 5.978276 5.329471 12.512671 12.512671 0 0 0 2.965967 6.302679v29.566979a4.634323 4.634323 0 0 1-1.204924-0.926865c-1.761043-0.880521-2.363505 1.204924-2.965967 2.409848s0.602462 2.409848 2.085445 2.965967l2.085446 2.085445v18.537291a0.973208 0.973208 0 0 0 0 1.204924v27.157131a89.257056 89.257056 0 0 0-13.902969-10.149167v-9.963794a11.863866 11.863866 0 0 1 2.085446 1.204924c1.807386 1.204924 4.217234 0 3.614771-1.761042 0-0.602462-2.409848-2.131788-5.700217-4.634323v-14.181028a3.475742 3.475742 0 0 0 1.482984 0.556119c0.926865-0.278059 2.409848 0 2.409847-1.482983a2.409848 2.409848 0 0 0-1.807385-2.085446c-0.880521-0.602462-1.482983-0.602462-2.085446 0v-17.610426a1.622013 1.622013 0 0 0 1.482984-0.602462c1.807386-1.529327 2.409848-2.085445 0.602462-3.01231-0.278059 0.324403-0.602462-0.278059-2.085446 0.324403v-13.902968c2.085445-2.965967 2.409848-5.653874 0-7.46126z m13.902968 68.402604h0.324403c9.546705 4.634323 11.63215 6.858798 13.115133 14.320057 1.204924 6.256336 3.290369 10.751629-1.761042 14.320057a12.327299 12.327299 0 0 1-11.678494-1.482983z m0-55.611873a3.707458 3.707458 0 0 0 3.568429 0.880521c5.097755-0.602462 8.110065-11.029688 13.902968-7.46126 3.290369 2.687907 3.290369 8.341781 3.568428 11.632151 0 4.17089-2.641564 6.302679-13.115133 8.063721a5.283128 5.283128 0 0 0-2.687907 1.807386c-1.482983 2.363505 2.687907 4.634323-1.482983 8.341781-2.085445 1.807386 6.580738 8.666184 7.1832 9.871107s2.687907 0.324403 2.363504-2.085445a50.97755 50.97755 0 0 0-1.482983-5.051412c-1.204924-3.614772-3.01231-7.46126-2.085445-8.990586s4.634323 0 8.341781 2.687907c2.965967 2.085445 8.666184 2.085445 10.473569 4.634323s3.846488 3.892831 1.158581 14.64446c-0.602462 1.761043-3.846488 2.965967-6.858798 3.892831-4.634323 1.761043-7.46126 4.634323-12.234612 6.256336a44.767558 44.767558 0 0 0-10.751628 5.375814v-18.537291a4.958725 4.958725 0 0 0 2.687907 0.926865c0.880521-0.324403 2.085445-1.807386 1.807386-2.687907a22.244749 22.244749 0 0 0-4.634323-4.634323v-29.891382zM577.297584 140.04928c6.580738 2.085445 11.076031 2.363505 11.354091 1.15858a92.686455 92.686455 0 0 0 4.634323-22.661838 6.905141 6.905141 0 0 1 5.978276-5.978276c5.653874-1.807386 7.46126-2.687907 10.102824-1.807386a20.066617 20.066617 0 0 1 9.871107 11.678493c0.926865 2.641564 3.290369-0.324403-2.085445 11.307748-2.363505 5.700217-1.761043 6.580738-0.880521 7.785662 2.363505 1.807386 5.375814 1.482983 10.149166 1.482983 5.700217-0.324403 9.268645-7.785662 16.451846 7.1832a4.634323 4.634323 0 0 1-0.926864 6.256336c-2.965967 2.409848-8.666184 2.687907-15.524982 4.634323-8.944243 2.085445-21.82766-0.324403-21.503257 5.653874 1.807386 14.922519 11.354091 37.630701 26.879072 55.611873a55.936276 55.936276 0 0 0 15.524981 12.837074c8.944243 5.097755 16.405503 9.268645 11.076031 10.427226-8.388124 1.807386-36.750179-0.834178-43.330917-6.858798s-20.900796-50.143372-23.171614-58.809555c-0.278059-0.278059-0.880521-0.602462-1.482983 0.324402-6.858798 8.61984-21.225198 24.469224-32.44026 29.520636a11.585807 11.585807 0 0 1-12.234612-3.244026c-1.761043-2.085445-14.922519-8.666184-16.127443-13.902968-0.278059-2.965967 1.529327-2.687907 3.01231-2.363505 18.537291 3.892831 22.383779-0.926865 27.481534-3.01231 13.393193-5.653874 19.09341-20.298334 17.888486-21.178854-17.332367-3.01231-23.588703-2.409848-27.157132-9.871108-5.097755-23.588703 4.17089-24.793627 13.902969-21.225198a93.242574 93.242574 0 0 0 12.559014 5.051412zM373.062981 187.829147a8.8979 8.8979 0 0 1 7.46126 2.363505c8.063722 5.375814 10.473569 15.849384 14.320057 21.225198a21.503258 21.503258 0 0 0 7.461259-3.892831c4.217234-2.965967 8.990586-5.978276 8.110065-7.1832-3.336712-6.256336-20.947139-47.779867-24.515567-53.155682-0.278059-0.602462-1.482983-2.085445-1.807386-2.687907a10.380883 10.380883 0 0 1 4.217234-16.405503c4.634323-1.482983 18.212888 2.965967 18.537291 7.739319-0.602462 5.097755 4.634323 17.054308 9.268645 28.408398 4.634323 9.546705 8.341781 19.09341 10.427226 22.383779 1.204924 2.965967 11.63215-5.978276 14.968863-9.546705 4.634323-3.01231-3.614772-18.537291-0.648805-23.171613 1.204924-2.363505 13.902968-5.653874 20.344677 3.568428a77.949309 77.949309 0 0 1 5.978276 20.298334 113.170161 113.170161 0 0 0 3.846488 13.439536c0.926865 2.409848-4.17089 15.849384-6.256336 19.417812-4.17089 3.290369-11.029688-7.46126-13.902968-13.439536-1.529327-3.290369-1.807386-4.634323-3.01231-4.634323a37.074582 37.074582 0 0 0-13.115133 9.871108c-1.807386 2.085445-1.204924 5.978276-3.892831 8.063721-12.559015 5.051412-24.191165 13.161477-25.071686 15.803041a118.916722 118.916722 0 0 0-4.634323 11.076031c-0.324403 1.761043-5.375814 2.363505-6.580739 3.290369-2.687907 2.687907-6.858798-2.131788-12.559014-5.375814s-4.634323-6.905141-4.634323-13.161477a64.880518 64.880518 0 0 0-7.46126-24.515567c-1.946416-3.846488-3.800145-8.017378 3.15134-9.778421zM229.120916 267.817558c2.409848-1.158581 2.687907-3.568429 3.29037-7.136857a110.343225 110.343225 0 0 1 5.978276-19.417813c-4.634323-4.634323-10.149167-8.666184-14.64446-13.161476a7.739319 7.739319 0 0 0-2.965966-1.761043 7.878349 7.878349 0 0 1-4.634323-8.063721v-1.204924a17.842143 17.842143 0 0 1 2.965966-9.546705c1.204924-1.807386 12.559015-5.978276 15.849384-2.687907a133.653868 133.653868 0 0 0 14.922519 14.598116 5.88559 5.88559 0 0 1 1.482984-1.15858v39.716146c-0.602462-0.602462-1.204924-0.926865-1.482984-1.204924-1.807386 0-1.529327 2.409848-1.529326 3.290369a15.432295 15.432295 0 0 1-6.534395 9.546705c-1.807386 0.602462 5.051412 5.978276 9.546705 8.063721v33.135408c-0.880521-0.278059-1.807386-0.602462-3.01231-0.880521A15.849384 15.849384 0 0 1 236.35046 305.865347a69.514841 69.514841 0 0 1-4.17089-9.546704 22.615495 22.615495 0 0 0-2.687908-3.846488 40.040549 40.040549 0 0 1-8.388124-12.559015 10.519913 10.519913 0 0 1 8.017378-12.095582z m22.10572-49.54091A101.9551 101.9551 0 0 0 259.522074 209.888523c2.687907-3.846488 4.217234-10.751629 6.858797-13.902968a6.117306 6.117306 0 0 1 1.807386-1.204924v25.071686a18.95438 18.95438 0 0 0-8.063721 10.149167 33.784213 33.784213 0 0 0 8.063721 10.149167V310.49967a12.049239 12.049239 0 0 1-6.534395 3.568429c-2.687907 0.278059-5.700217-2.085445-10.473569-3.290369v-33.089065c1.482983 0.880521 3.01231 1.204924 3.568428 0.602462a12.92976 12.92976 0 0 0 6.302679-9.268645c0.602462-1.807386-6.302679-8.341781-9.871107-11.029688z m17.007964-23.635046a26.740042 26.740042 0 0 1 20.298334-0.926865 9.268645 9.268645 0 0 1 3.892831 11.076031l-1.204924 2.687908a25.303402 25.303402 0 0 0 1.529327 13.902968 5.005069 5.005069 0 0 0 5.653874 2.363504c2.409848 0.324403 6.580738 9.268645 4.634322 13.439536a13.902968 13.902968 0 0 1-2.965966 5.375815 37.816074 37.816074 0 0 0-9.546705 20.298333c15.524981 15.524981 28.964517 30.771903 43.887036 46.621287 7.136857 8.944243 11.956553 19.09341 8.341781 23.588703-2.965967 2.687907-12.512671-0.602462-23.171614-10.473569l-43.284574-40.596668a117.387395 117.387395 0 0 0-6.858798 14.92252v5.375814c0.278059 1.807386 1.158581 3.892831 0.602462 5.375814a15.432295 15.432295 0 0 1-2.131788 2.687908V240.057965c2.131788 2.085445 4.17089 3.568429 4.634323 3.290369a13.485879 13.485879 0 0 0 3.012309-12.559015c-0.880521-3.846488-2.687907-9.546705-6.858797-11.354091a1.112237 1.112237 0 0 1-0.926865 0.324403z" fill="#00561F" p-id="3975"></path><path d="M511.999977 0.000046A511.999977 511.999977 0 1 0 1024.185327 512.000023 511.999977 511.999977 0 0 0 511.999977 0.000046z m0 990.215741a478.215764 478.215764 0 1 1 478.262107-478.215764 478.215764 478.215764 0 0 1-478.262107 478.215764z m0-942.52856a464.359139 464.359139 0 1 0 464.359139 464.312796 464.312796 464.312796 0 0 0-464.359139-464.312796z m0 918.939857a454.627061 454.627061 0 1 1 454.627061-454.627061 454.627061 454.627061 0 0 1-454.627061 454.627061z" fill="#00561F" p-id="3976"></path><path d="M201.546696 437.063024L176.104264 430.482286l0.648805-2.270818a26.554669 26.554669 0 0 0 17.51774-3.614772A20.715423 20.715423 0 0 0 203.910201 412.454771a13.20782 13.20782 0 0 0-0.463433-9.871108 9.824764 9.824764 0 0 0-6.024619-5.329471 8.990586 8.990586 0 0 0-4.634323 0 20.344677 20.344677 0 0 0-6.673425 3.707458A121.650972 121.650972 0 0 0 176.104264 411.203503a55.611873 55.611873 0 0 1-17.471396 14.412744 21.503258 21.503258 0 0 1-14.551774 0.787835 22.383779 22.383779 0 0 1-14.320057-12.049239 27.805936 27.805936 0 0 1-1.482983-20.715423 32.069513 32.069513 0 0 1 2.641564-6.534395A57.975378 57.975378 0 0 1 135.971029 380.014511a12.651701 12.651701 0 0 0 2.409848-4.078204 5.792903 5.792903 0 0 0-0.231716-3.383055 8.388124 8.388124 0 0 0-2.687907-3.614772l0.602462-2.039102 28.547428 8.110065-0.556119 2.085445a34.015929 34.015929 0 0 0-21.086168 4.217234 23.171614 23.171614 0 0 0-10.658943 13.300506 14.829833 14.829833 0 0 0 0.556119 10.937002 10.797972 10.797972 0 0 0 6.858798 5.931933 10.937002 10.937002 0 0 0 5.60753 0 18.537291 18.537291 0 0 0 6.02462-2.965967 73.036926 73.036926 0 0 0 8.805213-8.573497 92.686455 92.686455 0 0 1 12.883417-12.419985 27.805936 27.805936 0 0 1 9.963794-4.634322 20.298334 20.298334 0 0 1 10.380883 0.324402 21.549601 21.549601 0 0 1 13.532223 11.029688 24.283851 24.283851 0 0 1 1.575669 18.537291 27.805936 27.805936 0 0 1-2.965966 6.905141 37.491671 37.491671 0 0 1-4.263577 5.700217 15.246922 15.246922 0 0 0-3.336713 4.634323 3.197683 3.197683 0 0 0 0 2.548877 10.566256 10.566256 0 0 0 3.846488 2.780594zM197.931924 438.87041l-5.514844 40.272265-2.131788-0.278059 0.278059-2.039102a13.902968 13.902968 0 0 0 0-6.349023 5.422158 5.422158 0 0 0-2.270818-2.780593 27.805936 27.805936 0 0 0-8.249094-1.853729l-38.279506-5.190442a38.742938 38.742938 0 0 0-13.902968-0.324402 13.115133 13.115133 0 0 0-6.349023 4.634322 16.544532 16.544532 0 0 0-3.475742 8.805214 19.603185 19.603185 0 0 0 1.343954 11.168717 17.239681 17.239681 0 0 0 6.951484 7.739319 48.428673 48.428673 0 0 0 17.100651 4.634323l31.837797 4.30992a18.027515 18.027515 0 0 0 7.60029 0 6.673425 6.673425 0 0 0 3.475742-2.317161 16.312816 16.312816 0 0 0 2.317161-7.136857l2.131788 0.324402-3.800144 26.55467-2.131789-0.324403v-1.57567a10.149167 10.149167 0 0 0-0.556118-5.653873 7.600289 7.600289 0 0 0-3.522086-3.707459 20.020274 20.020274 0 0 0-6.534395-1.668356l-29.613322-4.031861a77.902965 77.902965 0 0 1-19.556842-4.634322 22.013033 22.013033 0 0 1-10.010137-10.380883 32.440259 32.440259 0 0 1-2.548878-19.834902 37.074582 37.074582 0 0 1 4.866039-15.293265 23.171614 23.171614 0 0 1 10.844315-9.268645 32.718319 32.718319 0 0 1 15.895727-1.019551l38.18682 5.236785a28.223026 28.223026 0 0 0 8.48081 0.370745 5.514844 5.514844 0 0 0 2.965967-2.224474 15.895727 15.895727 0 0 0 1.853729-6.673425z" fill="#00561F" p-id="3977"></path><path d="M188.709622 534.013056l-46.80666 41.245473 33.830556-1.7147a16.0811 16.0811 0 0 0 9.268646-2.502534 11.354091 11.354091 0 0 0 2.780594-9.268646h2.131788l1.29761 25.952208h-2.131788a19.742215 19.742215 0 0 0-1.992759-6.627082 6.719768 6.719768 0 0 0-3.429399-2.502534 23.171614 23.171614 0 0 0-7.924692-0.556119l-65.436637 3.336713v-1.992759l62.74873-56.492394-49.957999 2.548877a11.168718 11.168718 0 0 0-9.036929 3.568429 11.261404 11.261404 0 0 0-1.992759 7.229543v1.853729h-2.131788l-1.436641-27.805936h2.131789a12.651701 12.651701 0 0 0 3.151339 8.944243 12.744388 12.744388 0 0 0 8.990587 2.085445l55.611872-2.826937 1.992759-1.761043a15.524981 15.524981 0 0 0 3.892831-4.634322 12.976104 12.976104 0 0 0 0.834178-5.561188h2.131789zM225.506145 683.238249l-1.992759 0.787834a12.049239 12.049239 0 0 0-4.30992-4.634322 63.814624 63.814624 0 0 0-15.756698-3.614772l-32.764661-5.329471-17.749456 6.951484a25.303402 25.303402 0 0 0-6.812455 3.383056 5.88559 5.88559 0 0 0-1.482983 3.290369 9.593048 9.593048 0 0 0 0.787835 5.097755l1.622013 4.124547-1.992759 0.787835-16.312816-41.0601 1.992759-0.787835 1.529326 3.800145a10.937002 10.937002 0 0 0 3.197683 4.634323 5.468501 5.468501 0 0 0 3.429399 1.204924 23.171614 23.171614 0 0 0 7.04417-2.131789l14.690803-5.792903 24.515568-29.659666a48.2433 48.2433 0 0 0 8.017378-11.585807 9.778421 9.778421 0 0 0-0.509776-6.302679l1.992759-0.787834 13.902969 35.081823-1.992759 0.787835-0.648805-1.57567a8.202751 8.202751 0 0 0-2.687908-4.078204 2.780594 2.780594 0 0 0-2.409847-0.509776 33.830556 33.830556 0 0 0-8.063722 8.202752l-19.000723 22.847211 27.296161 4.402606a31.976827 31.976827 0 0 0 12.698044 0.648806 3.058653 3.058653 0 0 0 1.853729-2.363505 13.902968 13.902968 0 0 0-1.065894-7.414916l2.039102-0.787835zM192.55611 731.296175l-15.107892-23.171613-8.202751 1.390297a17.332367 17.332367 0 0 0-6.209993 2.039102 5.329471 5.329471 0 0 0-2.641564 4.912382 23.171614 23.171614 0 0 0 3.01231 7.229543l-1.807386 1.158581-14.227371-21.96669 1.807386-1.158581a11.863866 11.863866 0 0 0 6.719768 3.939175 47.316435 47.316435 0 0 0 13.624909-0.787835l68.031858-10.47357 0.602462 0.926865L199.275878 754.0507a40.967413 40.967413 0 0 0-6.070963 11.863866 9.268645 9.268645 0 0 0 1.297611 5.792904l-1.807386 1.204924-20.66908-31.976827 1.807386-1.158581 0.834178 1.29761a12.327299 12.327299 0 0 0 4.634323 4.634323 3.058653 3.058653 0 0 0 2.919623-0.417089 6.719768 6.719768 0 0 0 1.622013-1.43664c0-0.231716 1.158581-1.529327 2.687907-3.846488z m2.548878-3.985517l16.359159-24.608254-29.28892 4.634323zM295.762478 765.358448l-15.478638 14.644459-1.43664-1.482983a33.59884 33.59884 0 0 0 4.634322-10.288196 16.127443 16.127443 0 0 0-0.324402-8.202752 20.25199 20.25199 0 0 0-4.634323-6.302678l-4.031861-4.263577-43.979723 41.708904a23.727732 23.727732 0 0 0-4.958725 5.931933 6.163649 6.163649 0 0 0 0 3.707459 10.797972 10.797972 0 0 0 2.826937 4.634322l1.853729 1.900073-1.57567 1.482983-28.408398-29.845039 1.57567-1.482983 1.807385 1.853729a10.890658 10.890658 0 0 0 4.634323 3.197683 5.653874 5.653874 0 0 0 3.661115-0.231716 24.191165 24.191165 0 0 0 5.74656-4.634323l43.979723-41.708905-3.939174-4.124547a16.405503 16.405503 0 0 0-10.380883-6.070963 22.291092 22.291092 0 0 0-13.902968 4.634323l-1.529327-1.57567 15.432295-14.690803zM289.923231 819.858083l-22.522809-17.471397 6.02462-8.017378 22.522808 17.471397zM361.106428 805.584369l-13.115133 22.754525-2.039102-1.251267a26.879072 26.879072 0 0 0 1.204924-17.842143 20.854452 20.854452 0 0 0-9.268646-12.559015 13.300506 13.300506 0 0 0-9.639391-2.131788 9.685735 9.685735 0 0 0-6.719768 4.634323 8.573497 8.573497 0 0 0-1.390297 4.634322 20.205647 20.205647 0 0 0 1.807386 7.414917 114.606801 114.606801 0 0 0 7.229544 12.327298 56.121648 56.121648 0 0 1 9.268645 20.622737 21.781317 21.781317 0 0 1-3.104996 14.273714 22.198406 22.198406 0 0 1-15.385952 10.519912 27.527877 27.527877 0 0 1-20.39102-4.078204 29.28892 29.28892 0 0 1-5.60753-4.263577 50.97755 50.97755 0 0 1-5.607531-6.766111 13.532222 13.532222 0 0 0-3.336712-3.383056 5.607531 5.607531 0 0 0-3.336713-0.648805 8.156408 8.156408 0 0 0-4.17089 1.622013l-1.807386-1.112237 15.617668-25.442432 1.853729 1.112237a34.015929 34.015929 0 0 0-1.57567 21.456915 23.171614 23.171614 0 0 0 10.010137 13.902968 14.598117 14.598117 0 0 0 10.705286 2.363504 10.844315 10.844315 0 0 0 7.461259-5.375814 11.029688 11.029688 0 0 0 1.57567-5.375814 16.868935 16.868935 0 0 0-1.29761-6.534395 63.397535 63.397535 0 0 0-5.931933-10.797972 93.47429 93.47429 0 0 1-8.249095-15.710354 27.805936 27.805936 0 0 1-1.853729-10.844316 20.25199 20.25199 0 0 1 3.104996-9.963794 21.410571 21.410571 0 0 1 14.227371-10.102823 24.376538 24.376538 0 0 1 18.537291 3.383055 28.779144 28.779144 0 0 1 5.839247 4.634323 36.055031 36.055031 0 0 1 4.356263 5.653874 14.876176 14.876176 0 0 0 3.707458 4.634323 2.965967 2.965967 0 0 0 2.502535 0.463432 10.612599 10.612599 0 0 0 3.753801-2.965967z" fill="#00561F" p-id="3978"></path><path d="M385.714682 823.519198l-11.863866 29.752352 1.43664 0.556119a12.512671 12.512671 0 0 0 11.863866-0.324403 28.732801 28.732801 0 0 0 9.268646-11.307747l2.039102 0.834178-15.246922 38.233162-2.039102-0.787834a29.520636 29.520636 0 0 0 1.343953-11.354091 12.92976 12.92976 0 0 0-2.641564-7.275887 20.066617 20.066617 0 0 0-7.461259-4.634323l-8.202751 20.576393a32.440259 32.440259 0 0 0-2.409848 7.60029 4.634323 4.634323 0 0 0 1.019551 2.965966 9.268645 9.268645 0 0 0 4.17089 2.687907l4.356264 1.7147a28.130339 28.130339 0 0 0 18.537291 1.807386 28.593771 28.593771 0 0 0 14.644459-10.890659l1.992759 0.787835-12.559014 21.920347-63.165819-25.210716 0.787834-1.992759 2.456191 0.973208a10.983345 10.983345 0 0 0 5.561188 0.926865 5.468501 5.468501 0 0 0 3.197682-1.7147 27.435191 27.435191 0 0 0 3.29037-6.580738L364.813886 824.909495a42.21868 42.21868 0 0 0 2.178132-6.209993 5.607531 5.607531 0 0 0-0.834178-3.707458 10.33454 10.33454 0 0 0-5.005069-3.753801l-2.409847-0.973208 0.787835-1.992759 61.17306 24.376538-8.619841 21.642287-2.039102-0.834178a28.269369 28.269369 0 0 0 0-13.115133 17.610426 17.610426 0 0 0-5.978276-8.249095 46.760316 46.760316 0 0 0-10.937002-5.468501z" fill="#00561F" p-id="3979"></path><path d="M447.351175 838.812463l29.427949 54.963068 6.070963-33.274437a16.22013 16.22013 0 0 0-0.27806-9.778421 11.215061 11.215061 0 0 0-8.61984-4.866039l0.370746-2.131789 25.581461 4.634323-0.370745 2.085445a20.669079 20.669079 0 0 0-6.905141 0.463432 6.673425 6.673425 0 0 0-3.244026 2.734251 23.171614 23.171614 0 0 0-2.317162 7.600289l-11.724836 64.417086-1.946416-0.324402-40.596667-74.149164-8.990586 49.170164a11.076031 11.076031 0 0 0 1.43664 9.593048 11.261404 11.261404 0 0 0 6.534395 3.614772l1.853729 0.324403-0.370746 2.131788-27.481533-5.005069 0.370745-2.131788a9.639391 9.639391 0 0 0 13.48588-9.268645l9.963793-54.638666-1.29761-2.363504a14.64446 14.64446 0 0 0-3.614772-4.634323 13.06879 13.06879 0 0 0-5.190441-2.085445l0.370746-2.085445zM522.658919 848.359168l40.179578-5.931933 0.324403 2.131788-2.039102 0.27806a14.78349 14.78349 0 0 0-6.070963 1.853729 5.839247 5.839247 0 0 0-2.039102 2.965966 29.984068 29.984068 0 0 0 0.509776 8.434468l5.60753 38.140476a41.338159 41.338159 0 0 0 3.614772 13.624909 13.393193 13.393193 0 0 0 6.024619 4.634323 17.332367 17.332367 0 0 0 9.268646 0.926864 19.510499 19.510499 0 0 0 10.380883-4.634323 17.703113 17.703113 0 0 0 5.514844-8.805213 48.660389 48.660389 0 0 0-0.370746-17.703113l-4.634323-31.745111a19.09341 19.09341 0 0 0-2.178131-7.322229 6.441709 6.441709 0 0 0-3.197683-2.687908 16.173786 16.173786 0 0 0-7.507603-0.278059l-0.324402-2.085445 26.925415-3.985518 0.324402 2.131789-1.575669 0.231716a10.519913 10.519913 0 0 0-5.283128 2.131788 7.1832 7.1832 0 0 0-2.548878 4.634323 18.537291 18.537291 0 0 0 0 6.719768l4.356264 29.566979a78.134681 78.134681 0 0 1 1.112237 20.066618 22.244749 22.244749 0 0 1-7.1832 12.512671 32.440259 32.440259 0 0 1-18.537291 7.924692 37.074582 37.074582 0 0 1-16.034757-0.417089 23.171614 23.171614 0 0 1-12.002896-7.832006 33.645183 33.645183 0 0 1-5.375814-15.015205l-5.607531-38.094133A27.481534 27.481534 0 0 0 532.947116 852.715431a5.839247 5.839247 0 0 0-2.965967-2.224475 14.829833 14.829833 0 0 0-6.905141 0z" fill="#00561F" p-id="3980"></path><path d="M621.879769 828.70964l53.202025 32.440259-11.585807-31.791454a16.22013 16.22013 0 0 0-5.190441-8.295438 11.215061 11.215061 0 0 0-9.917451 0l-0.741491-2.039102 24.469224-8.8979 0.695148 2.039102a19.603185 19.603185 0 0 0-5.700217 3.846488 6.766111 6.766111 0 0 0-1.390297 4.031861 21.68863 21.68863 0 0 0 1.807386 7.692976l22.430122 62.053581-1.853729 0.695149-72.480808-43.377261 17.146995 46.992032c1.529327 4.263577 3.568429 6.812454 6.070962 7.60029a11.77118 11.77118 0 0 0 7.46126 0l1.761043-0.648805 0.741491 1.992758-26.230266 9.546705-0.741492-1.992759a12.790731 12.790731 0 0 0 7.600289-5.60753 12.651701 12.651701 0 0 0-0.648805-9.268646l-19.000723-52.27516-2.317162-1.390297a14.551773 14.551773 0 0 0-5.561187-2.363505 13.20782 13.20782 0 0 0-5.561187 0.834179l-0.741492-2.039102z" fill="#00561F" p-id="3981"></path><path d="M744.550292 855.449682l1.065894 1.853729-35.730628 20.39102-0.834178-1.807386 2.270818-1.29761a11.215061 11.215061 0 0 0 4.170891-3.800145 5.236785 5.236785 0 0 0 0.648805-3.568428 24.098478 24.098478 0 0 0-3.058653-6.673425l-25.859521-44.906588a25.071686 25.071686 0 0 0-4.30992-6.209992 5.561187 5.561187 0 0 0-3.568429-1.019551 10.288196 10.288196 0 0 0-5.097755 1.622013l-2.270818 0.973208-1.065894-1.853729 35.730628-20.391021 1.065894 1.85373-2.224475 1.29761a11.029688 11.029688 0 0 0-4.217233 3.800145 5.607531 5.607531 0 0 0-0.695149 3.568428 24.098478 24.098478 0 0 0 3.058653 6.673425l25.627805 44.999274a23.820419 23.820419 0 0 0 4.356263 6.209992 5.561187 5.561187 0 0 0 3.568429 1.019551 10.288196 10.288196 0 0 0 5.097755-1.622013z" fill="#00561F" p-id="3982"></path><path d="M768.185338 739.916016l1.343954 1.622013a13.022447 13.022447 0 0 0-2.965967 8.434467 70.534392 70.534392 0 0 0 3.15134 15.154235l17.564083 63.536565-1.482983 1.204924-60.755972-30.864589a83.417809 83.417809 0 0 0-13.485879-6.070963 9.268645 9.268645 0 0 0-6.395365 2.085445l-1.390297-1.668356 29.057204-24.098478 1.343953 1.668356-0.973208 0.787835a12.976104 12.976104 0 0 0-4.634322 5.468501 2.780594 2.780594 0 0 0 0.602462 2.780593 8.990586 8.990586 0 0 0 1.946415 1.622013c0.834178 0.509776 3.244026 1.807386 7.275887 3.892831l37.90876 19.417813-10.288197-36.796523c-1.251267-4.634323-2.224475-7.32223-2.780593-8.712527a14.227371 14.227371 0 0 0-1.853729-3.197682 5.190441 5.190441 0 0 0-2.687907-1.761043 5.375814 5.375814 0 0 0-3.383056 0 19.047066 19.047066 0 0 0-5.74656 3.429399l-1.343954-1.622013z" fill="#00561F" p-id="3983"></path><path d="M783.663976 724.344691l25.720491 19.047067 0.926865-1.251267a12.327299 12.327299 0 0 0 2.687907-11.493121 28.686458 28.686458 0 0 0-8.573497-11.724836l1.29761-1.761043L838.812417 741.491685l-1.297611 1.761043a31.328022 31.328022 0 0 0-10.612599-4.17089 12.327299 12.327299 0 0 0-7.692975 0.741491 19.464156 19.464156 0 0 0-6.349023 6.302679l17.842143 13.20782a30.864589 30.864589 0 0 0 6.719768 4.30992 4.634323 4.634323 0 0 0 3.104996-0.231716 9.871107 9.871107 0 0 0 3.661115-3.383056l2.780594-3.753801a25.396089 25.396089 0 0 0-0.370746-34.201302l1.29761-1.714699 17.981173 17.749456L825.372881 792.469236l-1.7147-1.297611 1.529327-2.085445a10.844315 10.844315 0 0 0 2.317161-5.144098 5.375814 5.375814 0 0 0-0.880521-3.522085 21.874003 21.874003 0 0 0-5.468501-4.866039l-41.708905-30.86459a43.145545 43.145545 0 0 0-5.4685-3.661115 5.653874 5.653874 0 0 0-3.800145 0 10.33454 10.33454 0 0 0-4.866039 3.892831l-1.57567 2.085446-1.714699-1.251268 39.20637-52.923965 18.537291 13.902968-1.343953 1.761043a28.964517 28.964517 0 0 0-12.651701-3.475743 17.564083 17.564083 0 0 0-9.500362 3.661115 48.289643 48.289643 0 0 0-8.110065 9.268646zM854.291055 680.596685l20.483706 8.110064a25.488775 25.488775 0 0 0 7.739319 2.270819 5.931933 5.931933 0 0 0 3.475742-1.57567 19.047066 19.047066 0 0 0 3.661115-6.488052l1.992759 0.787835-14.876176 37.398984-1.992759-0.787834a18.073859 18.073859 0 0 0 1.761043-7.229544 5.978276 5.978276 0 0 0-1.43664-3.522085 23.171614 23.171614 0 0 0-7.136857-3.661115l-47.455465-18.908037a25.025343 25.025343 0 0 0-7.785662-2.224475 5.931933 5.931933 0 0 0-3.475742 1.57567 17.934829 17.934829 0 0 0-3.614772 6.488052l-1.992759-0.787835 13.485879-33.969586a80.822589 80.822589 0 0 1 9.546705-18.537291 21.317885 21.317885 0 0 1 10.751629-7.368573 19.695872 19.695872 0 0 1 13.115133 0.741492 18.537291 18.537291 0 0 1 11.076032 11.122374 25.998551 25.998551 0 0 1 0.880521 12.419985L894.42429 648.805231a38.789281 38.789281 0 0 0 7.924692-2.548878 9.268645 9.268645 0 0 0 3.846487-4.634323l1.992759 0.834178-9.268645 23.171614-42.682113 10.33454z m-35.869658-14.273714l32.02317 12.744387 1.204924-3.104996a37.074582 37.074582 0 0 0 3.104996-11.724837 12.234612 12.234612 0 0 0-2.641564-7.832005 19.834901 19.834901 0 0 0-8.527154-5.839247 15.246922 15.246922 0 0 0-22.893554 10.010137zM836.912344 572.524278l25.998551 3.661115-0.417089 2.363505a27.064445 27.064445 0 0 0-17.007964 5.561187 20.622736 20.622736 0 0 0-8.249095 13.06879A13.34685 13.34685 0 0 0 838.812417 607.096326a9.732078 9.732078 0 0 0 6.627081 4.634323 8.712527 8.712527 0 0 0 4.634323-0.463433 19.556842 19.556842 0 0 0 6.209993-4.634322c1.529327-1.622013 4.634323-5.375814 8.75887-11.307748a56.816797 56.816797 0 0 1 15.710354-16.312816 21.920347 21.920347 0 0 1 14.412743-2.409848 22.291092 22.291092 0 0 1 15.478638 10.380883 27.805936 27.805936 0 0 1 3.800145 20.437363 32.903691 32.903691 0 0 1-1.900072 6.766112 55.611873 55.611873 0 0 1-4.170891 7.739319 12.373642 12.373642 0 0 0-1.900072 4.356263 5.792903 5.792903 0 0 0 0.648805 3.336712 7.971035 7.971035 0 0 0 3.01231 3.244026l-0.324403 2.131789L880.521321 630.26794l0.370746-2.131789a34.154959 34.154959 0 0 0 20.483707-6.580738 22.800868 22.800868 0 0 0 9.036929-14.412744 14.50543 14.50543 0 0 0-1.761042-10.751629 10.751629 10.751629 0 0 0-7.507603-5.190441 10.937002 10.937002 0 0 0-5.561188 0.602462 15.571324 15.571324 0 0 0-5.60753 3.614772 65.158578 65.158578 0 0 0-7.832006 9.268645 91.064442 91.064442 0 0 1-11.400434 13.902968 27.527877 27.527877 0 0 1-9.268645 5.746561 20.622736 20.622736 0 0 1-10.380883 0.880521 21.642287 21.642287 0 0 1-14.690803-9.268646 24.237508 24.237508 0 0 1-3.661115-18.259231 30.679217 30.679217 0 0 1 2.131788-7.183201 39.762489 39.762489 0 0 1 3.661115-6.117306 14.922519 14.922519 0 0 0 2.734251-5.144098 2.919623 2.919623 0 0 0-0.509776-2.456191 10.380883 10.380883 0 0 0-4.124547-2.363504zM920.283811 526.644483h1.946415l-0.556119 41.152786h-2.178131V565.387421a10.751629 10.751629 0 0 0-1.112238-5.514844 5.468501 5.468501 0 0 0-2.780593-2.363504 22.661838 22.661838 0 0 0-7.275887-0.741492l-51.811728-0.741492a26.369296 26.369296 0 0 0-7.553946 0.509776 5.792903 5.792903 0 0 0-2.641564 2.548877 10.05648 10.05648 0 0 0-1.204924 5.236785v2.641564h-2.178132l0.602462-41.152786h2.131788v2.502534a11.215061 11.215061 0 0 0 1.158581 5.514844 5.422158 5.422158 0 0 0 2.780594 2.456191 24.561911 24.561911 0 0 0 7.275886 0.695149l51.765386 0.787835a23.588703 23.588703 0 0 0 7.553946-0.602462 5.607531 5.607531 0 0 0 2.687907-2.548878 10.519913 10.519913 0 0 0 1.204924-5.236785zM839.553908 453.236811l21.132512-2.734251 0.27806 2.039102a34.664734 34.664734 0 0 0-9.963794 5.468501 15.664011 15.664011 0 0 0-4.309921 6.812455 20.159304 20.159304 0 0 0 0 7.785662l0.741492 5.839247 60.246196-7.878349a25.674148 25.674148 0 0 0 7.414916-1.622013 6.02462 6.02462 0 0 0 2.270818-2.919623 11.076031 11.076031 0 0 0 0.417089-5.422158l-0.324402-2.595221 2.131788-0.278059 5.329471 40.874726-2.131788 0.27806-0.370746-2.595221a10.983345 10.983345 0 0 0-1.900072-5.329471 5.839247 5.839247 0 0 0-3.058653-1.992759 25.210716 25.210716 0 0 0-7.368573 0.324403l-60.246196 7.832005 0.695148 5.653874a16.590875 16.590875 0 0 0 4.866039 11.029688 22.291092 22.291092 0 0 0 13.902968 4.634323l0.27806 2.178131-21.086169 2.734251zM815.918862 370.745866l2.039102-0.602462a11.724837 11.724837 0 0 0 3.892832 5.097755 59.041272 59.041272 0 0 0 15.293265 5.051412l32.162199 8.388124 18.259232-5.329471a26.41564 26.41564 0 0 0 7.090514-2.734251 5.931933 5.931933 0 0 0 1.761042-3.151339 9.963794 9.963794 0 0 0-0.278059-5.144098l-1.251267-4.217234 2.039102-0.602462 12.419985 42.35771-2.085445 0.602462-1.158581-3.939174a10.658942 10.658942 0 0 0-2.687907-4.958726 5.839247 5.839247 0 0 0-3.336713-1.482983 24.144821 24.144821 0 0 0-7.229543 1.43664l-15.154235 4.634323-27.157132 27.249817a49.81897 49.81897 0 0 0-9.268645 10.751629 9.685735 9.685735 0 0 0 0 6.302679l-2.085445 0.602462-10.566256-36.194061 2.039102-0.602462 0.463432 1.622013a8.712527 8.712527 0 0 0 2.317161 4.309921 2.548878 2.548878 0 0 0 2.363505 0.695148 34.293988 34.293988 0 0 0 8.805213-7.368573l20.993482-20.947139-26.786385-7.044171a30.58653 30.58653 0 0 0-12.559015-1.807385 3.01231 3.01231 0 0 0-2.085445 2.178131 14.412744 14.412744 0 0 0 0.370746 7.414917l-2.085446 0.602462zM511.999977 501.433767a3.522085 3.522085 0 0 0-3.475742 3.522086V532.947162a3.522085 3.522085 0 0 0 6.997827 0v-27.805936a3.522085 3.522085 0 0 0-3.522085-3.707459z m113.86531-124.894998a118.916722 118.916722 0 0 0-227.73062 0 153.535113 153.535113 0 0 0 0 306.514107 118.916722 118.916722 0 0 0 227.73062 0 153.535113 153.535113 0 0 0 0-306.514107z m123.133955 161.598834c0 1.622013 0 3.244026-0.370746 4.634323 0 0.741492 0 1.482983-0.278059 2.224475s-0.324403 2.780594-0.509776 4.170891l-0.417089 2.502534c-0.231716 1.29761-0.417089 2.548878-0.695148 3.846488s-0.370746 1.714699-0.556119 2.548877l-0.834178 3.707458-0.695148 2.595221-0.973208 3.522085-0.834178 2.595221c-0.370746 1.112237-0.741492 2.270818-1.158581 3.383056s-0.648805 1.714699-0.926864 2.595221-0.880521 2.178132-1.343954 3.290369-0.695148 1.668356-1.065894 2.502534-0.926865 2.178132-1.43664 3.244026-0.787835 1.622013-1.158581 2.456191l-1.622013 3.151339c-0.417089 0.787835-0.834178 1.57567-1.29761 2.363505s-1.158581 2.039102-1.761043 3.058653-0.880521 1.57567-1.343954 2.317161-1.29761 1.992759-1.946415 3.01231-0.926865 1.482983-1.43664 2.178132-1.390297 1.992759-2.131789 2.965966l-1.482983 2.085446c-0.741492 1.019551-1.57567 1.992759-2.363505 3.012309s-0.926865 1.251267-1.43664 1.85373-1.992759 2.270818-2.965966 3.383055l-1.065894 1.251267c-1.390297 1.529327-2.780594 2.965967-4.217234 4.402607l-1.7147 1.622013c-0.880521 0.926865-1.807386 1.807386-2.73425 2.641564l-2.085445 1.807386-2.548878 2.224475-2.317161 1.853729-2.502534 1.992758-2.456191 1.761043c-0.834178 0.648805-1.714699 1.251267-2.548878 1.807386l-2.548877 1.714699-2.641564 1.668357-2.687908 1.622013-2.641564 1.529326-2.780593 1.482983-2.687907 1.390297-2.87328 1.390297-2.780594 1.251267-2.965967 1.251267-2.780593 1.112238-3.058653 1.15858-2.826937 0.926865-3.15134 1.019551-2.87328 0.834178-3.244026 0.880521-2.87328 0.648806-3.336712 0.741491-2.826937 0.509776-3.522085 0.602462-2.687908 0.324402a136.758864 136.758864 0 0 1-17.007964 1.112238c-2.73425 0-5.468501 0-8.156408-0.27806a97.876896 97.876896 0 0 1-5.190442 20.900796l-1.390296 3.568428-0.834178 1.85373c-0.278059 0.695148-0.602462 1.390297-0.926865 2.039102s-0.602462 1.251267-0.926865 1.900072l-0.973207 1.946415-0.973208 1.807386c-0.417089 0.787835-0.834178 1.529327-1.29761 2.270818s-1.019551 1.714699-1.57567 2.548878-0.834178 1.390297-1.297611 2.085445l-1.15858 1.668356-1.297611 1.807386c-0.370746 0.556119-0.787835 1.112237-1.204924 1.622013l-1.43664 1.900073-1.15858 1.390296c-0.834178 1.019551-1.668356 1.992759-2.548878 2.965967l-1.204924 1.29761c-0.556119 0.602462-1.112237 1.204924-1.714699 1.761043a18.537291 18.537291 0 0 1-1.343954 1.343954l-1.761042 1.714699-1.343954 1.204924c-0.787835 0.741492-1.622013 1.43664-2.502534 2.178132l-1.297611 1.065894-2.502534 1.992759-1.390297 0.973207c-0.695148 0.556119-1.43664 1.065894-2.131788 1.529327l-1.390297 0.973208-2.456191 1.575669-1.158581 0.695149c-1.158581 0.741492-2.363505 1.390297-3.568428 2.085445l-1.158581 0.602462-2.687907 1.390297-1.390297 0.648805-2.687907 1.204924-1.343954 0.556119c-1.251267 0.556119-2.595221 1.112237-3.892831 1.575669h-0.324402c-1.251267 0.463432-2.548878 0.926865-3.846488 1.297611l-1.343954 0.417089c-0.973208 0.324403-1.946416 0.602462-2.965966 0.834178l-1.390297 0.370746-3.336713 0.787835-1.019551 0.231716-4.30992 0.741491h-1.065894l-3.429399 0.463433h-1.482983l-3.197683 0.231716H505.929014l-3.197683-0.231716h-1.529326l-3.336713-0.417089h-1.112237l-4.30992-0.741492-1.112238-0.278059-3.197682-0.741492-1.529327-0.370746c-0.926865-0.278059-1.900072-0.509776-2.826937-0.834178l-1.43664-0.417089-3.614771-1.204924-0.787835-0.278059-3.614772-1.43664-1.482983-0.648806-2.456191-1.112237-1.57567-0.741492-2.456191-1.251267-1.343954-0.741491-3.522085-1.992759-1.343954-0.880522-2.224475-1.390296-1.529326-1.065895-1.946416-1.390296-1.529326-1.112238-2.085445-1.668356-2.178132-1.761043-1.946416-1.714699-1.529326-1.390297-1.529327-1.482983-1.529326-1.482984-1.43664-1.529326c-0.509776-0.509776-0.973208-1.019551-1.43664-1.57567s-1.482983-1.668356-2.224475-2.502534l-1.668356-2.039102-1.158581-1.482983-1.390297-1.900073c-0.370746-0.463432-0.695148-0.973208-1.065894-1.482983l-1.343954-1.946415-0.926864-1.482984c-0.787835-1.251267-1.57567-2.502534-2.317162-3.800144l-0.787834-1.390297-1.158581-2.178132-0.787835-1.529326c-0.370746-0.741492-0.741492-1.482983-1.065894-2.224475l-0.695149-1.57567c-0.370746-0.741492-0.695148-1.529327-1.019551-2.270818l-0.278059-0.695149a97.969583 97.969583 0 0 1-6.302679-23.681389c-2.687907 0-5.422158 0.278059-8.156408 0.27806a139.771174 139.771174 0 0 1-17.193337-1.112238l-2.456191-0.324403-3.661115-0.648805-2.641564-0.463432-3.522086-0.787835-2.687907-0.602462-3.429399-0.926864-2.687907-0.787835-3.336712-1.065894-2.641564-0.880522-3.244026-1.204924-2.595221-1.019551-3.151339-1.343953-2.548878-1.158581-3.058653-1.482983-2.548877-1.297611-2.919624-1.575669c-0.834178-0.463432-1.668356-0.926865-2.456191-1.43664s-1.946416-1.112237-2.87328-1.7147l-2.409848-1.529326-2.780593-1.853729c-0.787835-0.509776-1.529327-1.065894-2.270818-1.622013l-2.734251-1.946416-2.178132-1.761043-2.59522-2.085445-2.131789-1.853729-2.548877-2.178132c-0.648805-0.648805-1.29761-1.29761-1.992759-1.900072l-2.409848-2.363505-1.622013-1.668356c-1.57567-1.622013-3.104996-3.290369-4.634323-5.051412-0.648805-0.741492-1.29761-1.43664-1.946415-2.224474l-1.946416-2.456192-1.807386-2.085445-1.807385-2.548877c-0.602462-0.834178-1.204924-1.622013-1.761043-2.502535s-1.158581-1.714699-1.7147-2.548877l-1.668356-2.641564c-0.556119-0.880521-1.065894-1.761043-1.575669-2.641564s-1.019551-1.807386-1.57567-2.687907l-1.43664-2.734251-1.43664-2.780593-1.297611-2.780594-1.343953-2.919623c-0.370746-0.926865-0.787835-1.853729-1.158581-2.826937s-0.787835-1.946416-1.158581-2.965967-0.741492-1.900072-1.065894-2.87328l-1.065894-3.058653c-0.324403-0.973208-0.602462-1.946416-0.926865-2.919623s-0.602462-2.085445-0.880521-3.15134-0.556119-1.992759-0.787835-2.965966-0.509776-2.178132-0.741491-3.244026-0.463432-1.992759-0.648806-2.965967-0.417089-2.270818-0.602462-3.383055-0.370746-1.946416-0.509775-2.965967-0.278059-2.363505-0.417089-3.522085-0.278059-1.946416-0.370746-2.919623 0-2.502534-0.278059-3.800145 0-1.807386 0-2.687907v-5.144098-1.43664-1.436641-5.097755-2.73425c0-0.926865 0-2.548878 0.278059-3.800145s0-1.946416 0.370746-2.919623 0-2.363505 0.417089-3.522085 0.324403-1.992759 0.509775-2.965967 0.370746-2.270818 0.602462-3.383055 0.417089-1.946416 0.648806-2.965967 0.463432-2.178132 0.741491-3.244026 0.509776-1.946416 0.787835-2.965966 0.556119-2.085445 0.880521-3.15134 0.602462-1.946416 0.926865-2.919623l1.065894-3.058653c0.324403-0.973208 0.695148-1.946416 1.065894-2.87328s0.741492-1.992759 1.158581-2.965967 0.787835-1.900072 1.158581-2.826937l1.343953-2.919623 1.297611-2.780594 1.43664-2.780593 1.43664-2.734251c0.556119-0.880521 1.065894-1.761043 1.57567-2.687907s1.019551-1.761043 1.575669-2.641564l1.668356-2.595221c0.556119-0.880521 1.112237-1.761043 1.7147-2.59522l1.761043-2.502535c0.602462-0.834178 1.204924-1.714699 1.807385-2.502534l1.900073-2.409848 1.946415-2.456191 1.946416-2.224475c1.482983-1.714699 3.01231-3.383056 4.634323-5.051412l1.622013-1.668356c0.787835-0.787835 1.57567-1.57567 2.409847-2.317161l1.992759-1.946416 2.548878-2.178131 2.131788-1.85373 2.595221-2.085445 2.178132-1.714699c0.880521-0.695148 1.807386-1.343954 2.73425-1.992759s1.482983-1.112237 2.270818-1.622013l2.780594-1.853729 2.409848-1.529327c0.926865-0.602462 1.900072-1.158581 2.87328-1.714699l2.456191-1.43664 2.919623-1.57567 2.548878-1.29761 3.058653-1.43664 2.548877-1.204924 3.15134-1.343954 2.59522-1.019551 3.244026-1.204924 2.641564-0.880521 3.336713-1.065894 2.687907-0.787835 3.429399-0.926865 2.687907-0.602461 3.522085-0.787835 2.641564-0.463433 3.661115-0.648805 2.456191-0.278059a131.151334 131.151334 0 0 1 17.193337-1.158581c2.780594 0 5.468501 0 8.202752 0.27806a97.320778 97.320778 0 0 1 5.978276-23.171614l0.556119-1.390297 0.973208-2.224475c0-0.556119 0.509776-1.112237 0.741491-1.622013s0.695148-1.43664 1.019551-2.178132l0.880522-1.622013c0.324403-0.695148 0.695148-1.390297 1.065894-2.085445l0.973208-1.622013q0.973208-1.807386 2.085445-3.475742c0.370746-0.556119 0.695148-1.112237 1.065894-1.622013s0.834178-1.29761 1.29761-1.900072l1.112238-1.57567 1.343953-1.807386 1.251268-1.575669c0.417089-0.556119 0.880521-1.158581 1.343953-1.668357s1.622013-1.946416 2.456191-2.87328l1.390297-1.482983 1.482983-1.57567 1.482984-1.482983 1.622013-1.482983 1.43664-1.390297 2.178131-1.853729 1.853729-1.529327 2.224475-1.761042 1.482984-1.112238 1.992758-1.390297 1.529327-1.019551 2.270818-1.482983 1.29761-0.834178 3.522086-1.992759 1.29761-0.695148 2.502534-1.297611 1.529327-0.741491 2.548877-1.112238 1.43664-0.648805 3.661115-1.43664h0.695149c1.204924-0.463432 2.409848-0.880521 3.661115-1.251267l1.43664-0.417089 2.826937-0.834178 1.529326-0.370746 3.197683-0.741492h1.112237c1.43664-0.324403 2.87328-0.556119 4.30992-0.787835h1.112238l3.336712-0.417089H522.751606l3.429398 0.463433h1.019551c1.482983 0 2.919623 0.463432 4.356264 0.787835h1.019551l3.336712 0.787834 1.390297 0.370746 3.01231 0.834178 1.29761 0.417089 3.939174 1.297611c1.343954 0.463432 2.687907 1.019551 3.985518 1.57567l1.29761 0.556118 2.687908 1.204924 1.390296 0.648805c0.926865 0.463432 1.853729 0.926865 2.734251 1.43664l1.112237 0.556119c1.204924 0.695148 2.409848 1.343954 3.568429 2.085445l1.065894 0.648806c0.880521 0.556119 1.714699 1.065894 2.548878 1.668356l1.343953 0.880521 2.224475 1.57567 1.29761 0.973208 2.641564 2.085445 1.065895 0.834178c0.880521 0.787835 1.807386 1.529327 2.687907 2.363504l1.251267 1.158581 1.853729 1.761043 1.29761 1.251267 1.761043 1.853729 1.158581 1.251267c0.834178 0.973208 1.714699 1.946416 2.548877 2.965967a15.061549 15.061549 0 0 1 1.065895 1.343953l1.575669 1.946416c0.370746 0.556119 0.787835 1.065894 1.158581 1.57567l1.343954 1.900072 1.112237 1.622013 1.390297 2.178132 1.390297 2.270818c0.463432 0.834178 0.973208 1.622013 1.390296 2.456191s0.648805 1.158581 0.926865 1.761042 0.741492 1.343954 1.065894 2.039102 0.602462 1.204924 0.880522 1.85373l0.973207 2.085445c0.231716 0.602462 0.509776 1.204924 0.787835 1.807386l1.390297 3.568428a97.876896 97.876896 0 0 1 5.190442 20.900796c2.687907 0 5.422158-0.278059 8.156408-0.27806a136.758864 136.758864 0 0 1 17.007964 1.112238l2.687907 0.324402 3.522085 0.602462 2.826937 0.509776 3.336713 0.741492 2.87328 0.695148 3.244026 0.880521 2.87328 0.787835 3.151339 1.019551c0.926865 0.324403 1.900072 0.602462 2.826937 0.973208s2.039102 0.741492 3.058653 1.112237l2.780594 1.112238 2.965966 1.29761 2.780594 1.204924 2.87328 1.390297 2.687907 1.390297c0.926865 0.509776 1.853729 0.973208 2.780594 1.529326s1.761043 0.973208 2.641564 1.482984l2.687907 1.622012 2.641564 1.668357 2.548878 1.714699 2.548877 1.807386 2.456191 1.761043 2.502534 1.992758 2.317162 1.853729 2.548877 2.224475 2.085446 1.807386c0.926865 0.834178 1.853729 1.761043 2.73425 2.641564l1.714699 1.622013c1.43664 1.43664 2.826937 2.919623 4.217234 4.634323l1.065894 1.251267 2.965967 3.429399 1.43664 1.807386c0.787835 1.019551 1.622013 1.992759 2.363505 3.01231l1.482983 2.085445c0.741492 0.973208 1.43664 1.946416 2.131788 2.965966l1.43664 2.178132c0.648805 1.019551 1.343954 1.992759 1.946416 3.01231s0.880521 1.529327 1.343954 2.317161 1.204924 2.039102 1.761042 3.058653 0.880521 1.57567 1.297611 2.409848l1.622012 3.104996c0.370746 0.834178 0.787835 1.668356 1.158581 2.456191s0.973208 2.178132 1.43664 3.244026 0.741492 1.668356 1.065894 2.502535l1.343954 3.336712c0.278059 0.834178 0.602462 1.668356 0.926865 2.548877s0.787835 2.270818 1.15858 3.429399l0.834178 2.595221 0.973208 3.522085 0.695149 2.548878c0.278059 1.251267 0.602462 2.456191 0.834178 3.707458s0.417089 1.668356 0.556118 2.548878 0.463432 2.595221 0.695149 3.846487l0.417089 2.502535c0 1.390297 0.370746 2.780594 0.509775 4.17089s0.231716 1.482983 0.27806 2.270818c0 1.57567 0.278059 3.197683 0.370746 4.634323V536.561934z m-236.999265-72.388121a7.739319 7.739319 0 1 0 0-15.432295 7.739319 7.739319 0 0 0 0 15.432295z m31.467051-26.879072h-18.537291v42.728456h-6.395365a10.427226 10.427226 0 0 0-6.441709-2.224475 10.566256 10.566256 0 0 0-6.488052 2.224475h-6.117306V438.87041h-18.537291v130.363499H472.70092V588.559035h78.273711v-19.09341h-7.692976z m-18.537291 130.363499h-25.442432v-12.234612h25.442432z m0-20.576393h-25.442432v-59.226645h7.183201a5.422158 5.422158 0 0 1 5.422157-4.634322 5.514844 5.514844 0 0 1 5.422158 4.634322h7.414916z m18.537291-137.12961h-15.524981v-12.327298H523.67847v-7.878349h4.124547V384.185402H523.67847v-1.112238a11.354091 11.354091 0 0 0-9.732078-11.261404V352.208575h-3.383055v19.834901a11.354091 11.354091 0 0 0-9.732078 11.261405v1.112237h-4.124547v7.136857h3.800144v7.878349h-4.30992v12.095582h-15.571324v11.63215h-7.646633v7.46126h77.902966v-7.46126h-7.692976z m-34.803764 0h-4.634322v-12.327298h4.634322z m11.493121 0h-4.634323v-12.327298h4.634323z m96.996375-2.87328h-17.37871a87.635043 87.635043 0 0 0-175.1774 0h-17.564083a121.141197 121.141197 0 1 0 0 242.282393h17.37871a87.635043 87.635043 0 0 0 175.1774 0h17.37871a121.141197 121.141197 0 1 0 0-242.282393zM407.820402 568.863163a52.182474 52.182474 0 0 0-25.303403-12.049239h48.845762a29.103547 29.103547 0 0 0-23.542359 12.049239z m5.978276 5.792904a20.808109 20.808109 0 0 1 38.464879 11.076031v23.635046h-26.322954v-1.112237a52.182474 52.182474 0 0 0-12.141925-33.59884z m38.464879 42.867485v50.097029h-11.215061v-32.440259a27.481534 27.481534 0 0 0-6.534395-17.7958z m59.73642 110.899343a79.803038 79.803038 0 0 1-75.029685-52.645906h150.105713a79.895724 79.895724 0 0 1-75.076028 52.784936zM491.238211 667.759611v-41.245473a21.549601 21.549601 0 0 1 42.172337-2.363504v43.608977z m91.805934-32.44026v32.44026h-11.585807v-50.097029h18.120202a27.481534 27.481534 0 0 0-6.627082 17.795799z m15.061548-27.064444v1.112237h-26.647355v-23.635046a20.854452 20.854452 0 0 1 38.650251-10.844315 51.997101 51.997101 0 0 0-12.280955 33.506153z m17.842143-39.345401a29.057204 29.057204 0 0 0-23.54236-12.234612h48.984792a52.182474 52.182474 0 0 0-25.535118 12.373642z m93.520633-81.100648a60.570598 60.570598 0 0 0-58.624183 45.138304h-104.596664v8.202751h103.020995a64.18537 64.18537 0 0 0-0.463433 7.368573h-102.557562v8.156408h45.926138a29.01086 29.01086 0 0 0-28.964517 29.057204v81.888483h-11.307747v-70.580735h6.951484v-5.514845h-25.535119v19.464156a28.315712 28.315712 0 0 0-13.439536-8.527154v-6.209992h2.965967v-4.634323h-21.734974v4.634323h2.919624v6.534395A28.315712 28.315712 0 0 0 491.238211 611.730649v-20.020275h-25.952207v5.422158h7.04417v70.719765h-11.863866v-81.981169a29.057204 29.057204 0 0 0-28.964517-29.057204h46.343227v-8.156408H375.380142a64.18537 64.18537 0 0 0-0.463432-7.368573h102.974651V532.947162h-104.735694a60.616941 60.616941 0 0 0-58.577839-44.999274 62.007238 62.007238 0 0 0-12.141926 1.204924A112.382327 112.382327 0 0 1 406.986223 417.552526h25.164373v-6.673425a79.849381 79.849381 0 1 1 159.652418 0v6.673425h25.164373a112.28964 112.28964 0 0 1 104.550321 71.600286 61.775522 61.775522 0 0 0-12.141925-1.204924zM505.141179 686.899364h-14.3664l-3.429399 10.427226h11.585807l-0.509776 4.124547h-12.744387l-1.529327 4.634323h19.325126z m-5.561187 6.858797h-6.534395l0.926864-3.475742h6.256336z m47.084719 7.368573l2.409848 5.097755 7.136857-0.324402-2.780594-4.634323h3.290369l-2.780593-4.634323h-3.985518l-4.634323-9.593048h-4.958725l-5.051412 9.268646 1.807386 5.144098z m-4.124547-9.268645l1.946415 4.30992h-4.124547z m-59.551048-5.144098H477.335243l-8.75887 19.325125h7.785662z m28.269369 19.325125h19.649529l-1.297611-4.958725h-7.739319l6.117306-5.422157-2.039102-8.944243h-14.551773v7.461259h5.60753l-0.463432-2.965966h5.283128l0.324403 3.290369-10.566256 6.441708z" fill="#00561F" p-id="3984"></path></svg>