<?xml version="1.0" encoding="utf-8" standalone="no"?>
<!DOCTYPE svg PUBLIC "-//W3C//DTD SVG 1.1//EN"
  "http://www.w3.org/Graphics/SVG/1.1/DTD/svg11.dtd">
<svg xmlns:xlink="http://www.w3.org/1999/xlink" width="864pt" height="302.4pt" viewBox="0 0 864 302.4" xmlns="http://www.w3.org/2000/svg" version="1.1">
 <metadata>
  <rdf:RDF xmlns:dc="http://purl.org/dc/elements/1.1/" xmlns:cc="http://creativecommons.org/ns#" xmlns:rdf="http://www.w3.org/1999/02/22-rdf-syntax-ns#">
   <cc:Work>
    <dc:type rdf:resource="http://purl.org/dc/dcmitype/StillImage"/>
    <dc:date>2025-08-04T18:04:53.983341</dc:date>
    <dc:format>image/svg+xml</dc:format>
    <dc:creator>
     <cc:Agent>
      <dc:title>Matplotlib v3.10.3, https://matplotlib.org/</dc:title>
     </cc:Agent>
    </dc:creator>
   </cc:Work>
  </rdf:RDF>
 </metadata>
 <defs>
  <style type="text/css">*{stroke-linejoin: round; stroke-linecap: butt}</style>
 </defs>
 <g id="figure_1">
  <g id="patch_1">
   <path d="M 0 302.4 
L 864 302.4 
L 864 0 
L 0 0 
z
" style="fill: #ffffff"/>
  </g>
  <g id="axes_1">
   <g id="patch_2">
    <path d="M 35.72 257.04 
L 425.52 257.04 
L 425.52 30.24 
L 35.72 30.24 
z
" style="fill: #ffffff"/>
   </g>
   <g id="patch_3">
    <path d="M 232.610992 154.800435 
Q 251.084206 153.134356 266.216876 151.769557 
" clip-path="url(#p5c3100df25)" style="fill: none; opacity: 0.9; stroke: #e74c3c; stroke-width: 3; stroke-linecap: round"/>
    <path d="M 257.889918 148.504321 
L 266.216876 151.769557 
L 258.608513 156.471982 
" clip-path="url(#p5c3100df25)" style="fill: none; opacity: 0.9; stroke: #e74c3c; stroke-width: 3; stroke-linecap: round"/>
   </g>
   <g id="patch_4">
    <path d="M 232.151269 153.691034 
Q 240.560639 146.612337 246.403986 141.693622 
" clip-path="url(#p5c3100df25)" style="fill: none; opacity: 0.9; stroke: #27ae60; stroke-width: 3; stroke-linecap: round"/>
    <path d="M 237.707735 143.785322 
L 246.403986 141.693622 
L 242.859596 149.905643 
" clip-path="url(#p5c3100df25)" style="fill: none; opacity: 0.9; stroke: #27ae60; stroke-width: 3; stroke-linecap: round"/>
   </g>
   <g id="matplotlib.axis_1">
    <g id="xtick_1">
     <g id="line2d_1">
      <path d="M 35.72 257.04 
L 35.72 30.24 
" clip-path="url(#p5c3100df25)" style="fill: none; stroke: #b0b0b0; stroke-opacity: 0.3; stroke-width: 0.8; stroke-linecap: square"/>
     </g>
     <g id="line2d_2">
      <defs>
       <path id="m2380651cfb" d="M 0 0 
L 0 3.5 
" style="stroke: #000000; stroke-width: 0.8"/>
      </defs>
      <g>
       <use xlink:href="#m2380651cfb" x="35.72" y="257.04" style="stroke: #000000; stroke-width: 0.8"/>
      </g>
     </g>
    </g>
    <g id="xtick_2">
     <g id="line2d_3">
      <path d="M 113.68 257.04 
L 113.68 30.24 
" clip-path="url(#p5c3100df25)" style="fill: none; stroke: #b0b0b0; stroke-opacity: 0.3; stroke-width: 0.8; stroke-linecap: square"/>
     </g>
     <g id="line2d_4">
      <g>
       <use xlink:href="#m2380651cfb" x="113.68" y="257.04" style="stroke: #000000; stroke-width: 0.8"/>
      </g>
     </g>
    </g>
    <g id="xtick_3">
     <g id="line2d_5">
      <path d="M 191.64 257.04 
L 191.64 30.24 
" clip-path="url(#p5c3100df25)" style="fill: none; stroke: #b0b0b0; stroke-opacity: 0.3; stroke-width: 0.8; stroke-linecap: square"/>
     </g>
     <g id="line2d_6">
      <g>
       <use xlink:href="#m2380651cfb" x="191.64" y="257.04" style="stroke: #000000; stroke-width: 0.8"/>
      </g>
     </g>
    </g>
    <g id="xtick_4">
     <g id="line2d_7">
      <path d="M 269.6 257.04 
L 269.6 30.24 
" clip-path="url(#p5c3100df25)" style="fill: none; stroke: #b0b0b0; stroke-opacity: 0.3; stroke-width: 0.8; stroke-linecap: square"/>
     </g>
     <g id="line2d_8">
      <g>
       <use xlink:href="#m2380651cfb" x="269.6" y="257.04" style="stroke: #000000; stroke-width: 0.8"/>
      </g>
     </g>
    </g>
    <g id="xtick_5">
     <g id="line2d_9">
      <path d="M 347.56 257.04 
L 347.56 30.24 
" clip-path="url(#p5c3100df25)" style="fill: none; stroke: #b0b0b0; stroke-opacity: 0.3; stroke-width: 0.8; stroke-linecap: square"/>
     </g>
     <g id="line2d_10">
      <g>
       <use xlink:href="#m2380651cfb" x="347.56" y="257.04" style="stroke: #000000; stroke-width: 0.8"/>
      </g>
     </g>
    </g>
    <g id="xtick_6">
     <g id="line2d_11">
      <path d="M 425.52 257.04 
L 425.52 30.24 
" clip-path="url(#p5c3100df25)" style="fill: none; stroke: #b0b0b0; stroke-opacity: 0.3; stroke-width: 0.8; stroke-linecap: square"/>
     </g>
     <g id="line2d_12">
      <g>
       <use xlink:href="#m2380651cfb" x="425.52" y="257.04" style="stroke: #000000; stroke-width: 0.8"/>
      </g>
     </g>
    </g>
    <g id="text_1">
     <!-- Steps -->
     <g transform="translate(212.125 268.426125) scale(0.12 -0.12)">
      <defs>
       <path id="DejaVuSerif-Bold-53" d="M 494 225 
L 494 1331 
L 891 1331 
Q 981 806 1318 547 
Q 1656 288 2253 288 
Q 2738 288 2991 472 
Q 3244 656 3244 1013 
Q 3244 1294 3072 1450 
Q 2900 1606 2363 1741 
L 1663 1913 
Q 978 2088 700 2398 
Q 422 2709 422 3284 
Q 422 3978 883 4364 
Q 1344 4750 2175 4750 
Q 2584 4750 3026 4681 
Q 3469 4613 3944 4475 
L 3944 3444 
L 3547 3444 
Q 3456 3925 3150 4148 
Q 2844 4372 2278 4372 
Q 1816 4372 1580 4211 
Q 1344 4050 1344 3731 
Q 1344 3441 1506 3289 
Q 1669 3138 2303 2975 
L 3003 2803 
Q 3653 2641 3945 2297 
Q 4238 1953 4238 1350 
Q 4238 644 3750 276 
Q 3263 -91 2316 -91 
Q 1859 -91 1409 -12 
Q 959 66 494 225 
z
" transform="scale(0.015625)"/>
       <path id="DejaVuSerif-Bold-74" d="M 634 2944 
L 153 2944 
L 153 3322 
L 634 3322 
L 634 4353 
L 1741 4353 
L 1741 3322 
L 2663 3322 
L 2663 2944 
L 1741 2944 
L 1741 909 
Q 1741 475 1809 369 
Q 1878 263 2059 263 
Q 2259 263 2356 397 
Q 2453 531 2459 813 
L 2925 813 
Q 2897 313 2651 111 
Q 2406 -91 1806 -91 
Q 1122 -91 878 123 
Q 634 338 634 909 
L 634 2944 
z
" transform="scale(0.015625)"/>
       <path id="DejaVuSerif-Bold-65" d="M 2566 1875 
Q 2566 2531 2444 2795 
Q 2322 3059 2028 3059 
Q 1744 3059 1620 2800 
Q 1497 2541 1497 1931 
L 1497 1875 
L 2566 1875 
z
M 3781 1503 
L 1497 1503 
L 1497 1478 
Q 1497 834 1690 548 
Q 1884 263 2316 263 
Q 2675 263 2897 453 
Q 3119 644 3181 1006 
L 3700 1006 
Q 3566 441 3166 175 
Q 2766 -91 2047 -91 
Q 1184 -91 723 364 
Q 263 819 263 1663 
Q 263 2488 734 2950 
Q 1206 3413 2047 3413 
Q 2872 3413 3312 2927 
Q 3753 2441 3781 1503 
z
" transform="scale(0.015625)"/>
       <path id="DejaVuSerif-Bold-70" d="M 1728 1825 
L 1728 1497 
Q 1728 916 1876 656 
Q 2025 397 2356 397 
Q 2697 397 2836 672 
Q 2975 947 2975 1663 
Q 2975 2378 2836 2651 
Q 2697 2925 2356 2925 
Q 2025 2925 1876 2665 
Q 1728 2406 1728 1825 
z
M 622 2944 
L 147 2944 
L 147 3322 
L 1728 3322 
L 1728 2900 
Q 1869 3159 2106 3286 
Q 2344 3413 2694 3413 
Q 3403 3413 3811 2945 
Q 4219 2478 4219 1663 
Q 4219 847 3811 378 
Q 3403 -91 2694 -91 
Q 2344 -91 2106 36 
Q 1869 163 1728 422 
L 1728 -953 
L 2241 -953 
L 2241 -1331 
L 147 -1331 
L 147 -953 
L 622 -953 
L 622 2944 
z
" transform="scale(0.015625)"/>
       <path id="DejaVuSerif-Bold-73" d="M 300 97 
L 300 1025 
L 653 1025 
Q 697 653 931 458 
Q 1166 263 1569 263 
Q 1906 263 2086 380 
Q 2266 497 2266 716 
Q 2266 916 2152 1025 
Q 2038 1134 1709 1216 
L 1253 1331 
Q 738 1459 506 1698 
Q 275 1938 275 2344 
Q 275 2884 650 3148 
Q 1025 3413 1806 3413 
Q 2100 3413 2433 3364 
Q 2766 3316 3169 3213 
L 3169 2375 
L 2816 2375 
Q 2788 2716 2573 2887 
Q 2359 3059 1959 3059 
Q 1622 3059 1448 2951 
Q 1275 2844 1275 2638 
Q 1275 2469 1375 2372 
Q 1475 2275 1734 2209 
L 2188 2094 
Q 2841 1928 3091 1684 
Q 3341 1441 3341 1006 
Q 3341 444 2939 176 
Q 2538 -91 1691 -91 
Q 1381 -91 1034 -44 
Q 688 3 300 97 
z
" transform="scale(0.015625)"/>
      </defs>
      <use xlink:href="#DejaVuSerif-Bold-53"/>
      <use xlink:href="#DejaVuSerif-Bold-74" transform="translate(72.216797 0)"/>
      <use xlink:href="#DejaVuSerif-Bold-65" transform="translate(118.408203 0)"/>
      <use xlink:href="#DejaVuSerif-Bold-70" transform="translate(182.03125 0)"/>
      <use xlink:href="#DejaVuSerif-Bold-73" transform="translate(251.953125 0)"/>
     </g>
    </g>
   </g>
   <g id="matplotlib.axis_2">
    <g id="ytick_1">
     <g id="line2d_13">
      <path d="M 35.72 257.04 
L 425.52 257.04 
" clip-path="url(#p5c3100df25)" style="fill: none; stroke: #b0b0b0; stroke-opacity: 0.3; stroke-width: 0.8; stroke-linecap: square"/>
     </g>
     <g id="line2d_14">
      <defs>
       <path id="md000090cc8" d="M 0 0 
L -3.5 0 
" style="stroke: #000000; stroke-width: 0.8"/>
      </defs>
      <g>
       <use xlink:href="#md000090cc8" x="35.72" y="257.04" style="stroke: #000000; stroke-width: 0.8"/>
      </g>
     </g>
    </g>
    <g id="ytick_2">
     <g id="line2d_15">
      <path d="M 35.72 219.24 
L 425.52 219.24 
" clip-path="url(#p5c3100df25)" style="fill: none; stroke: #b0b0b0; stroke-opacity: 0.3; stroke-width: 0.8; stroke-linecap: square"/>
     </g>
     <g id="line2d_16">
      <g>
       <use xlink:href="#md000090cc8" x="35.72" y="219.24" style="stroke: #000000; stroke-width: 0.8"/>
      </g>
     </g>
    </g>
    <g id="ytick_3">
     <g id="line2d_17">
      <path d="M 35.72 181.44 
L 425.52 181.44 
" clip-path="url(#p5c3100df25)" style="fill: none; stroke: #b0b0b0; stroke-opacity: 0.3; stroke-width: 0.8; stroke-linecap: square"/>
     </g>
     <g id="line2d_18">
      <g>
       <use xlink:href="#md000090cc8" x="35.72" y="181.44" style="stroke: #000000; stroke-width: 0.8"/>
      </g>
     </g>
    </g>
    <g id="ytick_4">
     <g id="line2d_19">
      <path d="M 35.72 143.64 
L 425.52 143.64 
" clip-path="url(#p5c3100df25)" style="fill: none; stroke: #b0b0b0; stroke-opacity: 0.3; stroke-width: 0.8; stroke-linecap: square"/>
     </g>
     <g id="line2d_20">
      <g>
       <use xlink:href="#md000090cc8" x="35.72" y="143.64" style="stroke: #000000; stroke-width: 0.8"/>
      </g>
     </g>
    </g>
    <g id="ytick_5">
     <g id="line2d_21">
      <path d="M 35.72 105.84 
L 425.52 105.84 
" clip-path="url(#p5c3100df25)" style="fill: none; stroke: #b0b0b0; stroke-opacity: 0.3; stroke-width: 0.8; stroke-linecap: square"/>
     </g>
     <g id="line2d_22">
      <g>
       <use xlink:href="#md000090cc8" x="35.72" y="105.84" style="stroke: #000000; stroke-width: 0.8"/>
      </g>
     </g>
    </g>
    <g id="ytick_6">
     <g id="line2d_23">
      <path d="M 35.72 68.04 
L 425.52 68.04 
" clip-path="url(#p5c3100df25)" style="fill: none; stroke: #b0b0b0; stroke-opacity: 0.3; stroke-width: 0.8; stroke-linecap: square"/>
     </g>
     <g id="line2d_24">
      <g>
       <use xlink:href="#md000090cc8" x="35.72" y="68.04" style="stroke: #000000; stroke-width: 0.8"/>
      </g>
     </g>
    </g>
    <g id="ytick_7">
     <g id="line2d_25">
      <path d="M 35.72 30.24 
L 425.52 30.24 
" clip-path="url(#p5c3100df25)" style="fill: none; stroke: #b0b0b0; stroke-opacity: 0.3; stroke-width: 0.8; stroke-linecap: square"/>
     </g>
     <g id="line2d_26">
      <g>
       <use xlink:href="#md000090cc8" x="35.72" y="30.24" style="stroke: #000000; stroke-width: 0.8"/>
      </g>
     </g>
    </g>
    <g id="text_2">
     <!-- Optimization -->
     <g transform="translate(22.224375 187.449375) rotate(-90) scale(0.12 -0.12)">
      <defs>
       <path id="DejaVuSerif-Bold-4f" d="M 2784 288 
Q 3381 288 3672 791 
Q 3963 1294 3963 2328 
Q 3963 3366 3672 3869 
Q 3381 4372 2784 4372 
Q 2191 4372 1898 3864 
Q 1606 3356 1606 2328 
Q 1606 1303 1898 795 
Q 2191 288 2784 288 
z
M 2784 -91 
Q 1606 -91 937 553 
Q 269 1197 269 2328 
Q 269 3459 939 4104 
Q 1609 4750 2784 4750 
Q 3963 4750 4631 4106 
Q 5300 3463 5300 2328 
Q 5300 1197 4629 553 
Q 3959 -91 2784 -91 
z
" transform="scale(0.015625)"/>
       <path id="DejaVuSerif-Bold-69" d="M 588 4263 
Q 588 4516 763 4689 
Q 938 4863 1191 4863 
Q 1438 4863 1611 4689 
Q 1784 4516 1784 4263 
Q 1784 4016 1611 3842 
Q 1438 3669 1191 3669 
Q 938 3669 763 3841 
Q 588 4013 588 4263 
z
M 1797 378 
L 2272 378 
L 2272 0 
L 219 0 
L 219 378 
L 691 378 
L 691 2944 
L 219 2944 
L 219 3322 
L 1797 3322 
L 1797 378 
z
" transform="scale(0.015625)"/>
       <path id="DejaVuSerif-Bold-6d" d="M 3884 2778 
Q 4116 3109 4384 3261 
Q 4653 3413 5013 3413 
Q 5584 3413 5867 3089 
Q 6150 2766 6150 2113 
L 6150 378 
L 6625 378 
L 6625 0 
L 4647 0 
L 4647 378 
L 5044 378 
L 5044 1947 
Q 5044 2569 4948 2731 
Q 4853 2894 4594 2894 
Q 4300 2894 4137 2667 
Q 3975 2441 3975 2022 
L 3975 378 
L 4372 378 
L 4372 0 
L 2472 0 
L 2472 378 
L 2869 378 
L 2869 1947 
Q 2869 2569 2772 2731 
Q 2675 2894 2419 2894 
Q 2122 2894 1959 2667 
Q 1797 2441 1797 2022 
L 1797 378 
L 2194 378 
L 2194 0 
L 219 0 
L 219 378 
L 691 378 
L 691 2944 
L 219 2944 
L 219 3322 
L 1797 3322 
L 1797 2853 
Q 1991 3144 2241 3278 
Q 2491 3413 2834 3413 
Q 3241 3413 3494 3258 
Q 3747 3103 3884 2778 
z
" transform="scale(0.015625)"/>
       <path id="DejaVuSerif-Bold-7a" d="M 225 0 
L 225 378 
L 2131 2956 
L 697 2956 
L 697 2388 
L 325 2388 
L 325 3322 
L 3419 3322 
L 3419 2950 
L 1509 372 
L 3047 372 
L 3047 972 
L 3419 972 
L 3419 0 
L 225 0 
z
" transform="scale(0.015625)"/>
       <path id="DejaVuSerif-Bold-61" d="M 3525 2041 
L 3525 378 
L 4000 378 
L 4000 0 
L 2419 0 
L 2419 422 
Q 2200 159 1931 34 
Q 1663 -91 1319 -91 
Q 809 -91 536 182 
Q 263 456 263 966 
Q 263 1525 655 1803 
Q 1047 2081 1838 2081 
L 2419 2081 
L 2419 2278 
Q 2419 2681 2228 2873 
Q 2038 3066 1638 3066 
Q 1306 3066 1126 2930 
Q 947 2794 872 2484 
L 519 2484 
L 519 3200 
Q 816 3306 1134 3359 
Q 1453 3413 1806 3413 
Q 2697 3413 3111 3081 
Q 3525 2750 3525 2041 
z
M 2419 1044 
L 2419 1709 
L 2003 1709 
Q 1694 1709 1528 1540 
Q 1363 1372 1363 1056 
Q 1363 741 1483 584 
Q 1603 428 1850 428 
Q 2106 428 2262 597 
Q 2419 766 2419 1044 
z
" transform="scale(0.015625)"/>
       <path id="DejaVuSerif-Bold-6f" d="M 2138 263 
Q 2488 263 2630 563 
Q 2772 863 2772 1663 
Q 2772 2463 2631 2761 
Q 2491 3059 2138 3059 
Q 1784 3059 1640 2757 
Q 1497 2456 1497 1663 
Q 1497 869 1640 566 
Q 1784 263 2138 263 
z
M 2138 -91 
Q 1259 -91 761 376 
Q 263 844 263 1663 
Q 263 2484 761 2948 
Q 1259 3413 2138 3413 
Q 3019 3413 3516 2948 
Q 4013 2484 4013 1663 
Q 4013 844 3514 376 
Q 3016 -91 2138 -91 
z
" transform="scale(0.015625)"/>
       <path id="DejaVuSerif-Bold-6e" d="M 219 0 
L 219 378 
L 691 378 
L 691 2944 
L 219 2944 
L 219 3322 
L 1797 3322 
L 1797 2853 
Q 1997 3150 2253 3281 
Q 2509 3413 2900 3413 
Q 3459 3413 3745 3083 
Q 4031 2753 4031 2113 
L 4031 378 
L 4506 378 
L 4506 0 
L 2522 0 
L 2522 378 
L 2925 378 
L 2925 2144 
Q 2925 2566 2817 2730 
Q 2709 2894 2444 2894 
Q 2109 2894 1953 2648 
Q 1797 2403 1797 1869 
L 1797 378 
L 2203 378 
L 2203 0 
L 219 0 
z
" transform="scale(0.015625)"/>
      </defs>
      <use xlink:href="#DejaVuSerif-Bold-4f"/>
      <use xlink:href="#DejaVuSerif-Bold-70" transform="translate(87.109375 0)"/>
      <use xlink:href="#DejaVuSerif-Bold-74" transform="translate(157.03125 0)"/>
      <use xlink:href="#DejaVuSerif-Bold-69" transform="translate(203.222656 0)"/>
      <use xlink:href="#DejaVuSerif-Bold-6d" transform="translate(241.210938 0)"/>
      <use xlink:href="#DejaVuSerif-Bold-69" transform="translate(347.021484 0)"/>
      <use xlink:href="#DejaVuSerif-Bold-7a" transform="translate(385.009766 0)"/>
      <use xlink:href="#DejaVuSerif-Bold-61" transform="translate(441.796875 0)"/>
      <use xlink:href="#DejaVuSerif-Bold-74" transform="translate(506.591797 0)"/>
      <use xlink:href="#DejaVuSerif-Bold-69" transform="translate(552.783203 0)"/>
      <use xlink:href="#DejaVuSerif-Bold-6f" transform="translate(590.771484 0)"/>
      <use xlink:href="#DejaVuSerif-Bold-6e" transform="translate(657.470703 0)"/>
     </g>
    </g>
   </g>
   <g id="line2d_27">
    <path d="M 74.7 234.36 
L 386.54 46.116 
" clip-path="url(#p5c3100df25)" style="fill: none; stroke-dasharray: 11.1,4.8; stroke-dashoffset: 0; stroke: #f39c12; stroke-opacity: 0.6; stroke-width: 3"/>
   </g>
   <g id="line2d_28">
    <path d="M 74.7 234.36 
L 113.68 223.02 
L 152.66 184.464 
L 191.64 193.536 
L 230.62 154.98 
L 269.6 161.784 
L 308.58 125.496 
L 386.54 102.816 
" clip-path="url(#p5c3100df25)" style="fill: none; stroke: #7f8c8d; stroke-opacity: 0.9; stroke-width: 4; stroke-linecap: square"/>
    <defs>
     <path id="mb24f5da503" d="M 0 4 
C 1.060812 4 2.078319 3.578535 2.828427 2.828427 
C 3.578535 2.078319 4 1.060812 4 0 
C 4 -1.060812 3.578535 -2.078319 2.828427 -2.828427 
C 2.078319 -3.578535 1.060812 -4 0 -4 
C -1.060812 -4 -2.078319 -3.578535 -2.828427 -2.828427 
C -3.578535 -2.078319 -4 -1.060812 -4 0 
C -4 1.060812 -3.578535 2.078319 -2.828427 2.828427 
C -2.078319 3.578535 -1.060812 4 0 4 
z
" style="stroke: #7f8c8d; stroke-opacity: 0.9"/>
    </defs>
    <g clip-path="url(#p5c3100df25)">
     <use xlink:href="#mb24f5da503" x="74.7" y="234.36" style="fill: #7f8c8d; fill-opacity: 0.9; stroke: #7f8c8d; stroke-opacity: 0.9"/>
     <use xlink:href="#mb24f5da503" x="113.68" y="223.02" style="fill: #7f8c8d; fill-opacity: 0.9; stroke: #7f8c8d; stroke-opacity: 0.9"/>
     <use xlink:href="#mb24f5da503" x="152.66" y="184.464" style="fill: #7f8c8d; fill-opacity: 0.9; stroke: #7f8c8d; stroke-opacity: 0.9"/>
     <use xlink:href="#mb24f5da503" x="191.64" y="193.536" style="fill: #7f8c8d; fill-opacity: 0.9; stroke: #7f8c8d; stroke-opacity: 0.9"/>
     <use xlink:href="#mb24f5da503" x="230.62" y="154.98" style="fill: #7f8c8d; fill-opacity: 0.9; stroke: #7f8c8d; stroke-opacity: 0.9"/>
     <use xlink:href="#mb24f5da503" x="269.6" y="161.784" style="fill: #7f8c8d; fill-opacity: 0.9; stroke: #7f8c8d; stroke-opacity: 0.9"/>
     <use xlink:href="#mb24f5da503" x="308.58" y="125.496" style="fill: #7f8c8d; fill-opacity: 0.9; stroke: #7f8c8d; stroke-opacity: 0.9"/>
     <use xlink:href="#mb24f5da503" x="386.54" y="102.816" style="fill: #7f8c8d; fill-opacity: 0.9; stroke: #7f8c8d; stroke-opacity: 0.9"/>
    </g>
   </g>
   <g id="line2d_29">
    <path d="M 386.54 102.816 
L 386.54 46.116 
" clip-path="url(#p5c3100df25)" style="fill: none; stroke-dasharray: 3,4.95; stroke-dashoffset: 0; stroke: #ff0000; stroke-opacity: 0.8; stroke-width: 3"/>
   </g>
   <g id="patch_5">
    <path d="M 35.72 257.04 
L 35.72 30.24 
" style="fill: none; stroke: #000000; stroke-width: 1.5; stroke-linejoin: miter; stroke-linecap: square"/>
   </g>
   <g id="patch_6">
    <path d="M 425.52 257.04 
L 425.52 30.24 
" style="fill: none; stroke: #000000; stroke-width: 1.5; stroke-linejoin: miter; stroke-linecap: square"/>
   </g>
   <g id="patch_7">
    <path d="M 35.72 257.04 
L 425.52 257.04 
" style="fill: none; stroke: #000000; stroke-width: 1.5; stroke-linejoin: miter; stroke-linecap: square"/>
   </g>
   <g id="patch_8">
    <path d="M 35.72 30.24 
L 425.52 30.24 
" style="fill: none; stroke: #000000; stroke-width: 1.5; stroke-linejoin: miter; stroke-linecap: square"/>
   </g>
   <g id="text_3">
    <g id="patch_9">
     <path d="M 295.494219 80.679688 
L 360.645781 80.679688 
Q 363.645781 80.679688 363.645781 77.679688 
L 363.645781 56.80375 
Q 363.645781 53.80375 360.645781 53.80375 
L 295.494219 53.80375 
Q 292.494219 53.80375 292.494219 56.80375 
L 292.494219 77.679688 
Q 292.494219 80.679688 295.494219 80.679688 
z
" style="fill: #ffe5e5; opacity: 0.9; stroke: #ff0000; stroke-linejoin: miter"/>
    </g>
    <!-- Limited -->
    <g transform="translate(306.478594 64.402188) scale(0.1 -0.1)">
     <defs>
      <path id="DejaVuSerif-Bold-4c" d="M 300 0 
L 300 378 
L 897 378 
L 897 4288 
L 300 4288 
L 300 4666 
L 2700 4666 
L 2700 4288 
L 2100 4288 
L 2100 428 
L 3938 428 
L 3938 1166 
L 4359 1166 
L 4359 0 
L 300 0 
z
" transform="scale(0.015625)"/>
      <path id="DejaVuSerif-Bold-64" d="M 2747 1497 
L 2747 1825 
Q 2747 2406 2597 2665 
Q 2447 2925 2119 2925 
Q 1775 2925 1636 2651 
Q 1497 2378 1497 1663 
Q 1497 947 1637 672 
Q 1778 397 2119 397 
Q 2447 397 2597 656 
Q 2747 916 2747 1497 
z
M 3853 378 
L 4325 378 
L 4325 0 
L 2747 0 
L 2747 422 
Q 2606 163 2367 36 
Q 2128 -91 1778 -91 
Q 1072 -91 667 378 
Q 263 847 263 1663 
Q 263 2481 667 2947 
Q 1072 3413 1778 3413 
Q 2128 3413 2367 3286 
Q 2606 3159 2747 2900 
L 2747 4488 
L 2272 4488 
L 2272 4863 
L 3853 4863 
L 3853 378 
z
" transform="scale(0.015625)"/>
     </defs>
     <use xlink:href="#DejaVuSerif-Bold-4c"/>
     <use xlink:href="#DejaVuSerif-Bold-69" transform="translate(70.3125 0)"/>
     <use xlink:href="#DejaVuSerif-Bold-6d" transform="translate(108.300781 0)"/>
     <use xlink:href="#DejaVuSerif-Bold-69" transform="translate(214.111328 0)"/>
     <use xlink:href="#DejaVuSerif-Bold-74" transform="translate(252.099609 0)"/>
     <use xlink:href="#DejaVuSerif-Bold-65" transform="translate(298.291016 0)"/>
     <use xlink:href="#DejaVuSerif-Bold-64" transform="translate(361.914062 0)"/>
    </g>
    <!-- Exploration -->
    <g transform="translate(295.494219 75.6) scale(0.1 -0.1)">
     <defs>
      <path id="DejaVuSerif-Bold-45" d="M 300 0 
L 300 378 
L 897 378 
L 897 4288 
L 300 4288 
L 300 4666 
L 4494 4666 
L 4494 3566 
L 4063 3566 
L 4063 4238 
L 2100 4238 
L 2100 2741 
L 3322 2741 
L 3322 3334 
L 3750 3334 
L 3750 1722 
L 3322 1722 
L 3322 2316 
L 2100 2316 
L 2100 428 
L 4122 428 
L 4122 1100 
L 4550 1100 
L 4550 0 
L 300 0 
z
" transform="scale(0.015625)"/>
      <path id="DejaVuSerif-Bold-78" d="M 2247 2119 
L 2834 2944 
L 2425 2944 
L 2425 3322 
L 3719 3322 
L 3719 2944 
L 3278 2944 
L 2431 1759 
L 3419 378 
L 3859 378 
L 3859 0 
L 1747 0 
L 1747 378 
L 2175 378 
L 1550 1253 
L 922 378 
L 1369 378 
L 1369 0 
L 0 0 
L 0 378 
L 475 378 
L 1356 1619 
L 403 2944 
L 31 2944 
L 31 3322 
L 2059 3322 
L 2059 2944 
L 1656 2944 
L 2247 2119 
z
" transform="scale(0.015625)"/>
      <path id="DejaVuSerif-Bold-6c" d="M 1797 378 
L 2272 378 
L 2272 0 
L 219 0 
L 219 378 
L 691 378 
L 691 4488 
L 219 4488 
L 219 4863 
L 1797 4863 
L 1797 378 
z
" transform="scale(0.015625)"/>
      <path id="DejaVuSerif-Bold-72" d="M 3438 3359 
L 3438 2369 
L 3084 2369 
Q 3066 2634 2941 2764 
Q 2816 2894 2578 2894 
Q 2216 2894 2006 2575 
Q 1797 2256 1797 1691 
L 1797 378 
L 2400 378 
L 2400 0 
L 219 0 
L 219 378 
L 691 378 
L 691 2944 
L 184 2944 
L 184 3322 
L 1797 3322 
L 1797 2731 
Q 1959 3078 2226 3245 
Q 2494 3413 2881 3413 
Q 2978 3413 3117 3398 
Q 3256 3384 3438 3359 
z
" transform="scale(0.015625)"/>
     </defs>
     <use xlink:href="#DejaVuSerif-Bold-45"/>
     <use xlink:href="#DejaVuSerif-Bold-78" transform="translate(76.220703 0)"/>
     <use xlink:href="#DejaVuSerif-Bold-70" transform="translate(135.839844 0)"/>
     <use xlink:href="#DejaVuSerif-Bold-6c" transform="translate(205.761719 0)"/>
     <use xlink:href="#DejaVuSerif-Bold-6f" transform="translate(243.75 0)"/>
     <use xlink:href="#DejaVuSerif-Bold-72" transform="translate(310.449219 0)"/>
     <use xlink:href="#DejaVuSerif-Bold-61" transform="translate(363.134766 0)"/>
     <use xlink:href="#DejaVuSerif-Bold-74" transform="translate(427.929688 0)"/>
     <use xlink:href="#DejaVuSerif-Bold-69" transform="translate(474.121094 0)"/>
     <use xlink:href="#DejaVuSerif-Bold-6f" transform="translate(512.109375 0)"/>
     <use xlink:href="#DejaVuSerif-Bold-6e" transform="translate(578.808594 0)"/>
    </g>
   </g>
   <g id="text_4">
    <g id="patch_10">
     <path d="M 149.123406 149.227656 
L 226.360594 149.227656 
Q 229.660594 149.227656 229.660594 145.927656 
L 229.660594 122.651313 
Q 229.660594 119.351313 226.360594 119.351313 
L 149.123406 119.351313 
Q 145.823406 119.351313 145.823406 122.651313 
L 145.823406 145.927656 
Q 145.823406 149.227656 149.123406 149.227656 
z
" style="fill: #ffe5e5; opacity: 0.9; stroke: #ff0000; stroke-linejoin: miter"/>
    </g>
    <!-- Signal -->
    <g transform="translate(168.183484 131.166) scale(0.11 -0.11)">
     <defs>
      <path id="DejaVuSerif-Bold-67" d="M 3853 2944 
L 3853 44 
Q 3853 -656 3354 -1039 
Q 2856 -1422 1947 -1422 
Q 1616 -1422 1275 -1370 
Q 934 -1319 575 -1216 
L 575 -422 
L 928 -422 
Q 975 -750 1192 -909 
Q 1409 -1069 1813 -1069 
Q 2325 -1069 2536 -823 
Q 2747 -578 2747 44 
L 2747 422 
Q 2606 163 2367 36 
Q 2128 -91 1778 -91 
Q 1072 -91 667 378 
Q 263 847 263 1663 
Q 263 2481 667 2947 
Q 1072 3413 1778 3413 
Q 2128 3413 2367 3286 
Q 2606 3159 2747 2900 
L 2747 3322 
L 4325 3322 
L 4325 2944 
L 3853 2944 
z
M 2747 1825 
Q 2747 2406 2597 2665 
Q 2447 2925 2119 2925 
Q 1775 2925 1636 2651 
Q 1497 2378 1497 1663 
Q 1497 947 1637 672 
Q 1778 397 2119 397 
Q 2447 397 2597 656 
Q 2747 916 2747 1497 
L 2747 1825 
z
" transform="scale(0.015625)"/>
     </defs>
     <use xlink:href="#DejaVuSerif-Bold-53"/>
     <use xlink:href="#DejaVuSerif-Bold-69" transform="translate(72.216797 0)"/>
     <use xlink:href="#DejaVuSerif-Bold-67" transform="translate(110.205078 0)"/>
     <use xlink:href="#DejaVuSerif-Bold-6e" transform="translate(180.126953 0)"/>
     <use xlink:href="#DejaVuSerif-Bold-61" transform="translate(252.832031 0)"/>
     <use xlink:href="#DejaVuSerif-Bold-6c" transform="translate(317.626953 0)"/>
    </g>
    <!-- Interference -->
    <g transform="translate(149.123406 143.64) scale(0.11 -0.11)">
     <defs>
      <path id="DejaVuSerif-Bold-49" d="M 300 0 
L 300 378 
L 897 378 
L 897 4288 
L 300 4288 
L 300 4666 
L 2700 4666 
L 2700 4288 
L 2100 4288 
L 2100 378 
L 2700 378 
L 2700 0 
L 300 0 
z
" transform="scale(0.015625)"/>
      <path id="DejaVuSerif-Bold-66" d="M 3097 4031 
L 2747 4031 
Q 2722 4275 2605 4394 
Q 2488 4513 2272 4513 
Q 2022 4513 1909 4333 
Q 1797 4153 1797 3750 
L 1797 3322 
L 2631 3322 
L 2631 2944 
L 1797 2944 
L 1797 378 
L 2438 378 
L 2438 0 
L 219 0 
L 219 378 
L 691 378 
L 691 2944 
L 197 2944 
L 197 3322 
L 691 3322 
L 691 3738 
Q 691 4291 1044 4577 
Q 1397 4863 2081 4863 
Q 2347 4863 2600 4833 
Q 2853 4803 3097 4744 
L 3097 4031 
z
" transform="scale(0.015625)"/>
      <path id="DejaVuSerif-Bold-63" d="M 3609 1038 
Q 3491 469 3123 189 
Q 2756 -91 2125 -91 
Q 1238 -91 750 368 
Q 263 828 263 1663 
Q 263 2488 744 2950 
Q 1225 3413 2081 3413 
Q 2428 3413 2781 3347 
Q 3134 3281 3500 3150 
L 3500 2228 
L 3150 2228 
Q 3100 2650 2903 2854 
Q 2706 3059 2350 3059 
Q 1888 3059 1692 2746 
Q 1497 2434 1497 1663 
Q 1497 909 1687 586 
Q 1878 263 2309 263 
Q 2644 263 2845 463 
Q 3047 663 3091 1038 
L 3609 1038 
z
" transform="scale(0.015625)"/>
     </defs>
     <use xlink:href="#DejaVuSerif-Bold-49"/>
     <use xlink:href="#DejaVuSerif-Bold-6e" transform="translate(46.777344 0)"/>
     <use xlink:href="#DejaVuSerif-Bold-74" transform="translate(119.482422 0)"/>
     <use xlink:href="#DejaVuSerif-Bold-65" transform="translate(165.673828 0)"/>
     <use xlink:href="#DejaVuSerif-Bold-72" transform="translate(229.296875 0)"/>
     <use xlink:href="#DejaVuSerif-Bold-66" transform="translate(281.982422 0)"/>
     <use xlink:href="#DejaVuSerif-Bold-65" transform="translate(325 0)"/>
     <use xlink:href="#DejaVuSerif-Bold-72" transform="translate(388.623047 0)"/>
     <use xlink:href="#DejaVuSerif-Bold-65" transform="translate(441.308594 0)"/>
     <use xlink:href="#DejaVuSerif-Bold-6e" transform="translate(504.931641 0)"/>
     <use xlink:href="#DejaVuSerif-Bold-63" transform="translate(577.636719 0)"/>
     <use xlink:href="#DejaVuSerif-Bold-65" transform="translate(638.525391 0)"/>
    </g>
   </g>
   <g id="text_5">
    <!-- GRPO: Grouping with Signal Interference -->
    <g transform="translate(67.1175 21.58) scale(0.14 -0.14)">
     <defs>
      <path id="DejaVuSerif-Bold-47" d="M 4403 3200 
Q 4263 3819 3934 4095 
Q 3606 4372 3009 4372 
Q 2284 4372 1945 3880 
Q 1606 3388 1606 2328 
Q 1606 1278 1931 783 
Q 2256 288 2944 288 
Q 3206 288 3431 347 
Q 3656 406 3841 525 
L 3841 1806 
L 3278 1806 
L 3278 2181 
L 4959 2181 
L 4959 391 
Q 4434 147 3911 28 
Q 3388 -91 2841 -91 
Q 1641 -91 955 556 
Q 269 1203 269 2328 
Q 269 3456 955 4103 
Q 1641 4750 2841 4750 
Q 3341 4750 3825 4650 
Q 4309 4550 4800 4347 
L 4800 3200 
L 4403 3200 
z
" transform="scale(0.015625)"/>
      <path id="DejaVuSerif-Bold-52" d="M 3397 2278 
Q 3675 2238 3865 2094 
Q 4056 1950 4197 1678 
L 4878 378 
L 5356 378 
L 5356 0 
L 3822 0 
L 3078 1409 
Q 2863 1847 2711 1967 
Q 2559 2088 2291 2088 
L 2100 2088 
L 2100 378 
L 2700 378 
L 2700 0 
L 300 0 
L 300 378 
L 897 378 
L 897 4288 
L 300 4288 
L 300 4666 
L 2963 4666 
Q 3775 4666 4217 4339 
Q 4659 4013 4659 3413 
Q 4659 2925 4345 2642 
Q 4031 2359 3397 2278 
z
M 2100 2463 
L 2509 2463 
Q 2947 2463 3183 2700 
Q 3419 2938 3419 3378 
Q 3419 3819 3183 4053 
Q 2947 4288 2509 4288 
L 2100 4288 
L 2100 2463 
z
" transform="scale(0.015625)"/>
      <path id="DejaVuSerif-Bold-50" d="M 300 0 
L 300 378 
L 897 378 
L 897 4288 
L 300 4288 
L 300 4666 
L 2956 4666 
Q 3734 4666 4193 4295 
Q 4653 3925 4653 3303 
Q 4653 2678 4192 2304 
Q 3731 1931 2956 1931 
L 2100 1931 
L 2100 378 
L 2853 378 
L 2853 0 
L 300 0 
z
M 2100 2309 
L 2450 2309 
Q 2856 2309 3098 2579 
Q 3341 2850 3341 3303 
Q 3341 3753 3100 4020 
Q 2859 4288 2450 4288 
L 2100 4288 
L 2100 2309 
z
" transform="scale(0.015625)"/>
      <path id="DejaVuSerif-Bold-3a" d="M 588 2541 
Q 588 2788 761 2963 
Q 934 3138 1178 3138 
Q 1422 3138 1597 2961 
Q 1772 2784 1772 2541 
Q 1772 2297 1598 2125 
Q 1425 1953 1178 1953 
Q 931 1953 759 2125 
Q 588 2297 588 2541 
z
M 588 506 
Q 588 750 761 925 
Q 934 1100 1178 1100 
Q 1422 1100 1597 925 
Q 1772 750 1772 506 
Q 1772 259 1597 84 
Q 1422 -91 1178 -91 
Q 934 -91 761 84 
Q 588 259 588 506 
z
" transform="scale(0.015625)"/>
      <path id="DejaVuSerif-Bold-20" transform="scale(0.015625)"/>
      <path id="DejaVuSerif-Bold-75" d="M 3963 3322 
L 3963 378 
L 4434 378 
L 4434 0 
L 2853 0 
L 2853 469 
Q 2656 172 2400 40 
Q 2144 -91 1753 -91 
Q 1194 -91 908 239 
Q 622 569 622 1209 
L 622 2944 
L 147 2944 
L 147 3322 
L 1728 3322 
L 1728 1381 
Q 1728 763 1831 595 
Q 1934 428 2209 428 
Q 2544 428 2698 675 
Q 2853 922 2853 1459 
L 2853 2944 
L 2450 2944 
L 2450 3322 
L 3963 3322 
z
" transform="scale(0.015625)"/>
      <path id="DejaVuSerif-Bold-77" d="M 3450 3322 
L 4206 1106 
L 4831 2944 
L 4397 2944 
L 4397 3322 
L 5638 3322 
L 5638 2944 
L 5247 2944 
L 4244 0 
L 3481 0 
L 2778 2081 
L 2069 0 
L 1313 0 
L 306 2944 
L -56 2944 
L -56 3322 
L 1825 3322 
L 1825 2944 
L 1434 2944 
L 2047 1147 
L 2791 3322 
L 3450 3322 
z
" transform="scale(0.015625)"/>
      <path id="DejaVuSerif-Bold-68" d="M 219 0 
L 219 378 
L 691 378 
L 691 4488 
L 197 4488 
L 197 4863 
L 1797 4863 
L 1797 2853 
Q 1997 3150 2253 3281 
Q 2509 3413 2900 3413 
Q 3459 3413 3745 3083 
Q 4031 2753 4031 2113 
L 4031 378 
L 4506 378 
L 4506 0 
L 2522 0 
L 2522 378 
L 2925 378 
L 2925 2144 
Q 2925 2566 2817 2730 
Q 2709 2894 2444 2894 
Q 2109 2894 1953 2648 
Q 1797 2403 1797 1869 
L 1797 378 
L 2203 378 
L 2203 0 
L 219 0 
z
" transform="scale(0.015625)"/>
     </defs>
     <use xlink:href="#DejaVuSerif-Bold-47"/>
     <use xlink:href="#DejaVuSerif-Bold-52" transform="translate(85.400391 0)"/>
     <use xlink:href="#DejaVuSerif-Bold-50" transform="translate(168.505859 0)"/>
     <use xlink:href="#DejaVuSerif-Bold-4f" transform="translate(243.701172 0)"/>
     <use xlink:href="#DejaVuSerif-Bold-3a" transform="translate(330.810547 0)"/>
     <use xlink:href="#DejaVuSerif-Bold-20" transform="translate(367.724609 0)"/>
     <use xlink:href="#DejaVuSerif-Bold-47" transform="translate(402.539062 0)"/>
     <use xlink:href="#DejaVuSerif-Bold-72" transform="translate(487.939453 0)"/>
     <use xlink:href="#DejaVuSerif-Bold-6f" transform="translate(540.625 0)"/>
     <use xlink:href="#DejaVuSerif-Bold-75" transform="translate(607.324219 0)"/>
     <use xlink:href="#DejaVuSerif-Bold-70" transform="translate(680.029297 0)"/>
     <use xlink:href="#DejaVuSerif-Bold-69" transform="translate(749.951172 0)"/>
     <use xlink:href="#DejaVuSerif-Bold-6e" transform="translate(787.939453 0)"/>
     <use xlink:href="#DejaVuSerif-Bold-67" transform="translate(860.644531 0)"/>
     <use xlink:href="#DejaVuSerif-Bold-20" transform="translate(930.566406 0)"/>
     <use xlink:href="#DejaVuSerif-Bold-77" transform="translate(965.380859 0)"/>
     <use xlink:href="#DejaVuSerif-Bold-69" transform="translate(1051.464844 0)"/>
     <use xlink:href="#DejaVuSerif-Bold-74" transform="translate(1089.453125 0)"/>
     <use xlink:href="#DejaVuSerif-Bold-68" transform="translate(1135.644531 0)"/>
     <use xlink:href="#DejaVuSerif-Bold-20" transform="translate(1208.349609 0)"/>
     <use xlink:href="#DejaVuSerif-Bold-53" transform="translate(1243.164062 0)"/>
     <use xlink:href="#DejaVuSerif-Bold-69" transform="translate(1315.380859 0)"/>
     <use xlink:href="#DejaVuSerif-Bold-67" transform="translate(1353.369141 0)"/>
     <use xlink:href="#DejaVuSerif-Bold-6e" transform="translate(1423.291016 0)"/>
     <use xlink:href="#DejaVuSerif-Bold-61" transform="translate(1495.996094 0)"/>
     <use xlink:href="#DejaVuSerif-Bold-6c" transform="translate(1560.791016 0)"/>
     <use xlink:href="#DejaVuSerif-Bold-20" transform="translate(1598.779297 0)"/>
     <use xlink:href="#DejaVuSerif-Bold-49" transform="translate(1633.59375 0)"/>
     <use xlink:href="#DejaVuSerif-Bold-6e" transform="translate(1680.371094 0)"/>
     <use xlink:href="#DejaVuSerif-Bold-74" transform="translate(1753.076172 0)"/>
     <use xlink:href="#DejaVuSerif-Bold-65" transform="translate(1799.267578 0)"/>
     <use xlink:href="#DejaVuSerif-Bold-72" transform="translate(1862.890625 0)"/>
     <use xlink:href="#DejaVuSerif-Bold-66" transform="translate(1915.576172 0)"/>
     <use xlink:href="#DejaVuSerif-Bold-65" transform="translate(1958.59375 0)"/>
     <use xlink:href="#DejaVuSerif-Bold-72" transform="translate(2022.216797 0)"/>
     <use xlink:href="#DejaVuSerif-Bold-65" transform="translate(2074.902344 0)"/>
     <use xlink:href="#DejaVuSerif-Bold-6e" transform="translate(2138.525391 0)"/>
     <use xlink:href="#DejaVuSerif-Bold-63" transform="translate(2211.230469 0)"/>
     <use xlink:href="#DejaVuSerif-Bold-65" transform="translate(2272.119141 0)"/>
    </g>
   </g>
   <g id="PathCollection_1">
    <defs>
     <path id="mb40512983d" d="M 0 6.123724 
C 1.624031 6.123724 3.181764 5.47849 4.330127 4.330127 
C 5.47849 3.181764 6.123724 1.624031 6.123724 0 
C 6.123724 -1.624031 5.47849 -3.181764 4.330127 -4.330127 
C 3.181764 -5.47849 1.624031 -6.123724 0 -6.123724 
C -1.624031 -6.123724 -3.181764 -5.47849 -4.330127 -4.330127 
C -5.47849 -3.181764 -6.123724 -1.624031 -6.123724 0 
C -6.123724 1.624031 -5.47849 3.181764 -4.330127 4.330127 
C -3.181764 5.47849 -1.624031 6.123724 0 6.123724 
z
" style="stroke: #000000; stroke-width: 2"/>
    </defs>
    <g clip-path="url(#p5c3100df25)">
     <use xlink:href="#mb40512983d" x="74.7" y="234.36" style="fill: #008000; stroke: #000000; stroke-width: 2"/>
    </g>
   </g>
   <g id="PathCollection_2">
    <defs>
     <path id="m331266a1a7" d="M 0 -7.071068 
L -1.587554 -2.18508 
L -6.724985 -2.18508 
L -2.568716 0.834626 
L -4.156269 5.720614 
L -0 2.700907 
L 4.156269 5.720614 
L 2.568716 0.834626 
L 6.724985 -2.18508 
L 1.587554 -2.18508 
z
" style="stroke: #000000; stroke-width: 2"/>
    </defs>
    <g clip-path="url(#p5c3100df25)">
     <use xlink:href="#m331266a1a7" x="386.54" y="46.116" style="fill: #f39c12; stroke: #000000; stroke-width: 2"/>
    </g>
   </g>
   <g id="PathCollection_3">
    <defs>
     <path id="m645e0a3c42" d="M 0 6.123724 
C 1.624031 6.123724 3.181764 5.47849 4.330127 4.330127 
C 5.47849 3.181764 6.123724 1.624031 6.123724 0 
C 6.123724 -1.624031 5.47849 -3.181764 4.330127 -4.330127 
C 3.181764 -5.47849 1.624031 -6.123724 0 -6.123724 
C -1.624031 -6.123724 -3.181764 -5.47849 -4.330127 -4.330127 
C -5.47849 -3.181764 -6.123724 -1.624031 -6.123724 0 
C -6.123724 1.624031 -5.47849 3.181764 -4.330127 4.330127 
C -3.181764 5.47849 -1.624031 6.123724 0 6.123724 
z
" style="stroke: #000000; stroke-width: 2"/>
    </defs>
    <g clip-path="url(#p5c3100df25)">
     <use xlink:href="#m645e0a3c42" x="386.54" y="102.816" style="fill: #e67e22; stroke: #000000; stroke-width: 2"/>
    </g>
   </g>
   <g id="legend_1">
    <g id="patch_11">
     <path d="M 42.02 103.7475 
L 198.31625 103.7475 
Q 200.11625 103.7475 200.11625 101.9475 
L 200.11625 36.54 
Q 200.11625 34.74 198.31625 34.74 
L 42.02 34.74 
Q 40.22 34.74 40.22 36.54 
L 40.22 101.9475 
Q 40.22 103.7475 42.02 103.7475 
z
" style="fill: #ffffff; opacity: 0.9; stroke: #cccccc; stroke-linejoin: miter"/>
    </g>
    <g id="line2d_30">
     <path d="M 43.82 42.028594 
L 52.82 42.028594 
L 61.82 42.028594 
" style="fill: none; stroke-dasharray: 11.1,4.8; stroke-dashoffset: 0; stroke: #f39c12; stroke-opacity: 0.6; stroke-width: 3"/>
    </g>
    <g id="text_6">
     <!-- Expected Optimization Path -->
     <g transform="translate(69.02 45.178594) scale(0.09 -0.09)">
      <defs>
       <path id="DejaVuSerif-45" d="M 353 0 
L 353 331 
L 947 331 
L 947 4331 
L 353 4331 
L 353 4666 
L 4109 4666 
L 4109 3628 
L 3725 3628 
L 3725 4281 
L 1581 4281 
L 1581 2719 
L 3109 2719 
L 3109 3303 
L 3494 3303 
L 3494 1753 
L 3109 1753 
L 3109 2338 
L 1581 2338 
L 1581 384 
L 3775 384 
L 3775 1038 
L 4159 1038 
L 4159 0 
L 353 0 
z
" transform="scale(0.015625)"/>
       <path id="DejaVuSerif-78" d="M 1863 2028 
L 2559 2988 
L 2113 2988 
L 2113 3322 
L 3391 3322 
L 3391 2988 
L 2950 2988 
L 2059 1759 
L 3097 331 
L 3531 331 
L 3531 0 
L 1997 0 
L 1997 331 
L 2419 331 
L 1697 1325 
L 972 331 
L 1403 331 
L 1403 0 
L 141 0 
L 141 331 
L 581 331 
L 1497 1594 
L 488 2988 
L 78 2988 
L 78 3322 
L 1563 3322 
L 1563 2988 
L 1166 2988 
L 1863 2028 
z
" transform="scale(0.015625)"/>
       <path id="DejaVuSerif-70" d="M 1313 1825 
L 1313 1497 
Q 1313 897 1542 583 
Q 1772 269 2209 269 
Q 2650 269 2876 622 
Q 3103 975 3103 1663 
Q 3103 2353 2876 2703 
Q 2650 3053 2209 3053 
Q 1772 3053 1542 2737 
Q 1313 2422 1313 1825 
z
M 738 2988 
L 184 2988 
L 184 3322 
L 1313 3322 
L 1313 2803 
Q 1481 3116 1742 3264 
Q 2003 3413 2388 3413 
Q 3000 3413 3387 2928 
Q 3775 2444 3775 1663 
Q 3775 881 3387 395 
Q 3000 -91 2388 -91 
Q 2003 -91 1742 57 
Q 1481 206 1313 519 
L 1313 -997 
L 1856 -997 
L 1856 -1331 
L 184 -1331 
L 184 -997 
L 738 -997 
L 738 2988 
z
" transform="scale(0.015625)"/>
       <path id="DejaVuSerif-65" d="M 3469 1600 
L 991 1600 
L 991 1575 
Q 991 903 1244 561 
Q 1497 219 1991 219 
Q 2369 219 2611 417 
Q 2853 616 2950 1006 
L 3413 1006 
Q 3275 459 2904 184 
Q 2534 -91 1931 -91 
Q 1203 -91 761 389 
Q 319 869 319 1663 
Q 319 2450 753 2931 
Q 1188 3413 1894 3413 
Q 2647 3413 3050 2948 
Q 3453 2484 3469 1600 
z
M 2791 1931 
Q 2772 2513 2545 2808 
Q 2319 3103 1894 3103 
Q 1497 3103 1269 2806 
Q 1041 2509 991 1931 
L 2791 1931 
z
" transform="scale(0.015625)"/>
       <path id="DejaVuSerif-63" d="M 3291 997 
Q 3169 466 2822 187 
Q 2475 -91 1925 -91 
Q 1200 -91 759 389 
Q 319 869 319 1663 
Q 319 2459 759 2936 
Q 1200 3413 1925 3413 
Q 2241 3413 2553 3339 
Q 2866 3266 3181 3116 
L 3181 2266 
L 2847 2266 
Q 2781 2703 2561 2903 
Q 2341 3103 1931 3103 
Q 1466 3103 1228 2742 
Q 991 2381 991 1663 
Q 991 944 1227 581 
Q 1463 219 1931 219 
Q 2303 219 2525 412 
Q 2747 606 2828 997 
L 3291 997 
z
" transform="scale(0.015625)"/>
       <path id="DejaVuSerif-74" d="M 691 2988 
L 184 2988 
L 184 3322 
L 691 3322 
L 691 4353 
L 1269 4353 
L 1269 3322 
L 2350 3322 
L 2350 2988 
L 1269 2988 
L 1269 878 
Q 1269 456 1350 337 
Q 1431 219 1650 219 
Q 1875 219 1978 351 
Q 2081 484 2088 781 
L 2522 781 
Q 2497 328 2275 118 
Q 2053 -91 1600 -91 
Q 1103 -91 897 129 
Q 691 350 691 878 
L 691 2988 
z
" transform="scale(0.015625)"/>
       <path id="DejaVuSerif-64" d="M 3359 331 
L 3909 331 
L 3909 0 
L 2784 0 
L 2784 519 
Q 2616 206 2355 57 
Q 2094 -91 1709 -91 
Q 1097 -91 708 395 
Q 319 881 319 1663 
Q 319 2444 706 2928 
Q 1094 3413 1709 3413 
Q 2094 3413 2355 3264 
Q 2616 3116 2784 2803 
L 2784 4531 
L 2241 4531 
L 2241 4863 
L 3359 4863 
L 3359 331 
z
M 2784 1497 
L 2784 1825 
Q 2784 2422 2554 2737 
Q 2325 3053 1888 3053 
Q 1444 3053 1217 2703 
Q 991 2353 991 1663 
Q 991 975 1217 622 
Q 1444 269 1888 269 
Q 2325 269 2554 583 
Q 2784 897 2784 1497 
z
" transform="scale(0.015625)"/>
       <path id="DejaVuSerif-20" transform="scale(0.015625)"/>
       <path id="DejaVuSerif-4f" d="M 2625 244 
Q 3391 244 3781 770 
Q 4172 1297 4172 2328 
Q 4172 3363 3781 3889 
Q 3391 4416 2625 4416 
Q 1856 4416 1465 3889 
Q 1075 3363 1075 2328 
Q 1075 1297 1465 770 
Q 1856 244 2625 244 
z
M 2625 -91 
Q 2150 -91 1751 65 
Q 1353 222 1050 525 
Q 700 875 529 1319 
Q 359 1763 359 2328 
Q 359 2894 529 3339 
Q 700 3784 1050 4134 
Q 1356 4441 1750 4595 
Q 2144 4750 2625 4750 
Q 3641 4750 4266 4084 
Q 4891 3419 4891 2328 
Q 4891 1769 4719 1320 
Q 4547 872 4197 525 
Q 3891 219 3497 64 
Q 3103 -91 2625 -91 
z
" transform="scale(0.015625)"/>
       <path id="DejaVuSerif-69" d="M 622 4353 
Q 622 4497 726 4603 
Q 831 4709 978 4709 
Q 1122 4709 1226 4603 
Q 1331 4497 1331 4353 
Q 1331 4206 1228 4103 
Q 1125 4000 978 4000 
Q 831 4000 726 4103 
Q 622 4206 622 4353 
z
M 1356 331 
L 1900 331 
L 1900 0 
L 231 0 
L 231 331 
L 781 331 
L 781 2988 
L 231 2988 
L 231 3322 
L 1356 3322 
L 1356 331 
z
" transform="scale(0.015625)"/>
       <path id="DejaVuSerif-6d" d="M 3316 2675 
Q 3481 3041 3739 3227 
Q 3997 3413 4341 3413 
Q 4863 3413 5119 3089 
Q 5375 2766 5375 2113 
L 5375 331 
L 5894 331 
L 5894 0 
L 4300 0 
L 4300 331 
L 4800 331 
L 4800 2047 
Q 4800 2556 4650 2772 
Q 4500 2988 4153 2988 
Q 3769 2988 3567 2697 
Q 3366 2406 3366 1850 
L 3366 331 
L 3866 331 
L 3866 0 
L 2291 0 
L 2291 331 
L 2791 331 
L 2791 2069 
Q 2791 2566 2641 2777 
Q 2491 2988 2144 2988 
Q 1759 2988 1557 2697 
Q 1356 2406 1356 1850 
L 1356 331 
L 1856 331 
L 1856 0 
L 263 0 
L 263 331 
L 781 331 
L 781 2994 
L 231 2994 
L 231 3322 
L 1356 3322 
L 1356 2731 
Q 1516 3063 1762 3238 
Q 2009 3413 2322 3413 
Q 2709 3413 2968 3220 
Q 3228 3028 3316 2675 
z
" transform="scale(0.015625)"/>
       <path id="DejaVuSerif-7a" d="M 256 0 
L 256 269 
L 2338 2988 
L 691 2988 
L 691 2413 
L 359 2413 
L 359 3322 
L 3078 3322 
L 3078 3053 
L 997 331 
L 2803 331 
L 2803 934 
L 3138 934 
L 3138 0 
L 256 0 
z
" transform="scale(0.015625)"/>
       <path id="DejaVuSerif-61" d="M 2547 1044 
L 2547 1747 
L 1806 1747 
Q 1378 1747 1168 1562 
Q 959 1378 959 997 
Q 959 650 1171 447 
Q 1384 244 1747 244 
Q 2106 244 2326 466 
Q 2547 688 2547 1044 
z
M 3122 2075 
L 3122 331 
L 3634 331 
L 3634 0 
L 2547 0 
L 2547 359 
Q 2356 128 2106 18 
Q 1856 -91 1522 -91 
Q 969 -91 644 203 
Q 319 497 319 997 
Q 319 1513 691 1797 
Q 1063 2081 1741 2081 
L 2547 2081 
L 2547 2309 
Q 2547 2688 2317 2895 
Q 2088 3103 1672 3103 
Q 1328 3103 1125 2947 
Q 922 2791 872 2484 
L 575 2484 
L 575 3156 
Q 875 3284 1158 3348 
Q 1441 3413 1709 3413 
Q 2400 3413 2761 3070 
Q 3122 2728 3122 2075 
z
" transform="scale(0.015625)"/>
       <path id="DejaVuSerif-6f" d="M 1925 219 
Q 2388 219 2623 584 
Q 2859 950 2859 1663 
Q 2859 2375 2623 2739 
Q 2388 3103 1925 3103 
Q 1463 3103 1227 2739 
Q 991 2375 991 1663 
Q 991 950 1228 584 
Q 1466 219 1925 219 
z
M 1925 -91 
Q 1200 -91 759 389 
Q 319 869 319 1663 
Q 319 2456 758 2934 
Q 1197 3413 1925 3413 
Q 2653 3413 3092 2934 
Q 3531 2456 3531 1663 
Q 3531 869 3092 389 
Q 2653 -91 1925 -91 
z
" transform="scale(0.015625)"/>
       <path id="DejaVuSerif-6e" d="M 263 0 
L 263 331 
L 781 331 
L 781 2988 
L 231 2988 
L 231 3322 
L 1356 3322 
L 1356 2731 
Q 1516 3069 1770 3241 
Q 2025 3413 2363 3413 
Q 2913 3413 3172 3097 
Q 3431 2781 3431 2113 
L 3431 331 
L 3944 331 
L 3944 0 
L 2356 0 
L 2356 331 
L 2853 331 
L 2853 1931 
Q 2853 2541 2703 2767 
Q 2553 2994 2175 2994 
Q 1775 2994 1565 2701 
Q 1356 2409 1356 1850 
L 1356 331 
L 1856 331 
L 1856 0 
L 263 0 
z
" transform="scale(0.015625)"/>
       <path id="DejaVuSerif-50" d="M 1581 2375 
L 2406 2375 
Q 2872 2375 3115 2626 
Q 3359 2878 3359 3353 
Q 3359 3831 3115 4081 
Q 2872 4331 2406 4331 
L 1581 4331 
L 1581 2375 
z
M 353 0 
L 353 331 
L 947 331 
L 947 4331 
L 353 4331 
L 353 4666 
L 2559 4666 
Q 3259 4666 3668 4311 
Q 4078 3956 4078 3353 
Q 4078 2753 3668 2397 
Q 3259 2041 2559 2041 
L 1581 2041 
L 1581 331 
L 2303 331 
L 2303 0 
L 353 0 
z
" transform="scale(0.015625)"/>
       <path id="DejaVuSerif-68" d="M 263 0 
L 263 331 
L 781 331 
L 781 4531 
L 231 4531 
L 231 4863 
L 1356 4863 
L 1356 2731 
Q 1516 3069 1770 3241 
Q 2025 3413 2363 3413 
Q 2913 3413 3172 3097 
Q 3431 2781 3431 2113 
L 3431 331 
L 3944 331 
L 3944 0 
L 2356 0 
L 2356 331 
L 2853 331 
L 2853 1931 
Q 2853 2541 2704 2764 
Q 2556 2988 2175 2988 
Q 1775 2988 1565 2697 
Q 1356 2406 1356 1850 
L 1356 331 
L 1856 331 
L 1856 0 
L 263 0 
z
" transform="scale(0.015625)"/>
      </defs>
      <use xlink:href="#DejaVuSerif-45"/>
      <use xlink:href="#DejaVuSerif-78" transform="translate(72.998047 0)"/>
      <use xlink:href="#DejaVuSerif-70" transform="translate(129.394531 0)"/>
      <use xlink:href="#DejaVuSerif-65" transform="translate(193.408203 0)"/>
      <use xlink:href="#DejaVuSerif-63" transform="translate(252.587891 0)"/>
      <use xlink:href="#DejaVuSerif-74" transform="translate(308.59375 0)"/>
      <use xlink:href="#DejaVuSerif-65" transform="translate(348.779297 0)"/>
      <use xlink:href="#DejaVuSerif-64" transform="translate(407.958984 0)"/>
      <use xlink:href="#DejaVuSerif-20" transform="translate(471.972656 0)"/>
      <use xlink:href="#DejaVuSerif-4f" transform="translate(503.759766 0)"/>
      <use xlink:href="#DejaVuSerif-70" transform="translate(585.742188 0)"/>
      <use xlink:href="#DejaVuSerif-74" transform="translate(649.755859 0)"/>
      <use xlink:href="#DejaVuSerif-69" transform="translate(689.941406 0)"/>
      <use xlink:href="#DejaVuSerif-6d" transform="translate(721.923828 0)"/>
      <use xlink:href="#DejaVuSerif-69" transform="translate(816.748047 0)"/>
      <use xlink:href="#DejaVuSerif-7a" transform="translate(848.730469 0)"/>
      <use xlink:href="#DejaVuSerif-61" transform="translate(901.416016 0)"/>
      <use xlink:href="#DejaVuSerif-74" transform="translate(961.035156 0)"/>
      <use xlink:href="#DejaVuSerif-69" transform="translate(1001.220703 0)"/>
      <use xlink:href="#DejaVuSerif-6f" transform="translate(1033.203125 0)"/>
      <use xlink:href="#DejaVuSerif-6e" transform="translate(1093.408203 0)"/>
      <use xlink:href="#DejaVuSerif-20" transform="translate(1157.8125 0)"/>
      <use xlink:href="#DejaVuSerif-50" transform="translate(1189.599609 0)"/>
      <use xlink:href="#DejaVuSerif-61" transform="translate(1252.384766 0)"/>
      <use xlink:href="#DejaVuSerif-74" transform="translate(1312.003906 0)"/>
      <use xlink:href="#DejaVuSerif-68" transform="translate(1352.189453 0)"/>
     </g>
    </g>
    <g id="line2d_31">
     <path d="M 43.82 55.238906 
L 52.82 55.238906 
L 61.82 55.238906 
" style="fill: none; stroke: #7f8c8d; stroke-opacity: 0.9; stroke-width: 4; stroke-linecap: square"/>
     <g>
      <use xlink:href="#mb24f5da503" x="52.82" y="55.238906" style="fill: #7f8c8d; fill-opacity: 0.9; stroke: #7f8c8d; stroke-opacity: 0.9"/>
     </g>
    </g>
    <g id="text_7">
     <!-- GRPO Trajectory -->
     <g transform="translate(69.02 58.388906) scale(0.09 -0.09)">
      <defs>
       <path id="DejaVuSerif-47" d="M 4097 3272 
Q 3988 3856 3641 4136 
Q 3294 4416 2675 4416 
Q 1869 4416 1472 3897 
Q 1075 3378 1075 2328 
Q 1075 1300 1484 772 
Q 1894 244 2688 244 
Q 3041 244 3362 331 
Q 3684 419 3975 594 
L 3975 1797 
L 3097 1797 
L 3097 2131 
L 4609 2131 
L 4609 391 
Q 4194 150 3714 29 
Q 3234 -91 2688 -91 
Q 1631 -91 995 570 
Q 359 1231 359 2328 
Q 359 3434 996 4092 
Q 1634 4750 2713 4750 
Q 3113 4750 3539 4658 
Q 3966 4566 4447 4378 
L 4447 3272 
L 4097 3272 
z
" transform="scale(0.015625)"/>
       <path id="DejaVuSerif-52" d="M 3066 2316 
Q 3284 2256 3442 2114 
Q 3600 1972 3725 1716 
L 4403 331 
L 4972 331 
L 4972 0 
L 3872 0 
L 3144 1484 
Q 2934 1916 2759 2042 
Q 2584 2169 2278 2169 
L 1581 2169 
L 1581 331 
L 2241 331 
L 2241 0 
L 353 0 
L 353 331 
L 947 331 
L 947 4331 
L 353 4331 
L 353 4666 
L 2719 4666 
Q 3400 4666 3770 4341 
Q 4141 4016 4141 3419 
Q 4141 2938 3870 2661 
Q 3600 2384 3066 2316 
z
M 1581 2503 
L 2503 2503 
Q 2975 2503 3200 2726 
Q 3425 2950 3425 3419 
Q 3425 3888 3200 4109 
Q 2975 4331 2503 4331 
L 1581 4331 
L 1581 2503 
z
" transform="scale(0.015625)"/>
       <path id="DejaVuSerif-54" d="M 1222 0 
L 1222 331 
L 1819 331 
L 1819 4294 
L 447 4294 
L 447 3566 
L 63 3566 
L 63 4666 
L 4206 4666 
L 4206 3566 
L 3822 3566 
L 3822 4294 
L 2450 4294 
L 2450 331 
L 3047 331 
L 3047 0 
L 1222 0 
z
" transform="scale(0.015625)"/>
       <path id="DejaVuSerif-72" d="M 3059 3328 
L 3059 2497 
L 2728 2497 
Q 2713 2744 2591 2866 
Q 2469 2988 2234 2988 
Q 1809 2988 1582 2694 
Q 1356 2400 1356 1850 
L 1356 331 
L 2022 331 
L 2022 0 
L 263 0 
L 263 331 
L 781 331 
L 781 2994 
L 231 2994 
L 231 3322 
L 1356 3322 
L 1356 2731 
Q 1525 3078 1790 3245 
Q 2056 3413 2438 3413 
Q 2578 3413 2733 3391 
Q 2888 3369 3059 3328 
z
" transform="scale(0.015625)"/>
       <path id="DejaVuSerif-6a" d="M 641 4353 
Q 641 4497 745 4603 
Q 850 4709 997 4709 
Q 1141 4709 1245 4603 
Q 1350 4497 1350 4353 
Q 1350 4206 1248 4103 
Q 1147 4000 997 4000 
Q 850 4000 745 4103 
Q 641 4206 641 4353 
z
M 781 2988 
L 238 2988 
L 238 3322 
L 1356 3322 
L 1356 -325 
Q 1356 -838 1051 -1130 
Q 747 -1422 213 -1422 
Q -13 -1422 -217 -1370 
Q -422 -1319 -616 -1216 
L -616 -531 
L -319 -531 
Q -297 -831 -164 -972 
Q -31 -1113 225 -1113 
Q 509 -1113 645 -920 
Q 781 -728 781 -325 
L 781 2988 
z
" transform="scale(0.015625)"/>
       <path id="DejaVuSerif-79" d="M 1381 -609 
L 1600 -56 
L 359 2988 
L -19 2988 
L -19 3322 
L 1509 3322 
L 1509 2988 
L 978 2988 
L 1913 703 
L 2847 2988 
L 2350 2988 
L 2350 3322 
L 3597 3322 
L 3597 2988 
L 3225 2988 
L 1703 -750 
Q 1547 -1138 1356 -1280 
Q 1166 -1422 819 -1422 
Q 672 -1422 517 -1397 
Q 363 -1372 206 -1325 
L 206 -691 
L 500 -691 
Q 519 -903 608 -995 
Q 697 -1088 884 -1088 
Q 1056 -1088 1161 -992 
Q 1266 -897 1381 -609 
z
" transform="scale(0.015625)"/>
      </defs>
      <use xlink:href="#DejaVuSerif-47"/>
      <use xlink:href="#DejaVuSerif-52" transform="translate(79.882812 0)"/>
      <use xlink:href="#DejaVuSerif-50" transform="translate(155.175781 0)"/>
      <use xlink:href="#DejaVuSerif-4f" transform="translate(222.460938 0)"/>
      <use xlink:href="#DejaVuSerif-20" transform="translate(304.443359 0)"/>
      <use xlink:href="#DejaVuSerif-54" transform="translate(336.230469 0)"/>
      <use xlink:href="#DejaVuSerif-72" transform="translate(402.929688 0)"/>
      <use xlink:href="#DejaVuSerif-61" transform="translate(450.732422 0)"/>
      <use xlink:href="#DejaVuSerif-6a" transform="translate(510.351562 0)"/>
      <use xlink:href="#DejaVuSerif-65" transform="translate(541.357422 0)"/>
      <use xlink:href="#DejaVuSerif-63" transform="translate(600.537109 0)"/>
      <use xlink:href="#DejaVuSerif-74" transform="translate(656.542969 0)"/>
      <use xlink:href="#DejaVuSerif-6f" transform="translate(696.728516 0)"/>
      <use xlink:href="#DejaVuSerif-72" transform="translate(756.933594 0)"/>
      <use xlink:href="#DejaVuSerif-79" transform="translate(804.736328 0)"/>
     </g>
    </g>
    <g id="PathCollection_4">
     <g>
      <use xlink:href="#mb40512983d" x="52.82" y="69.364688" style="fill: #008000; stroke: #000000; stroke-width: 2"/>
     </g>
    </g>
    <g id="text_8">
     <!-- Start -->
     <g transform="translate(69.02 71.727188) scale(0.09 -0.09)">
      <defs>
       <path id="DejaVuSerif-53" d="M 594 225 
L 594 1288 
L 953 1284 
Q 969 753 1261 498 
Q 1553 244 2150 244 
Q 2706 244 2998 464 
Q 3291 684 3291 1106 
Q 3291 1444 3114 1625 
Q 2938 1806 2369 1978 
L 1753 2163 
Q 1084 2366 811 2669 
Q 538 2972 538 3500 
Q 538 4094 959 4422 
Q 1381 4750 2144 4750 
Q 2469 4750 2856 4679 
Q 3244 4609 3681 4475 
L 3681 3481 
L 3328 3481 
Q 3275 3975 2998 4195 
Q 2722 4416 2156 4416 
Q 1663 4416 1405 4214 
Q 1147 4013 1147 3628 
Q 1147 3294 1340 3103 
Q 1534 2913 2163 2725 
L 2741 2553 
Q 3375 2363 3645 2067 
Q 3916 1772 3916 1275 
Q 3916 597 3481 253 
Q 3047 -91 2188 -91 
Q 1803 -91 1404 -12 
Q 1006 66 594 225 
z
" transform="scale(0.015625)"/>
      </defs>
      <use xlink:href="#DejaVuSerif-53"/>
      <use xlink:href="#DejaVuSerif-74" transform="translate(68.505859 0)"/>
      <use xlink:href="#DejaVuSerif-61" transform="translate(108.691406 0)"/>
      <use xlink:href="#DejaVuSerif-72" transform="translate(168.310547 0)"/>
      <use xlink:href="#DejaVuSerif-74" transform="translate(216.113281 0)"/>
     </g>
    </g>
    <g id="PathCollection_5">
     <g>
      <use xlink:href="#m331266a1a7" x="52.82" y="82.575" style="fill: #f39c12; stroke: #000000; stroke-width: 2"/>
     </g>
    </g>
    <g id="text_9">
     <!-- Target -->
     <g transform="translate(69.02 84.9375) scale(0.09 -0.09)">
      <defs>
       <path id="DejaVuSerif-67" d="M 3359 2988 
L 3359 72 
Q 3359 -644 2965 -1033 
Q 2572 -1422 1844 -1422 
Q 1516 -1422 1216 -1362 
Q 916 -1303 641 -1184 
L 641 -488 
L 941 -488 
Q 997 -813 1206 -963 
Q 1416 -1113 1806 -1113 
Q 2313 -1113 2548 -827 
Q 2784 -541 2784 72 
L 2784 519 
Q 2616 206 2355 57 
Q 2094 -91 1709 -91 
Q 1097 -91 708 395 
Q 319 881 319 1663 
Q 319 2444 706 2928 
Q 1094 3413 1709 3413 
Q 2094 3413 2355 3264 
Q 2616 3116 2784 2803 
L 2784 3322 
L 3909 3322 
L 3909 2988 
L 3359 2988 
z
M 2784 1825 
Q 2784 2422 2554 2737 
Q 2325 3053 1888 3053 
Q 1444 3053 1217 2703 
Q 991 2353 991 1663 
Q 991 975 1217 622 
Q 1444 269 1888 269 
Q 2325 269 2554 583 
Q 2784 897 2784 1497 
L 2784 1825 
z
" transform="scale(0.015625)"/>
      </defs>
      <use xlink:href="#DejaVuSerif-54"/>
      <use xlink:href="#DejaVuSerif-61" transform="translate(58.949219 0)"/>
      <use xlink:href="#DejaVuSerif-72" transform="translate(118.568359 0)"/>
      <use xlink:href="#DejaVuSerif-67" transform="translate(166.371094 0)"/>
      <use xlink:href="#DejaVuSerif-65" transform="translate(230.384766 0)"/>
      <use xlink:href="#DejaVuSerif-74" transform="translate(289.564453 0)"/>
     </g>
    </g>
    <g id="PathCollection_6">
     <g>
      <use xlink:href="#m645e0a3c42" x="52.82" y="95.913281" style="fill: #e67e22; stroke: #000000; stroke-width: 2"/>
     </g>
    </g>
    <g id="text_10">
     <!-- End -->
     <g transform="translate(69.02 98.275781) scale(0.09 -0.09)">
      <use xlink:href="#DejaVuSerif-45"/>
      <use xlink:href="#DejaVuSerif-6e" transform="translate(72.998047 0)"/>
      <use xlink:href="#DejaVuSerif-64" transform="translate(137.402344 0)"/>
     </g>
    </g>
   </g>
   <g id="patch_12">
    <path d="M 232.594695 155.324685 
Q 250.110328 158.382057 263.220437 160.67044 
" clip-path="url(#p5c3100df25)" style="fill: none; opacity: 0.9; stroke: #000000; stroke-width: 4; stroke-linecap: round"/>
    <path d="M 254.229138 154.025401 
L 263.220437 160.67044 
L 252.509626 163.876456 
" clip-path="url(#p5c3100df25)" style="fill: none; opacity: 0.9; stroke: #000000; stroke-width: 4; stroke-linecap: round"/>
   </g>
  </g>
  <g id="axes_2">
   <g id="patch_13">
    <path d="M 461.24 257.04 
L 851.04 257.04 
L 851.04 30.24 
L 461.24 30.24 
z
" style="fill: #ffffff"/>
   </g>
   <g id="patch_14">
    <path d="M 619.150992 152.362907 
Q 637.624206 150.696828 652.756876 149.332029 
" clip-path="url(#p5f4d7cec33)" style="fill: none; opacity: 0.9; stroke: #e74c3c; stroke-width: 3; stroke-linecap: round"/>
    <path d="M 644.429918 146.066793 
L 652.756876 149.332029 
L 645.148513 154.034454 
" clip-path="url(#p5f4d7cec33)" style="fill: none; opacity: 0.9; stroke: #e74c3c; stroke-width: 3; stroke-linecap: round"/>
   </g>
   <g id="patch_15">
    <path d="M 618.691269 151.253507 
Q 627.100639 144.174809 632.943986 139.256095 
" clip-path="url(#p5f4d7cec33)" style="fill: none; opacity: 0.9; stroke: #27ae60; stroke-width: 3; stroke-linecap: round"/>
    <path d="M 624.247735 141.347795 
L 632.943986 139.256095 
L 629.399596 147.468116 
" clip-path="url(#p5f4d7cec33)" style="fill: none; opacity: 0.9; stroke: #27ae60; stroke-width: 3; stroke-linecap: round"/>
   </g>
   <g id="patch_16">
    <path d="M 617.16 193.366473 
C 628.324626 193.366473 639.033481 189.064999 646.928064 181.4094 
C 654.822647 173.753801 659.2584 163.369124 659.2584 152.542473 
C 659.2584 141.715821 654.822647 131.331144 646.928064 123.675546 
C 639.033481 116.019947 628.324626 111.718473 617.16 111.718473 
C 605.995374 111.718473 595.286519 116.019947 587.391936 123.675546 
C 579.497353 131.331144 575.0616 141.715821 575.0616 152.542473 
C 575.0616 163.369124 579.497353 173.753801 587.391936 181.4094 
C 595.286519 189.064999 605.995374 193.366473 617.16 193.366473 
z
" clip-path="url(#p5f4d7cec33)" style="fill: #ffd700; opacity: 0.2; stroke: #ffa500; stroke-linejoin: miter"/>
   </g>
   <g id="matplotlib.axis_3">
    <g id="xtick_7">
     <g id="line2d_32">
      <path d="M 461.24 257.04 
L 461.24 30.24 
" clip-path="url(#p5f4d7cec33)" style="fill: none; stroke: #b0b0b0; stroke-opacity: 0.3; stroke-width: 0.8; stroke-linecap: square"/>
     </g>
     <g id="line2d_33">
      <g>
       <use xlink:href="#m2380651cfb" x="461.24" y="257.04" style="stroke: #000000; stroke-width: 0.8"/>
      </g>
     </g>
    </g>
    <g id="xtick_8">
     <g id="line2d_34">
      <path d="M 539.2 257.04 
L 539.2 30.24 
" clip-path="url(#p5f4d7cec33)" style="fill: none; stroke: #b0b0b0; stroke-opacity: 0.3; stroke-width: 0.8; stroke-linecap: square"/>
     </g>
     <g id="line2d_35">
      <g>
       <use xlink:href="#m2380651cfb" x="539.2" y="257.04" style="stroke: #000000; stroke-width: 0.8"/>
      </g>
     </g>
    </g>
    <g id="xtick_9">
     <g id="line2d_36">
      <path d="M 617.16 257.04 
L 617.16 30.24 
" clip-path="url(#p5f4d7cec33)" style="fill: none; stroke: #b0b0b0; stroke-opacity: 0.3; stroke-width: 0.8; stroke-linecap: square"/>
     </g>
     <g id="line2d_37">
      <g>
       <use xlink:href="#m2380651cfb" x="617.16" y="257.04" style="stroke: #000000; stroke-width: 0.8"/>
      </g>
     </g>
    </g>
    <g id="xtick_10">
     <g id="line2d_38">
      <path d="M 695.12 257.04 
L 695.12 30.24 
" clip-path="url(#p5f4d7cec33)" style="fill: none; stroke: #b0b0b0; stroke-opacity: 0.3; stroke-width: 0.8; stroke-linecap: square"/>
     </g>
     <g id="line2d_39">
      <g>
       <use xlink:href="#m2380651cfb" x="695.12" y="257.04" style="stroke: #000000; stroke-width: 0.8"/>
      </g>
     </g>
    </g>
    <g id="xtick_11">
     <g id="line2d_40">
      <path d="M 773.08 257.04 
L 773.08 30.24 
" clip-path="url(#p5f4d7cec33)" style="fill: none; stroke: #b0b0b0; stroke-opacity: 0.3; stroke-width: 0.8; stroke-linecap: square"/>
     </g>
     <g id="line2d_41">
      <g>
       <use xlink:href="#m2380651cfb" x="773.08" y="257.04" style="stroke: #000000; stroke-width: 0.8"/>
      </g>
     </g>
    </g>
    <g id="xtick_12">
     <g id="line2d_42">
      <path d="M 851.04 257.04 
L 851.04 30.24 
" clip-path="url(#p5f4d7cec33)" style="fill: none; stroke: #b0b0b0; stroke-opacity: 0.3; stroke-width: 0.8; stroke-linecap: square"/>
     </g>
     <g id="line2d_43">
      <g>
       <use xlink:href="#m2380651cfb" x="851.04" y="257.04" style="stroke: #000000; stroke-width: 0.8"/>
      </g>
     </g>
    </g>
    <g id="text_11">
     <!-- Steps -->
     <g transform="translate(637.645 268.426125) scale(0.12 -0.12)">
      <use xlink:href="#DejaVuSerif-Bold-53"/>
      <use xlink:href="#DejaVuSerif-Bold-74" transform="translate(72.216797 0)"/>
      <use xlink:href="#DejaVuSerif-Bold-65" transform="translate(118.408203 0)"/>
      <use xlink:href="#DejaVuSerif-Bold-70" transform="translate(182.03125 0)"/>
      <use xlink:href="#DejaVuSerif-Bold-73" transform="translate(251.953125 0)"/>
     </g>
    </g>
   </g>
   <g id="matplotlib.axis_4">
    <g id="ytick_8">
     <g id="line2d_44">
      <path d="M 461.24 257.04 
L 851.04 257.04 
" clip-path="url(#p5f4d7cec33)" style="fill: none; stroke: #b0b0b0; stroke-opacity: 0.3; stroke-width: 0.8; stroke-linecap: square"/>
     </g>
     <g id="line2d_45">
      <g>
       <use xlink:href="#md000090cc8" x="461.24" y="257.04" style="stroke: #000000; stroke-width: 0.8"/>
      </g>
     </g>
    </g>
    <g id="ytick_9">
     <g id="line2d_46">
      <path d="M 461.24 219.24 
L 851.04 219.24 
" clip-path="url(#p5f4d7cec33)" style="fill: none; stroke: #b0b0b0; stroke-opacity: 0.3; stroke-width: 0.8; stroke-linecap: square"/>
     </g>
     <g id="line2d_47">
      <g>
       <use xlink:href="#md000090cc8" x="461.24" y="219.24" style="stroke: #000000; stroke-width: 0.8"/>
      </g>
     </g>
    </g>
    <g id="ytick_10">
     <g id="line2d_48">
      <path d="M 461.24 181.44 
L 851.04 181.44 
" clip-path="url(#p5f4d7cec33)" style="fill: none; stroke: #b0b0b0; stroke-opacity: 0.3; stroke-width: 0.8; stroke-linecap: square"/>
     </g>
     <g id="line2d_49">
      <g>
       <use xlink:href="#md000090cc8" x="461.24" y="181.44" style="stroke: #000000; stroke-width: 0.8"/>
      </g>
     </g>
    </g>
    <g id="ytick_11">
     <g id="line2d_50">
      <path d="M 461.24 143.64 
L 851.04 143.64 
" clip-path="url(#p5f4d7cec33)" style="fill: none; stroke: #b0b0b0; stroke-opacity: 0.3; stroke-width: 0.8; stroke-linecap: square"/>
     </g>
     <g id="line2d_51">
      <g>
       <use xlink:href="#md000090cc8" x="461.24" y="143.64" style="stroke: #000000; stroke-width: 0.8"/>
      </g>
     </g>
    </g>
    <g id="ytick_12">
     <g id="line2d_52">
      <path d="M 461.24 105.84 
L 851.04 105.84 
" clip-path="url(#p5f4d7cec33)" style="fill: none; stroke: #b0b0b0; stroke-opacity: 0.3; stroke-width: 0.8; stroke-linecap: square"/>
     </g>
     <g id="line2d_53">
      <g>
       <use xlink:href="#md000090cc8" x="461.24" y="105.84" style="stroke: #000000; stroke-width: 0.8"/>
      </g>
     </g>
    </g>
    <g id="ytick_13">
     <g id="line2d_54">
      <path d="M 461.24 68.04 
L 851.04 68.04 
" clip-path="url(#p5f4d7cec33)" style="fill: none; stroke: #b0b0b0; stroke-opacity: 0.3; stroke-width: 0.8; stroke-linecap: square"/>
     </g>
     <g id="line2d_55">
      <g>
       <use xlink:href="#md000090cc8" x="461.24" y="68.04" style="stroke: #000000; stroke-width: 0.8"/>
      </g>
     </g>
    </g>
    <g id="ytick_14">
     <g id="line2d_56">
      <path d="M 461.24 30.24 
L 851.04 30.24 
" clip-path="url(#p5f4d7cec33)" style="fill: none; stroke: #b0b0b0; stroke-opacity: 0.3; stroke-width: 0.8; stroke-linecap: square"/>
     </g>
     <g id="line2d_57">
      <g>
       <use xlink:href="#md000090cc8" x="461.24" y="30.24" style="stroke: #000000; stroke-width: 0.8"/>
      </g>
     </g>
    </g>
    <g id="text_12">
     <!-- Optimization -->
     <g transform="translate(447.744375 187.449375) rotate(-90) scale(0.12 -0.12)">
      <use xlink:href="#DejaVuSerif-Bold-4f"/>
      <use xlink:href="#DejaVuSerif-Bold-70" transform="translate(87.109375 0)"/>
      <use xlink:href="#DejaVuSerif-Bold-74" transform="translate(157.03125 0)"/>
      <use xlink:href="#DejaVuSerif-Bold-69" transform="translate(203.222656 0)"/>
      <use xlink:href="#DejaVuSerif-Bold-6d" transform="translate(241.210938 0)"/>
      <use xlink:href="#DejaVuSerif-Bold-69" transform="translate(347.021484 0)"/>
      <use xlink:href="#DejaVuSerif-Bold-7a" transform="translate(385.009766 0)"/>
      <use xlink:href="#DejaVuSerif-Bold-61" transform="translate(441.796875 0)"/>
      <use xlink:href="#DejaVuSerif-Bold-74" transform="translate(506.591797 0)"/>
      <use xlink:href="#DejaVuSerif-Bold-69" transform="translate(552.783203 0)"/>
      <use xlink:href="#DejaVuSerif-Bold-6f" transform="translate(590.771484 0)"/>
      <use xlink:href="#DejaVuSerif-Bold-6e" transform="translate(657.470703 0)"/>
     </g>
    </g>
   </g>
   <g id="line2d_58">
    <path d="M 500.22 234.36 
L 812.06 46.116 
" clip-path="url(#p5f4d7cec33)" style="fill: none; stroke-dasharray: 11.1,4.8; stroke-dashoffset: 0; stroke: #f39c12; stroke-opacity: 0.6; stroke-width: 3"/>
   </g>
   <g id="line2d_59">
    <path d="M 500.22 234.36 
L 539.2 199.603473 
L 578.18 171.423 
L 617.16 152.542473 
L 656.14 140.238 
L 695.12 127.933527 
L 734.1 109.053 
L 773.08 80.872527 
L 812.06 67.2084 
" clip-path="url(#p5f4d7cec33)" style="fill: none; stroke: #8e44ad; stroke-opacity: 0.9; stroke-width: 4; stroke-linecap: square"/>
    <defs>
     <path id="m2965eb0a98" d="M 0 4 
C 1.060812 4 2.078319 3.578535 2.828427 2.828427 
C 3.578535 2.078319 4 1.060812 4 0 
C 4 -1.060812 3.578535 -2.078319 2.828427 -2.828427 
C 2.078319 -3.578535 1.060812 -4 0 -4 
C -1.060812 -4 -2.078319 -3.578535 -2.828427 -2.828427 
C -3.578535 -2.078319 -4 -1.060812 -4 0 
C -4 1.060812 -3.578535 2.078319 -2.828427 2.828427 
C -2.078319 3.578535 -1.060812 4 0 4 
z
" style="stroke: #8e44ad; stroke-opacity: 0.9"/>
    </defs>
    <g clip-path="url(#p5f4d7cec33)">
     <use xlink:href="#m2965eb0a98" x="500.22" y="234.36" style="fill: #8e44ad; fill-opacity: 0.9; stroke: #8e44ad; stroke-opacity: 0.9"/>
     <use xlink:href="#m2965eb0a98" x="539.2" y="199.603473" style="fill: #8e44ad; fill-opacity: 0.9; stroke: #8e44ad; stroke-opacity: 0.9"/>
     <use xlink:href="#m2965eb0a98" x="578.18" y="171.423" style="fill: #8e44ad; fill-opacity: 0.9; stroke: #8e44ad; stroke-opacity: 0.9"/>
     <use xlink:href="#m2965eb0a98" x="617.16" y="152.542473" style="fill: #8e44ad; fill-opacity: 0.9; stroke: #8e44ad; stroke-opacity: 0.9"/>
     <use xlink:href="#m2965eb0a98" x="656.14" y="140.238" style="fill: #8e44ad; fill-opacity: 0.9; stroke: #8e44ad; stroke-opacity: 0.9"/>
     <use xlink:href="#m2965eb0a98" x="695.12" y="127.933527" style="fill: #8e44ad; fill-opacity: 0.9; stroke: #8e44ad; stroke-opacity: 0.9"/>
     <use xlink:href="#m2965eb0a98" x="734.1" y="109.053" style="fill: #8e44ad; fill-opacity: 0.9; stroke: #8e44ad; stroke-opacity: 0.9"/>
     <use xlink:href="#m2965eb0a98" x="773.08" y="80.872527" style="fill: #8e44ad; fill-opacity: 0.9; stroke: #8e44ad; stroke-opacity: 0.9"/>
     <use xlink:href="#m2965eb0a98" x="812.06" y="67.2084" style="fill: #8e44ad; fill-opacity: 0.9; stroke: #8e44ad; stroke-opacity: 0.9"/>
    </g>
   </g>
   <g id="line2d_60">
    <path d="M 812.06 67.2084 
L 812.06 46.116 
" clip-path="url(#p5f4d7cec33)" style="fill: none; stroke-dasharray: 3,4.95; stroke-dashoffset: 0; stroke: #008000; stroke-opacity: 0.8; stroke-width: 3"/>
   </g>
   <g id="patch_17">
    <path d="M 461.24 257.04 
L 461.24 30.24 
" style="fill: none; stroke: #000000; stroke-width: 1.5; stroke-linejoin: miter; stroke-linecap: square"/>
   </g>
   <g id="patch_18">
    <path d="M 851.04 257.04 
L 851.04 30.24 
" style="fill: none; stroke: #000000; stroke-width: 1.5; stroke-linejoin: miter; stroke-linecap: square"/>
   </g>
   <g id="patch_19">
    <path d="M 461.24 257.04 
L 851.04 257.04 
" style="fill: none; stroke: #000000; stroke-width: 1.5; stroke-linejoin: miter; stroke-linecap: square"/>
   </g>
   <g id="patch_20">
    <path d="M 461.24 30.24 
L 851.04 30.24 
" style="fill: none; stroke: #000000; stroke-width: 1.5; stroke-linejoin: miter; stroke-linecap: square"/>
   </g>
   <g id="text_13">
    <g id="patch_21">
     <path d="M 715.399375 80.679688 
L 791.780625 80.679688 
Q 794.780625 80.679688 794.780625 77.679688 
L 794.780625 56.80375 
Q 794.780625 53.80375 791.780625 53.80375 
L 715.399375 53.80375 
Q 712.399375 53.80375 712.399375 56.80375 
L 712.399375 77.679688 
Q 712.399375 80.679688 715.399375 80.679688 
z
" style="fill: #e8f5e8; opacity: 0.9; stroke: #008000; stroke-linejoin: miter"/>
    </g>
    <!-- Near-Optimal -->
    <g transform="translate(715.399375 64.402188) scale(0.1 -0.1)">
     <defs>
      <path id="DejaVuSerif-Bold-4e" d="M 281 0 
L 281 378 
L 878 378 
L 878 4288 
L 281 4288 
L 281 4666 
L 1741 4666 
L 4556 1363 
L 4556 4288 
L 3963 4288 
L 3963 4666 
L 5594 4666 
L 5594 4288 
L 4997 4288 
L 4997 0 
L 4178 0 
L 1319 3372 
L 1319 378 
L 1913 378 
L 1913 0 
L 281 0 
z
" transform="scale(0.015625)"/>
      <path id="DejaVuSerif-Bold-2d" d="M 347 2138 
L 2309 2138 
L 2309 1294 
L 347 1294 
L 347 2138 
z
" transform="scale(0.015625)"/>
     </defs>
     <use xlink:href="#DejaVuSerif-Bold-4e"/>
     <use xlink:href="#DejaVuSerif-Bold-65" transform="translate(91.40625 0)"/>
     <use xlink:href="#DejaVuSerif-Bold-61" transform="translate(155.029297 0)"/>
     <use xlink:href="#DejaVuSerif-Bold-72" transform="translate(219.824219 0)"/>
     <use xlink:href="#DejaVuSerif-Bold-2d" transform="translate(272.509766 0)"/>
     <use xlink:href="#DejaVuSerif-Bold-4f" transform="translate(314.013672 0)"/>
     <use xlink:href="#DejaVuSerif-Bold-70" transform="translate(401.123047 0)"/>
     <use xlink:href="#DejaVuSerif-Bold-74" transform="translate(471.044922 0)"/>
     <use xlink:href="#DejaVuSerif-Bold-69" transform="translate(517.236328 0)"/>
     <use xlink:href="#DejaVuSerif-Bold-6d" transform="translate(555.224609 0)"/>
     <use xlink:href="#DejaVuSerif-Bold-61" transform="translate(661.035156 0)"/>
     <use xlink:href="#DejaVuSerif-Bold-6c" transform="translate(725.830078 0)"/>
    </g>
    <!-- Performance -->
    <g transform="translate(717.63375 75.6) scale(0.1 -0.1)">
     <use xlink:href="#DejaVuSerif-Bold-50"/>
     <use xlink:href="#DejaVuSerif-Bold-65" transform="translate(72.570312 0)"/>
     <use xlink:href="#DejaVuSerif-Bold-72" transform="translate(136.193359 0)"/>
     <use xlink:href="#DejaVuSerif-Bold-66" transform="translate(188.878906 0)"/>
     <use xlink:href="#DejaVuSerif-Bold-6f" transform="translate(231.896484 0)"/>
     <use xlink:href="#DejaVuSerif-Bold-72" transform="translate(298.595703 0)"/>
     <use xlink:href="#DejaVuSerif-Bold-6d" transform="translate(351.28125 0)"/>
     <use xlink:href="#DejaVuSerif-Bold-61" transform="translate(457.091797 0)"/>
     <use xlink:href="#DejaVuSerif-Bold-6e" transform="translate(521.886719 0)"/>
     <use xlink:href="#DejaVuSerif-Bold-63" transform="translate(594.591797 0)"/>
     <use xlink:href="#DejaVuSerif-Bold-65" transform="translate(655.480469 0)"/>
    </g>
   </g>
   <g id="text_14">
    <g id="patch_22">
     <path d="M 542.762578 142.580063 
L 613.597422 142.580063 
Q 616.897422 142.580063 616.897422 139.280063 
L 616.897422 116.316531 
Q 616.897422 113.016531 613.597422 113.016531 
L 542.762578 113.016531 
Q 539.462578 113.016531 539.462578 116.316531 
L 539.462578 139.280063 
Q 539.462578 142.580063 542.762578 142.580063 
z
" style="fill: #e8f5e8; opacity: 0.9; stroke: #008000; stroke-linejoin: miter"/>
    </g>
    <!-- Parallel -->
    <g transform="translate(554.395937 124.518406) scale(0.11 -0.11)">
     <use xlink:href="#DejaVuSerif-Bold-50"/>
     <use xlink:href="#DejaVuSerif-Bold-61" transform="translate(72.570312 0)"/>
     <use xlink:href="#DejaVuSerif-Bold-72" transform="translate(137.365234 0)"/>
     <use xlink:href="#DejaVuSerif-Bold-61" transform="translate(190.050781 0)"/>
     <use xlink:href="#DejaVuSerif-Bold-6c" transform="translate(254.845703 0)"/>
     <use xlink:href="#DejaVuSerif-Bold-6c" transform="translate(292.833984 0)"/>
     <use xlink:href="#DejaVuSerif-Bold-65" transform="translate(330.822266 0)"/>
     <use xlink:href="#DejaVuSerif-Bold-6c" transform="translate(394.445312 0)"/>
    </g>
    <!-- Advantages -->
    <g transform="translate(542.762578 136.836) scale(0.11 -0.11)">
     <defs>
      <path id="DejaVuSerif-Bold-41" d="M -50 0 
L -50 378 
L 331 378 
L 2088 4666 
L 2834 4666 
L 4594 378 
L 5038 378 
L 5038 0 
L 2853 0 
L 2853 378 
L 3309 378 
L 2925 1331 
L 1172 1331 
L 781 378 
L 1338 378 
L 1338 0 
L -50 0 
z
M 1325 1709 
L 2772 1709 
L 2053 3494 
L 1325 1709 
z
" transform="scale(0.015625)"/>
      <path id="DejaVuSerif-Bold-76" d="M 1428 0 
L 250 2944 
L -116 2944 
L -116 3322 
L 1791 3322 
L 1791 2944 
L 1388 2944 
L 2228 844 
L 3066 2944 
L 2631 2944 
L 2631 3322 
L 3878 3322 
L 3878 2944 
L 3494 2944 
L 2316 0 
L 1428 0 
z
" transform="scale(0.015625)"/>
     </defs>
     <use xlink:href="#DejaVuSerif-Bold-41"/>
     <use xlink:href="#DejaVuSerif-Bold-64" transform="translate(77.587891 0)"/>
     <use xlink:href="#DejaVuSerif-Bold-76" transform="translate(147.509766 0)"/>
     <use xlink:href="#DejaVuSerif-Bold-61" transform="translate(205.615234 0)"/>
     <use xlink:href="#DejaVuSerif-Bold-6e" transform="translate(270.410156 0)"/>
     <use xlink:href="#DejaVuSerif-Bold-74" transform="translate(343.115234 0)"/>
     <use xlink:href="#DejaVuSerif-Bold-61" transform="translate(389.306641 0)"/>
     <use xlink:href="#DejaVuSerif-Bold-67" transform="translate(454.101562 0)"/>
     <use xlink:href="#DejaVuSerif-Bold-65" transform="translate(524.023438 0)"/>
     <use xlink:href="#DejaVuSerif-Bold-73" transform="translate(587.646484 0)"/>
    </g>
   </g>
   <g id="text_15">
    <!-- PRPO: Parallel Policy Optimization -->
    <g transform="translate(519.022031 21.58) scale(0.14 -0.14)">
     <defs>
      <path id="DejaVuSerif-Bold-79" d="M 1997 -750 
Q 1847 -1116 1634 -1269 
Q 1422 -1422 1063 -1422 
Q 909 -1422 721 -1387 
Q 534 -1353 313 -1288 
L 313 -594 
L 666 -597 
Q 675 -838 779 -953 
Q 884 -1069 1094 -1069 
Q 1297 -1069 1422 -958 
Q 1547 -847 1672 -538 
L 1722 -422 
L 275 2944 
L -84 2944 
L -84 3322 
L 1831 3322 
L 1831 2944 
L 1434 2944 
L 2278 978 
L 3066 2944 
L 2625 2944 
L 2625 3322 
L 3872 3322 
L 3872 2944 
L 3469 2944 
L 1997 -750 
z
" transform="scale(0.015625)"/>
     </defs>
     <use xlink:href="#DejaVuSerif-Bold-50"/>
     <use xlink:href="#DejaVuSerif-Bold-52" transform="translate(75.195312 0)"/>
     <use xlink:href="#DejaVuSerif-Bold-50" transform="translate(158.300781 0)"/>
     <use xlink:href="#DejaVuSerif-Bold-4f" transform="translate(233.496094 0)"/>
     <use xlink:href="#DejaVuSerif-Bold-3a" transform="translate(320.605469 0)"/>
     <use xlink:href="#DejaVuSerif-Bold-20" transform="translate(357.519531 0)"/>
     <use xlink:href="#DejaVuSerif-Bold-50" transform="translate(392.333984 0)"/>
     <use xlink:href="#DejaVuSerif-Bold-61" transform="translate(464.904297 0)"/>
     <use xlink:href="#DejaVuSerif-Bold-72" transform="translate(529.699219 0)"/>
     <use xlink:href="#DejaVuSerif-Bold-61" transform="translate(582.384766 0)"/>
     <use xlink:href="#DejaVuSerif-Bold-6c" transform="translate(647.179688 0)"/>
     <use xlink:href="#DejaVuSerif-Bold-6c" transform="translate(685.167969 0)"/>
     <use xlink:href="#DejaVuSerif-Bold-65" transform="translate(723.15625 0)"/>
     <use xlink:href="#DejaVuSerif-Bold-6c" transform="translate(786.779297 0)"/>
     <use xlink:href="#DejaVuSerif-Bold-20" transform="translate(824.767578 0)"/>
     <use xlink:href="#DejaVuSerif-Bold-50" transform="translate(859.582031 0)"/>
     <use xlink:href="#DejaVuSerif-Bold-6f" transform="translate(932.152344 0)"/>
     <use xlink:href="#DejaVuSerif-Bold-6c" transform="translate(998.851562 0)"/>
     <use xlink:href="#DejaVuSerif-Bold-69" transform="translate(1036.839844 0)"/>
     <use xlink:href="#DejaVuSerif-Bold-63" transform="translate(1074.828125 0)"/>
     <use xlink:href="#DejaVuSerif-Bold-79" transform="translate(1135.716797 0)"/>
     <use xlink:href="#DejaVuSerif-Bold-20" transform="translate(1193.822266 0)"/>
     <use xlink:href="#DejaVuSerif-Bold-4f" transform="translate(1228.636719 0)"/>
     <use xlink:href="#DejaVuSerif-Bold-70" transform="translate(1315.746094 0)"/>
     <use xlink:href="#DejaVuSerif-Bold-74" transform="translate(1385.667969 0)"/>
     <use xlink:href="#DejaVuSerif-Bold-69" transform="translate(1431.859375 0)"/>
     <use xlink:href="#DejaVuSerif-Bold-6d" transform="translate(1469.847656 0)"/>
     <use xlink:href="#DejaVuSerif-Bold-69" transform="translate(1575.658203 0)"/>
     <use xlink:href="#DejaVuSerif-Bold-7a" transform="translate(1613.646484 0)"/>
     <use xlink:href="#DejaVuSerif-Bold-61" transform="translate(1670.433594 0)"/>
     <use xlink:href="#DejaVuSerif-Bold-74" transform="translate(1735.228516 0)"/>
     <use xlink:href="#DejaVuSerif-Bold-69" transform="translate(1781.419922 0)"/>
     <use xlink:href="#DejaVuSerif-Bold-6f" transform="translate(1819.408203 0)"/>
     <use xlink:href="#DejaVuSerif-Bold-6e" transform="translate(1886.107422 0)"/>
    </g>
   </g>
   <g id="PathCollection_7">
    <g clip-path="url(#p5f4d7cec33)">
     <use xlink:href="#mb40512983d" x="500.22" y="234.36" style="fill: #008000; stroke: #000000; stroke-width: 2"/>
    </g>
   </g>
   <g id="PathCollection_8">
    <g clip-path="url(#p5f4d7cec33)">
     <use xlink:href="#m331266a1a7" x="812.06" y="46.116" style="fill: #f39c12; stroke: #000000; stroke-width: 2"/>
    </g>
   </g>
   <g id="PathCollection_9">
    <g clip-path="url(#p5f4d7cec33)">
     <use xlink:href="#m645e0a3c42" x="812.06" y="67.2084" style="fill: #e67e22; stroke: #000000; stroke-width: 2"/>
    </g>
   </g>
   <g id="legend_2">
    <g id="patch_23">
     <path d="M 467.54 103.7475 
L 623.83625 103.7475 
Q 625.63625 103.7475 625.63625 101.9475 
L 625.63625 36.54 
Q 625.63625 34.74 623.83625 34.74 
L 467.54 34.74 
Q 465.74 34.74 465.74 36.54 
L 465.74 101.9475 
Q 465.74 103.7475 467.54 103.7475 
z
" style="fill: #ffffff; opacity: 0.9; stroke: #cccccc; stroke-linejoin: miter"/>
    </g>
    <g id="line2d_61">
     <path d="M 469.34 42.028594 
L 478.34 42.028594 
L 487.34 42.028594 
" style="fill: none; stroke-dasharray: 11.1,4.8; stroke-dashoffset: 0; stroke: #f39c12; stroke-opacity: 0.6; stroke-width: 3"/>
    </g>
    <g id="text_16">
     <!-- Expected Optimization Path -->
     <g transform="translate(494.54 45.178594) scale(0.09 -0.09)">
      <use xlink:href="#DejaVuSerif-45"/>
      <use xlink:href="#DejaVuSerif-78" transform="translate(72.998047 0)"/>
      <use xlink:href="#DejaVuSerif-70" transform="translate(129.394531 0)"/>
      <use xlink:href="#DejaVuSerif-65" transform="translate(193.408203 0)"/>
      <use xlink:href="#DejaVuSerif-63" transform="translate(252.587891 0)"/>
      <use xlink:href="#DejaVuSerif-74" transform="translate(308.59375 0)"/>
      <use xlink:href="#DejaVuSerif-65" transform="translate(348.779297 0)"/>
      <use xlink:href="#DejaVuSerif-64" transform="translate(407.958984 0)"/>
      <use xlink:href="#DejaVuSerif-20" transform="translate(471.972656 0)"/>
      <use xlink:href="#DejaVuSerif-4f" transform="translate(503.759766 0)"/>
      <use xlink:href="#DejaVuSerif-70" transform="translate(585.742188 0)"/>
      <use xlink:href="#DejaVuSerif-74" transform="translate(649.755859 0)"/>
      <use xlink:href="#DejaVuSerif-69" transform="translate(689.941406 0)"/>
      <use xlink:href="#DejaVuSerif-6d" transform="translate(721.923828 0)"/>
      <use xlink:href="#DejaVuSerif-69" transform="translate(816.748047 0)"/>
      <use xlink:href="#DejaVuSerif-7a" transform="translate(848.730469 0)"/>
      <use xlink:href="#DejaVuSerif-61" transform="translate(901.416016 0)"/>
      <use xlink:href="#DejaVuSerif-74" transform="translate(961.035156 0)"/>
      <use xlink:href="#DejaVuSerif-69" transform="translate(1001.220703 0)"/>
      <use xlink:href="#DejaVuSerif-6f" transform="translate(1033.203125 0)"/>
      <use xlink:href="#DejaVuSerif-6e" transform="translate(1093.408203 0)"/>
      <use xlink:href="#DejaVuSerif-20" transform="translate(1157.8125 0)"/>
      <use xlink:href="#DejaVuSerif-50" transform="translate(1189.599609 0)"/>
      <use xlink:href="#DejaVuSerif-61" transform="translate(1252.384766 0)"/>
      <use xlink:href="#DejaVuSerif-74" transform="translate(1312.003906 0)"/>
      <use xlink:href="#DejaVuSerif-68" transform="translate(1352.189453 0)"/>
     </g>
    </g>
    <g id="line2d_62">
     <path d="M 469.34 55.238906 
L 478.34 55.238906 
L 487.34 55.238906 
" style="fill: none; stroke: #8e44ad; stroke-opacity: 0.9; stroke-width: 4; stroke-linecap: square"/>
     <g>
      <use xlink:href="#m2965eb0a98" x="478.34" y="55.238906" style="fill: #8e44ad; fill-opacity: 0.9; stroke: #8e44ad; stroke-opacity: 0.9"/>
     </g>
    </g>
    <g id="text_17">
     <!-- Reward-PRPO Trajectory -->
     <g transform="translate(494.54 58.388906) scale(0.09 -0.09)">
      <defs>
       <path id="DejaVuSerif-77" d="M 3072 3322 
L 3922 728 
L 4672 2988 
L 4191 2988 
L 4191 3322 
L 5394 3322 
L 5394 2988 
L 5025 2988 
L 4038 0 
L 3559 0 
L 2741 2484 
L 1919 0 
L 1459 0 
L 475 2988 
L 103 2988 
L 103 3322 
L 1606 3322 
L 1606 2988 
L 1069 2988 
L 1813 728 
L 2669 3322 
L 3072 3322 
z
" transform="scale(0.015625)"/>
       <path id="DejaVuSerif-2d" d="M 281 1959 
L 1881 1959 
L 1881 1472 
L 281 1472 
L 281 1959 
z
" transform="scale(0.015625)"/>
      </defs>
      <use xlink:href="#DejaVuSerif-52"/>
      <use xlink:href="#DejaVuSerif-65" transform="translate(75.292969 0)"/>
      <use xlink:href="#DejaVuSerif-77" transform="translate(134.472656 0)"/>
      <use xlink:href="#DejaVuSerif-61" transform="translate(220.068359 0)"/>
      <use xlink:href="#DejaVuSerif-72" transform="translate(279.6875 0)"/>
      <use xlink:href="#DejaVuSerif-64" transform="translate(327.490234 0)"/>
      <use xlink:href="#DejaVuSerif-2d" transform="translate(391.503906 0)"/>
      <use xlink:href="#DejaVuSerif-50" transform="translate(425.292969 0)"/>
      <use xlink:href="#DejaVuSerif-52" transform="translate(492.578125 0)"/>
      <use xlink:href="#DejaVuSerif-50" transform="translate(567.871094 0)"/>
      <use xlink:href="#DejaVuSerif-4f" transform="translate(635.15625 0)"/>
      <use xlink:href="#DejaVuSerif-20" transform="translate(717.138672 0)"/>
      <use xlink:href="#DejaVuSerif-54" transform="translate(748.925781 0)"/>
      <use xlink:href="#DejaVuSerif-72" transform="translate(815.625 0)"/>
      <use xlink:href="#DejaVuSerif-61" transform="translate(863.427734 0)"/>
      <use xlink:href="#DejaVuSerif-6a" transform="translate(923.046875 0)"/>
      <use xlink:href="#DejaVuSerif-65" transform="translate(954.052734 0)"/>
      <use xlink:href="#DejaVuSerif-63" transform="translate(1013.232422 0)"/>
      <use xlink:href="#DejaVuSerif-74" transform="translate(1069.238281 0)"/>
      <use xlink:href="#DejaVuSerif-6f" transform="translate(1109.423828 0)"/>
      <use xlink:href="#DejaVuSerif-72" transform="translate(1169.628906 0)"/>
      <use xlink:href="#DejaVuSerif-79" transform="translate(1217.431641 0)"/>
     </g>
    </g>
    <g id="PathCollection_10">
     <g>
      <use xlink:href="#mb40512983d" x="478.34" y="69.364688" style="fill: #008000; stroke: #000000; stroke-width: 2"/>
     </g>
    </g>
    <g id="text_18">
     <!-- Start -->
     <g transform="translate(494.54 71.727188) scale(0.09 -0.09)">
      <use xlink:href="#DejaVuSerif-53"/>
      <use xlink:href="#DejaVuSerif-74" transform="translate(68.505859 0)"/>
      <use xlink:href="#DejaVuSerif-61" transform="translate(108.691406 0)"/>
      <use xlink:href="#DejaVuSerif-72" transform="translate(168.310547 0)"/>
      <use xlink:href="#DejaVuSerif-74" transform="translate(216.113281 0)"/>
     </g>
    </g>
    <g id="PathCollection_11">
     <g>
      <use xlink:href="#m331266a1a7" x="478.34" y="82.575" style="fill: #f39c12; stroke: #000000; stroke-width: 2"/>
     </g>
    </g>
    <g id="text_19">
     <!-- Target -->
     <g transform="translate(494.54 84.9375) scale(0.09 -0.09)">
      <use xlink:href="#DejaVuSerif-54"/>
      <use xlink:href="#DejaVuSerif-61" transform="translate(58.949219 0)"/>
      <use xlink:href="#DejaVuSerif-72" transform="translate(118.568359 0)"/>
      <use xlink:href="#DejaVuSerif-67" transform="translate(166.371094 0)"/>
      <use xlink:href="#DejaVuSerif-65" transform="translate(230.384766 0)"/>
      <use xlink:href="#DejaVuSerif-74" transform="translate(289.564453 0)"/>
     </g>
    </g>
    <g id="PathCollection_12">
     <g>
      <use xlink:href="#m645e0a3c42" x="478.34" y="95.913281" style="fill: #e67e22; stroke: #000000; stroke-width: 2"/>
     </g>
    </g>
    <g id="text_20">
     <!-- End -->
     <g transform="translate(494.54 98.275781) scale(0.09 -0.09)">
      <use xlink:href="#DejaVuSerif-45"/>
      <use xlink:href="#DejaVuSerif-6e" transform="translate(72.998047 0)"/>
      <use xlink:href="#DejaVuSerif-64" transform="translate(137.402344 0)"/>
     </g>
    </g>
   </g>
   <g id="patch_24">
    <path d="M 619.068079 151.940166 
Q 636.651447 146.38978 649.970106 142.185596 
" clip-path="url(#p5f4d7cec33)" style="fill: none; opacity: 0.9; stroke: #f39c12; stroke-width: 4; stroke-linecap: round"/>
    <path d="M 638.928828 140.427708 
L 649.970106 142.185596 
L 641.939029 149.963886 
" clip-path="url(#p5f4d7cec33)" style="fill: none; opacity: 0.9; stroke: #f39c12; stroke-width: 4; stroke-linecap: round"/>
   </g>
  </g>
  <g id="legend_3">
   <g id="patch_25">
    <path d="M 99.153906 291.352 
L 764.846094 291.352 
Q 766.846094 291.352 766.846094 289.352 
L 766.846094 275.673875 
Q 766.846094 273.673875 764.846094 273.673875 
L 99.153906 273.673875 
Q 97.153906 273.673875 97.153906 275.673875 
L 97.153906 289.352 
Q 97.153906 291.352 99.153906 291.352 
z
" style="fill: #ffffff; opacity: 0.9; stroke: #cccccc; stroke-linejoin: miter"/>
   </g>
   <g id="patch_26">
    <path d="M 101.153906 285.272313 
L 121.153906 285.272313 
L 121.153906 278.272313 
L 101.153906 278.272313 
z
" style="fill: #e74c3c; stroke: #e74c3c; stroke-linejoin: miter"/>
   </g>
   <g id="text_21">
    <!-- Subdirection 1 -->
    <g transform="translate(129.153906 285.272313) scale(0.1 -0.1)">
     <defs>
      <path id="DejaVuSerif-75" d="M 2266 3322 
L 3341 3322 
L 3341 331 
L 3884 331 
L 3884 0 
L 2766 0 
L 2766 588 
Q 2606 256 2353 82 
Q 2100 -91 1766 -91 
Q 1213 -91 952 223 
Q 691 538 691 1209 
L 691 2988 
L 172 2988 
L 172 3322 
L 1269 3322 
L 1269 1388 
Q 1269 781 1417 556 
Q 1566 331 1947 331 
Q 2347 331 2556 625 
Q 2766 919 2766 1478 
L 2766 2988 
L 2266 2988 
L 2266 3322 
z
" transform="scale(0.015625)"/>
      <path id="DejaVuSerif-62" d="M 738 331 
L 738 4531 
L 184 4531 
L 184 4863 
L 1313 4863 
L 1313 2803 
Q 1481 3116 1742 3264 
Q 2003 3413 2388 3413 
Q 3000 3413 3387 2928 
Q 3775 2444 3775 1663 
Q 3775 881 3387 395 
Q 3000 -91 2388 -91 
Q 2003 -91 1742 57 
Q 1481 206 1313 519 
L 1313 0 
L 184 0 
L 184 331 
L 738 331 
z
M 1313 1497 
Q 1313 897 1542 583 
Q 1772 269 2209 269 
Q 2650 269 2876 622 
Q 3103 975 3103 1663 
Q 3103 2353 2876 2703 
Q 2650 3053 2209 3053 
Q 1772 3053 1542 2737 
Q 1313 2422 1313 1825 
L 1313 1497 
z
" transform="scale(0.015625)"/>
      <path id="DejaVuSerif-31" d="M 909 0 
L 909 331 
L 1722 331 
L 1722 4213 
L 781 3603 
L 781 4013 
L 1919 4750 
L 2350 4750 
L 2350 331 
L 3163 331 
L 3163 0 
L 909 0 
z
" transform="scale(0.015625)"/>
     </defs>
     <use xlink:href="#DejaVuSerif-53"/>
     <use xlink:href="#DejaVuSerif-75" transform="translate(68.505859 0)"/>
     <use xlink:href="#DejaVuSerif-62" transform="translate(132.910156 0)"/>
     <use xlink:href="#DejaVuSerif-64" transform="translate(196.923828 0)"/>
     <use xlink:href="#DejaVuSerif-69" transform="translate(260.9375 0)"/>
     <use xlink:href="#DejaVuSerif-72" transform="translate(292.919922 0)"/>
     <use xlink:href="#DejaVuSerif-65" transform="translate(340.722656 0)"/>
     <use xlink:href="#DejaVuSerif-63" transform="translate(399.902344 0)"/>
     <use xlink:href="#DejaVuSerif-74" transform="translate(455.908203 0)"/>
     <use xlink:href="#DejaVuSerif-69" transform="translate(496.09375 0)"/>
     <use xlink:href="#DejaVuSerif-6f" transform="translate(528.076172 0)"/>
     <use xlink:href="#DejaVuSerif-6e" transform="translate(588.28125 0)"/>
     <use xlink:href="#DejaVuSerif-20" transform="translate(652.685547 0)"/>
     <use xlink:href="#DejaVuSerif-31" transform="translate(684.472656 0)"/>
    </g>
   </g>
   <g id="patch_27">
    <path d="M 223.963281 285.272313 
L 243.963281 285.272313 
L 243.963281 278.272313 
L 223.963281 278.272313 
z
" style="fill: #27ae60; stroke: #27ae60; stroke-linejoin: miter"/>
   </g>
   <g id="text_22">
    <!-- Subdirection 2 -->
    <g transform="translate(251.963281 285.272313) scale(0.1 -0.1)">
     <defs>
      <path id="DejaVuSerif-32" d="M 819 3553 
L 469 3553 
L 469 4384 
Q 803 4563 1142 4656 
Q 1481 4750 1806 4750 
Q 2534 4750 2956 4397 
Q 3378 4044 3378 3438 
Q 3378 2753 2422 1800 
Q 2347 1728 2309 1691 
L 1131 513 
L 3078 513 
L 3078 1088 
L 3444 1088 
L 3444 0 
L 434 0 
L 434 341 
L 1850 1753 
Q 2319 2222 2519 2614 
Q 2719 3006 2719 3438 
Q 2719 3909 2473 4175 
Q 2228 4441 1797 4441 
Q 1350 4441 1106 4219 
Q 863 3997 819 3553 
z
" transform="scale(0.015625)"/>
     </defs>
     <use xlink:href="#DejaVuSerif-53"/>
     <use xlink:href="#DejaVuSerif-75" transform="translate(68.505859 0)"/>
     <use xlink:href="#DejaVuSerif-62" transform="translate(132.910156 0)"/>
     <use xlink:href="#DejaVuSerif-64" transform="translate(196.923828 0)"/>
     <use xlink:href="#DejaVuSerif-69" transform="translate(260.9375 0)"/>
     <use xlink:href="#DejaVuSerif-72" transform="translate(292.919922 0)"/>
     <use xlink:href="#DejaVuSerif-65" transform="translate(340.722656 0)"/>
     <use xlink:href="#DejaVuSerif-63" transform="translate(399.902344 0)"/>
     <use xlink:href="#DejaVuSerif-74" transform="translate(455.908203 0)"/>
     <use xlink:href="#DejaVuSerif-69" transform="translate(496.09375 0)"/>
     <use xlink:href="#DejaVuSerif-6f" transform="translate(528.076172 0)"/>
     <use xlink:href="#DejaVuSerif-6e" transform="translate(588.28125 0)"/>
     <use xlink:href="#DejaVuSerif-20" transform="translate(652.685547 0)"/>
     <use xlink:href="#DejaVuSerif-32" transform="translate(684.472656 0)"/>
    </g>
   </g>
   <g id="patch_28">
    <path d="M 346.772656 285.272313 
L 366.772656 285.272313 
L 366.772656 278.272313 
L 346.772656 278.272313 
z
" style="stroke: #000000; stroke-linejoin: miter"/>
   </g>
   <g id="text_23">
    <!-- GRPO Optimization Direction -->
    <g transform="translate(374.772656 285.272313) scale(0.1 -0.1)">
     <defs>
      <path id="DejaVuSerif-44" d="M 1581 331 
L 2163 331 
Q 3072 331 3558 850 
Q 4044 1369 4044 2338 
Q 4044 3306 3559 3818 
Q 3075 4331 2163 4331 
L 1581 4331 
L 1581 331 
z
M 353 0 
L 353 331 
L 947 331 
L 947 4331 
L 353 4331 
L 353 4666 
L 2209 4666 
Q 3416 4666 4089 4050 
Q 4763 3434 4763 2338 
Q 4763 1238 4088 619 
Q 3413 0 2209 0 
L 353 0 
z
" transform="scale(0.015625)"/>
     </defs>
     <use xlink:href="#DejaVuSerif-47"/>
     <use xlink:href="#DejaVuSerif-52" transform="translate(79.882812 0)"/>
     <use xlink:href="#DejaVuSerif-50" transform="translate(155.175781 0)"/>
     <use xlink:href="#DejaVuSerif-4f" transform="translate(222.460938 0)"/>
     <use xlink:href="#DejaVuSerif-20" transform="translate(304.443359 0)"/>
     <use xlink:href="#DejaVuSerif-4f" transform="translate(336.230469 0)"/>
     <use xlink:href="#DejaVuSerif-70" transform="translate(418.212891 0)"/>
     <use xlink:href="#DejaVuSerif-74" transform="translate(482.226562 0)"/>
     <use xlink:href="#DejaVuSerif-69" transform="translate(522.412109 0)"/>
     <use xlink:href="#DejaVuSerif-6d" transform="translate(554.394531 0)"/>
     <use xlink:href="#DejaVuSerif-69" transform="translate(649.21875 0)"/>
     <use xlink:href="#DejaVuSerif-7a" transform="translate(681.201172 0)"/>
     <use xlink:href="#DejaVuSerif-61" transform="translate(733.886719 0)"/>
     <use xlink:href="#DejaVuSerif-74" transform="translate(793.505859 0)"/>
     <use xlink:href="#DejaVuSerif-69" transform="translate(833.691406 0)"/>
     <use xlink:href="#DejaVuSerif-6f" transform="translate(865.673828 0)"/>
     <use xlink:href="#DejaVuSerif-6e" transform="translate(925.878906 0)"/>
     <use xlink:href="#DejaVuSerif-20" transform="translate(990.283203 0)"/>
     <use xlink:href="#DejaVuSerif-44" transform="translate(1022.070312 0)"/>
     <use xlink:href="#DejaVuSerif-69" transform="translate(1102.246094 0)"/>
     <use xlink:href="#DejaVuSerif-72" transform="translate(1134.228516 0)"/>
     <use xlink:href="#DejaVuSerif-65" transform="translate(1182.03125 0)"/>
     <use xlink:href="#DejaVuSerif-63" transform="translate(1241.210938 0)"/>
     <use xlink:href="#DejaVuSerif-74" transform="translate(1297.216797 0)"/>
     <use xlink:href="#DejaVuSerif-69" transform="translate(1337.402344 0)"/>
     <use xlink:href="#DejaVuSerif-6f" transform="translate(1369.384766 0)"/>
     <use xlink:href="#DejaVuSerif-6e" transform="translate(1429.589844 0)"/>
    </g>
   </g>
   <g id="patch_29">
    <path d="M 544.174219 285.272313 
L 564.174219 285.272313 
L 564.174219 278.272313 
L 544.174219 278.272313 
z
" style="fill: #f39c12; stroke: #f39c12; stroke-linejoin: miter"/>
   </g>
   <g id="text_24">
    <!-- Reward-PRPO Optimization Direction -->
    <g transform="translate(572.174219 285.272313) scale(0.1 -0.1)">
     <use xlink:href="#DejaVuSerif-52"/>
     <use xlink:href="#DejaVuSerif-65" transform="translate(75.292969 0)"/>
     <use xlink:href="#DejaVuSerif-77" transform="translate(134.472656 0)"/>
     <use xlink:href="#DejaVuSerif-61" transform="translate(220.068359 0)"/>
     <use xlink:href="#DejaVuSerif-72" transform="translate(279.6875 0)"/>
     <use xlink:href="#DejaVuSerif-64" transform="translate(327.490234 0)"/>
     <use xlink:href="#DejaVuSerif-2d" transform="translate(391.503906 0)"/>
     <use xlink:href="#DejaVuSerif-50" transform="translate(425.292969 0)"/>
     <use xlink:href="#DejaVuSerif-52" transform="translate(492.578125 0)"/>
     <use xlink:href="#DejaVuSerif-50" transform="translate(567.871094 0)"/>
     <use xlink:href="#DejaVuSerif-4f" transform="translate(635.15625 0)"/>
     <use xlink:href="#DejaVuSerif-20" transform="translate(717.138672 0)"/>
     <use xlink:href="#DejaVuSerif-4f" transform="translate(748.925781 0)"/>
     <use xlink:href="#DejaVuSerif-70" transform="translate(830.908203 0)"/>
     <use xlink:href="#DejaVuSerif-74" transform="translate(894.921875 0)"/>
     <use xlink:href="#DejaVuSerif-69" transform="translate(935.107422 0)"/>
     <use xlink:href="#DejaVuSerif-6d" transform="translate(967.089844 0)"/>
     <use xlink:href="#DejaVuSerif-69" transform="translate(1061.914062 0)"/>
     <use xlink:href="#DejaVuSerif-7a" transform="translate(1093.896484 0)"/>
     <use xlink:href="#DejaVuSerif-61" transform="translate(1146.582031 0)"/>
     <use xlink:href="#DejaVuSerif-74" transform="translate(1206.201172 0)"/>
     <use xlink:href="#DejaVuSerif-69" transform="translate(1246.386719 0)"/>
     <use xlink:href="#DejaVuSerif-6f" transform="translate(1278.369141 0)"/>
     <use xlink:href="#DejaVuSerif-6e" transform="translate(1338.574219 0)"/>
     <use xlink:href="#DejaVuSerif-20" transform="translate(1402.978516 0)"/>
     <use xlink:href="#DejaVuSerif-44" transform="translate(1434.765625 0)"/>
     <use xlink:href="#DejaVuSerif-69" transform="translate(1514.941406 0)"/>
     <use xlink:href="#DejaVuSerif-72" transform="translate(1546.923828 0)"/>
     <use xlink:href="#DejaVuSerif-65" transform="translate(1594.726562 0)"/>
     <use xlink:href="#DejaVuSerif-63" transform="translate(1653.90625 0)"/>
     <use xlink:href="#DejaVuSerif-74" transform="translate(1709.912109 0)"/>
     <use xlink:href="#DejaVuSerif-69" transform="translate(1750.097656 0)"/>
     <use xlink:href="#DejaVuSerif-6f" transform="translate(1782.080078 0)"/>
     <use xlink:href="#DejaVuSerif-6e" transform="translate(1842.285156 0)"/>
    </g>
   </g>
  </g>
 </g>
 <defs>
  <clipPath id="p5c3100df25">
   <rect x="35.72" y="30.24" width="389.8" height="226.8"/>
  </clipPath>
  <clipPath id="p5f4d7cec33">
   <rect x="461.24" y="30.24" width="389.8" height="226.8"/>
  </clipPath>
 </defs>
</svg>
